<?xml version="1.0" encoding="UTF-8"?>
<svg id="Layer_2" data-name="Layer 2" xmlns="http://www.w3.org/2000/svg" width="415" height="226.67" viewBox="0 0 415 226.67">
  <g id="Layer_4" data-name="Layer 4">
    <rect x="239" y="81" width="176" height="28" style="fill: #299d8f;"/>
    <rect x="239" y="163" width="176" height="28" style="fill: #299d8f;"/>
    <rect x="1" y="40" width="176" height="28" style="fill: #31343e;"/>
    <rect x="1" y="120" width="176" height="28" style="fill: #31343e;"/>
    <rect x="1" y="161" width="176" height="28" style="fill: #31343e;"/>
    <rect y="79" width="176" height="28" style="fill: #31343e;"/>
    <rect width="106" height="24" style="fill: #6a4c93;"/>
  </g>
  <g id="Layer_2-2" data-name="Layer 2">
    <g>
      <path d="m9.31,17.72c-.17,0-.33-.02-.49-.07-.16-.04-.31-.12-.44-.22s-.25-.22-.35-.35c-.1-.14-.18-.28-.24-.44v.98h-1.33v-8.82h1.33v3.56c.06-.16.14-.31.24-.44.1-.14.21-.25.35-.35.14-.1.28-.17.44-.22.16-.04.32-.07.49-.07.19,0,.38.03.57.09s.36.15.5.28c.15.12.27.27.37.44s.18.35.23.53c.06.18.09.37.11.57.02.2.03.39.03.58v1.44c0,.19-.01.39-.03.58-.02.2-.06.39-.11.57-.06.18-.13.36-.23.53s-.22.32-.37.44c-.15.12-.32.22-.5.28s-.38.09-.57.09Zm-.55-1.15c.16,0,.31-.04.46-.11.15-.08.27-.18.35-.31.09-.13.15-.28.18-.44.03-.16.05-.32.05-.48v-1.44c0-.16-.02-.32-.05-.48-.03-.16-.09-.31-.18-.44-.09-.13-.21-.24-.35-.31-.15-.08-.3-.11-.46-.11-.1,0-.21.02-.31.05-.1.03-.19.08-.27.15s-.15.15-.2.24c-.05.09-.09.19-.12.29-.03.1-.05.2-.06.31-.01.1-.02.21-.02.31v1.44c0,.1,0,.21.02.31.01.1.03.21.06.31.03.1.07.2.12.29.05.09.12.17.2.24s.17.12.27.15c.1.03.2.05.31.05Z" style="fill: #fff;"/>
      <path d="m14.01,17.72c-.16,0-.32-.01-.47-.04-.15-.03-.3-.08-.43-.16-.14-.08-.25-.18-.35-.31-.1-.12-.18-.26-.24-.4-.06-.14-.1-.29-.13-.44-.02-.16-.04-.31-.04-.46,0-.22.03-.43.08-.64.05-.21.14-.4.26-.56s.28-.31.46-.43c.18-.12.37-.21.57-.28.2-.07.41-.12.62-.14.21-.03.42-.04.63-.04h.73v-.41c0-.14-.02-.27-.06-.39s-.11-.23-.2-.32-.2-.16-.33-.2-.26-.06-.4-.06c-.11,0-.23.01-.34.04-.12.03-.22.08-.32.15-.1.07-.17.16-.22.28-.05.11-.08.22-.08.34h-1.33c0-.18.03-.37.08-.55.05-.18.13-.36.23-.52.1-.16.23-.3.38-.42.15-.12.32-.21.49-.28.18-.07.36-.12.55-.14s.37-.04.56-.04c.2,0,.4.01.6.04.2.03.39.08.57.16s.35.19.5.32c.15.13.28.28.38.46s.17.36.21.55c.04.2.06.39.06.59v4.21h-1.33v-.94c-.04.08-.07.13-.08.15-.01.02-.03.05-.05.08-.02.04-.05.07-.08.11-.03.04-.06.07-.08.1-.03.03-.06.06-.09.1s-.06.06-.1.09c-.03.03-.07.05-.1.08s-.07.05-.11.07c-.04.02-.07.05-.11.07s-.08.04-.12.05c-.04.02-.08.03-.13.04-.04.01-.09.02-.13.04-.04.01-.08.02-.13.02-.04,0-.09,0-.13.01h-.13s-.09.02-.13.02Zm.54-1.15c.15,0,.3-.02.45-.07s.28-.12.38-.22c.11-.1.19-.23.24-.37.05-.14.08-.29.08-.44v-.49h-.73c-.1,0-.19,0-.28.01-.09,0-.18.02-.28.05-.09.02-.18.05-.27.09s-.17.09-.24.15c-.07.06-.13.14-.16.23-.04.09-.05.18-.05.28,0,.11.02.22.06.32s.1.19.19.27.18.13.29.16c.11.03.22.04.33.04Z" style="fill: #fff;"/>
      <path d="m20.37,17.62v-7.67h-1.44v-1.15h2.77v8.82h-1.33Z" style="fill: #fff;"/>
      <path d="m26.01,17.72c-.16,0-.32-.01-.47-.04-.15-.03-.3-.08-.43-.16-.14-.08-.25-.18-.35-.31-.1-.12-.18-.26-.24-.4-.06-.14-.1-.29-.13-.44-.02-.16-.04-.31-.04-.46,0-.22.03-.43.08-.64.05-.21.14-.4.26-.56s.28-.31.46-.43c.18-.12.37-.21.57-.28.2-.07.41-.12.62-.14.21-.03.42-.04.63-.04h.73v-.41c0-.14-.02-.27-.06-.39s-.11-.23-.2-.32-.2-.16-.33-.2-.26-.06-.4-.06c-.11,0-.23.01-.34.04-.12.03-.22.08-.32.15-.1.07-.17.16-.22.28-.05.11-.08.22-.08.34h-1.33c0-.18.03-.37.08-.55.05-.18.13-.36.23-.52.1-.16.23-.3.38-.42.15-.12.32-.21.49-.28.18-.07.36-.12.55-.14s.37-.04.56-.04c.2,0,.4.01.6.04.2.03.39.08.57.16s.35.19.5.32c.15.13.28.28.38.46s.17.36.21.55c.04.2.06.39.06.59v4.21h-1.33v-.94c-.04.08-.07.13-.08.15-.01.02-.03.05-.05.08-.02.04-.05.07-.08.11-.03.04-.06.07-.08.1-.03.03-.06.06-.09.1s-.06.06-.1.09c-.03.03-.07.05-.1.08s-.07.05-.11.07c-.04.02-.07.05-.11.07s-.08.04-.12.05c-.04.02-.08.03-.13.04-.04.01-.09.02-.13.04-.04.01-.08.02-.13.02-.04,0-.09,0-.13.01h-.13s-.09.02-.13.02Zm.54-1.15c.15,0,.3-.02.45-.07s.28-.12.38-.22c.11-.1.19-.23.24-.37.05-.14.08-.29.08-.44v-.49h-.73c-.1,0-.19,0-.28.01-.09,0-.18.02-.28.05-.09.02-.18.05-.27.09s-.17.09-.24.15c-.07.06-.13.14-.16.23-.04.09-.05.18-.05.28,0,.11.02.22.06.32s.1.19.19.27.18.13.29.16c.11.03.22.04.33.04Z" style="fill: #fff;"/>
      <path d="m30.45,17.62v-6.24h1.33v.98c.06-.16.14-.31.24-.44.1-.14.21-.25.34-.35.13-.1.28-.17.44-.22.16-.04.32-.07.49-.07.19,0,.38.03.56.1.18.06.35.16.49.29.14.13.25.28.34.45s.16.35.21.53c.05.18.09.37.11.56.02.19.03.38.03.57v3.84h-1.33v-3.84c0-.1,0-.21-.02-.31-.01-.1-.03-.21-.06-.31-.03-.1-.07-.19-.12-.28-.05-.09-.12-.17-.19-.24s-.16-.12-.26-.16c-.1-.03-.2-.05-.31-.05s-.21.02-.31.05c-.1.03-.19.08-.26.16-.08.07-.14.15-.19.24-.05.09-.09.18-.12.28-.03.1-.05.2-.06.31-.01.1-.02.21-.02.31v3.84h-1.33Z" style="fill: #fff;"/>
      <path d="m38.71,17.72c-.22,0-.43-.02-.65-.06-.22-.04-.42-.11-.61-.22s-.36-.24-.5-.41c-.15-.16-.27-.34-.36-.54-.09-.2-.15-.4-.19-.62-.03-.22-.05-.43-.05-.65v-1.44c0-.22.02-.43.05-.65.03-.22.09-.42.19-.62.09-.2.21-.38.36-.54s.32-.3.5-.41c.19-.11.39-.18.61-.22.22-.04.43-.06.65-.06s.41.02.62.05c.2.04.4.1.58.19.18.09.35.2.5.35.15.14.27.31.37.49.1.18.17.37.22.58.05.2.07.41.07.61v.02h-1.33c0-.16-.02-.3-.07-.43-.04-.14-.11-.26-.2-.37-.09-.11-.2-.19-.34-.25-.14-.05-.28-.08-.42-.08-.16,0-.31.04-.46.11s-.26.18-.34.31c-.08.13-.14.28-.17.44-.03.16-.05.32-.05.48v1.44c0,.16.02.32.05.48.03.16.09.31.17.44s.2.24.34.31.3.11.46.11c.14,0,.28-.03.42-.08.14-.05.25-.13.34-.25.09-.11.15-.24.2-.37.04-.14.07-.28.07-.42h0s1.33-.01,1.33-.01v.02c0,.2-.02.4-.07.61-.05.2-.12.4-.22.58-.1.18-.22.34-.37.49-.15.14-.31.26-.5.35-.18.09-.38.15-.58.19s-.41.05-.62.05Z" style="fill: #fff;"/>
      <path d="m44.77,17.72c-.22,0-.43-.02-.65-.06-.22-.04-.43-.11-.62-.22-.19-.1-.36-.24-.52-.4-.15-.16-.28-.34-.37-.54-.1-.2-.16-.41-.2-.63-.04-.22-.05-.44-.05-.65v-1.44c0-.22.02-.43.05-.65.04-.22.1-.43.19-.62.09-.2.21-.38.36-.54.15-.16.32-.3.51-.4s.4-.18.62-.22c.22-.04.44-.06.65-.06s.43.02.65.06c.22.04.43.11.62.22s.36.24.51.4c.15.16.27.34.36.54.09.2.16.4.19.62.04.22.05.44.05.65v1.3h-3.44v.14c0,.16.02.32.05.49.04.16.1.31.19.44.09.13.21.23.37.31.15.07.31.11.47.11.12,0,.24-.01.35-.04.12-.02.22-.07.32-.13.1-.06.17-.15.23-.25s.09-.22.1-.34h1.33c0,.19-.04.38-.1.55-.06.18-.14.34-.25.5-.11.16-.24.29-.39.4-.15.11-.32.2-.49.28s-.36.12-.54.14-.37.04-.56.04Zm-1.08-3.79h2.11v-.14c0-.16-.02-.32-.05-.48-.03-.16-.09-.31-.19-.44-.09-.14-.21-.24-.36-.31-.15-.07-.3-.11-.46-.11s-.31.04-.46.11c-.15.07-.27.18-.36.31-.09.14-.15.28-.19.44-.03.16-.05.32-.05.48v.14Z" style="fill: #fff;"/>
      <path d="m50.18,17.72c-.19,0-.38-.03-.57-.09-.19-.06-.36-.15-.5-.28s-.27-.27-.37-.44c-.1-.17-.18-.35-.23-.53s-.09-.37-.11-.57c-.02-.2-.03-.39-.03-.58v-1.44c0-.19.01-.39.03-.58.02-.2.06-.39.11-.57.06-.18.13-.36.23-.53.1-.17.22-.32.37-.44.15-.12.32-.22.5-.28.19-.06.38-.09.57-.09.17,0,.33.02.49.07.16.04.31.12.44.22.14.1.25.22.35.35.1.14.18.28.24.44v-3.56h1.33v8.82h-1.33v-.98c-.06.16-.14.31-.24.44-.1.14-.21.25-.35.35-.14.1-.28.17-.44.22-.16.04-.32.07-.49.07Zm.55-1.15c.1,0,.21-.02.31-.05.1-.03.19-.08.27-.15s.15-.15.2-.24c.05-.09.09-.19.12-.29.03-.1.05-.2.06-.31.01-.1.02-.21.02-.31v-1.44c0-.1,0-.21-.02-.31-.01-.1-.03-.21-.06-.31-.03-.1-.07-.2-.12-.29-.05-.09-.12-.17-.2-.24s-.17-.12-.27-.15c-.1-.03-.2-.05-.31-.05-.16,0-.31.04-.46.11s-.27.18-.35.31c-.09.13-.15.28-.18.44-.03.16-.05.32-.05.48v1.44c0,.16.02.32.05.48.03.16.09.31.18.44s.21.24.35.31.3.11.46.11Z" style="fill: #fff;"/>
      <path d="m54.8,17.62v-8.82h1.34v7.67h2.99v1.15h-4.33Z" style="fill: #fff;"/>
      <path d="m62.37,17.62v-5.09h-1.44v-1.15h2.77v6.24h-1.33Zm.44-7.08c-.13,0-.26-.02-.38-.06s-.24-.1-.32-.19-.15-.2-.19-.32-.06-.26-.06-.38.02-.26.06-.38.1-.24.19-.32c.09-.09.2-.15.32-.19s.26-.06.38-.06.26.02.38.06.24.1.32.19.15.2.19.32c.04.13.06.26.06.38s-.02.26-.06.38c-.04.13-.1.24-.19.32-.09.09-.2.15-.32.19s-.26.06-.38.06Z" style="fill: #fff;"/>
      <path d="m66.21,17.62v-6.24h1.24v.53c.04-.09.09-.17.14-.25.05-.08.11-.14.19-.2.07-.06.15-.1.25-.13s.19-.04.28-.04c.12,0,.24.02.35.07.11.05.21.11.29.2.08.08.15.18.2.29.05.11.09.22.13.34.02-.11.06-.22.11-.34.05-.11.12-.21.2-.29s.18-.15.29-.2c.11-.05.23-.07.35-.07s.24.03.36.08c.12.05.22.13.31.22.08.1.15.2.2.32.05.12.09.24.11.36.03.12.05.25.06.37.01.12.02.25.02.38v4.61h-1.24v-4.61c0-.07,0-.14-.01-.21,0-.07-.02-.13-.04-.2-.02-.06-.06-.12-.11-.18-.05-.06-.11-.08-.17-.08-.07,0-.13.03-.18.08-.05.06-.08.12-.11.18-.02.06-.04.13-.05.2,0,.07-.01.14-.01.21v4.61h-1.22v-4.61c0-.07,0-.14-.01-.21s-.02-.13-.05-.2c-.02-.06-.06-.12-.11-.18-.05-.06-.11-.08-.18-.08-.06,0-.12.03-.17.08-.05.06-.09.12-.11.18-.02.06-.03.13-.04.2s-.01.14-.01.21v4.61h-1.24Z" style="fill: #fff;"/>
      <path d="m74.37,17.62v-5.09h-1.44v-1.15h2.77v6.24h-1.33Zm.44-7.08c-.13,0-.26-.02-.38-.06s-.24-.1-.32-.19-.15-.2-.19-.32-.06-.26-.06-.38.02-.26.06-.38.1-.24.19-.32c.09-.09.2-.15.32-.19s.26-.06.38-.06.26.02.38.06.24.1.32.19.15.2.19.32c.04.13.06.26.06.38s-.02.26-.06.38c-.04.13-.1.24-.19.32-.09.09-.2.15-.32.19s-.26.06-.38.06Z" style="fill: #fff;"/>
      <path d="m81.73,17.62c-.16,0-.32-.01-.49-.04-.17-.03-.33-.08-.47-.15-.15-.07-.28-.17-.4-.29-.12-.12-.22-.26-.29-.41-.07-.15-.12-.31-.15-.47-.03-.16-.04-.33-.04-.5v-3.23h-1.43v-1.15h1.43v-2.58h1.33v2.58h1.82v1.15h-1.82v3.23c0,.09,0,.17.02.25.02.08.04.16.08.23.04.07.1.13.17.17s.15.06.23.06h1.31v1.15h-1.31Z" style="fill: #fff;"/>
      <path d="m86.75,13.62c-.16,0-.32-.02-.47-.07-.15-.05-.28-.13-.4-.24-.11-.11-.19-.24-.23-.4-.04-.15-.07-.31-.07-.47,0-.15.02-.31.07-.46.04-.16.12-.29.23-.4.11-.11.24-.19.4-.23.15-.05.31-.07.47-.07s.32.02.47.07c.15.05.28.13.4.23.11.11.19.24.23.4.04.16.07.31.07.46,0,.16-.02.32-.07.47-.04.15-.12.28-.23.4-.11.11-.24.19-.4.24-.15.05-.31.07-.47.07Zm0,4.09c-.16,0-.32-.02-.47-.07-.15-.05-.28-.13-.4-.23-.11-.11-.19-.24-.23-.4-.04-.16-.07-.31-.07-.46,0-.16.02-.32.07-.47.04-.15.12-.28.23-.4s.24-.19.4-.24c.15-.05.31-.07.47-.07s.32.02.47.07c.15.05.28.13.4.24s.19.24.23.4c.04.15.07.31.07.47,0,.15-.02.31-.07.46-.04.16-.12.29-.23.4-.11.11-.24.19-.4.23-.15.05-.31.07-.47.07Z" style="fill: #fff;"/>
      <path d="m96.45,17.62h0c0-.22,0-.43.01-.64,0-.21.03-.42.05-.62s.07-.41.13-.61.13-.4.22-.59c.09-.19.19-.37.31-.55.12-.18.24-.34.38-.5.14-.16.28-.3.44-.44.16-.14.32-.27.49-.4s.33-.26.49-.4c.16-.14.3-.29.43-.46s.22-.35.28-.56.09-.41.09-.62c0-.11,0-.22-.02-.32-.01-.1-.03-.21-.07-.31-.03-.1-.07-.2-.13-.29-.05-.09-.12-.17-.2-.25-.08-.07-.17-.12-.28-.16-.1-.03-.21-.05-.31-.05-.14,0-.28.03-.42.08-.14.06-.25.14-.33.25-.08.11-.15.24-.19.38-.04.14-.06.28-.06.43h0s-1.33.01-1.33.01h0v-.02c0-.2.02-.4.07-.61.04-.2.11-.4.21-.58.1-.18.22-.34.37-.49.15-.15.31-.27.49-.36.18-.09.37-.16.58-.19.2-.04.41-.05.62-.05s.43.02.65.07c.22.04.42.12.61.23s.35.25.5.41.26.35.35.55c.09.2.15.4.18.62.03.22.05.44.05.65,0,.26-.03.52-.1.78-.07.26-.17.5-.31.73-.14.23-.3.44-.49.62s-.39.37-.59.53c-.2.17-.4.34-.59.53-.19.18-.37.38-.52.59-.16.21-.29.44-.4.68-.11.24-.18.5-.22.76h3.17v1.15h-4.58Z" style="fill: #fff;"/>
    </g>
    <g>
      <path d="m7.3,60.5l3.62-11.59h.96l-3.62,11.59h-.96Z" style="fill: #fff;"/>
      <path d="m13.36,58.78v-8.82h.94v3.67c.06-.17.15-.33.25-.48s.23-.28.38-.4.31-.19.49-.24c.18-.05.36-.07.53-.07.2,0,.4.03.59.08.19.06.36.15.51.27s.27.27.38.44c.1.17.19.35.25.54s.1.38.12.58c.02.2.03.39.03.58v3.84h-.94v-3.84c0-.14,0-.27-.02-.4-.02-.13-.04-.26-.08-.38s-.1-.24-.17-.35c-.08-.11-.17-.21-.27-.29-.1-.08-.22-.14-.35-.17s-.26-.05-.4-.05-.27.02-.4.05-.24.09-.35.17c-.1.08-.19.18-.27.29-.08.11-.13.23-.17.35s-.07.25-.08.38c-.02.13-.02.27-.02.4v3.84h-.94Z" style="fill: #fff;"/>
      <path d="m21.59,58.88c-.22,0-.43-.02-.65-.07-.22-.04-.42-.12-.6-.22s-.35-.24-.5-.4c-.15-.16-.27-.34-.35-.54-.09-.2-.15-.4-.18-.62-.03-.22-.05-.43-.05-.65v-1.44c0-.22.02-.43.05-.65.03-.22.09-.42.18-.62.09-.2.21-.38.35-.54s.31-.3.5-.4.38-.18.6-.22.43-.07.65-.07.43.02.65.07.42.12.6.22.35.24.5.4c.15.16.27.34.35.54.09.2.15.4.18.62.03.22.05.43.05.65v1.44c0,.22-.02.43-.05.65-.03.22-.09.42-.18.62-.09.2-.21.38-.35.54-.15.16-.31.3-.5.4s-.38.18-.6.22c-.22.04-.43.07-.65.07Zm0-.84c.14,0,.27-.02.41-.05.14-.03.26-.09.37-.16.11-.08.21-.17.29-.28.08-.11.15-.23.2-.36.05-.13.08-.26.1-.4.02-.14.02-.27.02-.41v-1.44c0-.14,0-.27-.02-.41-.02-.14-.05-.27-.1-.4s-.11-.25-.2-.36-.18-.21-.29-.28c-.11-.08-.24-.13-.37-.16-.14-.03-.27-.05-.41-.05s-.27.02-.41.05c-.14.03-.26.09-.37.16-.11.08-.21.17-.29.28s-.15.23-.2.36-.08.26-.1.4c-.02.14-.02.27-.02.41v1.44c0,.14,0,.27.02.41.02.14.05.27.1.4.05.13.11.25.2.36.08.11.18.21.29.28.11.08.24.13.37.16.14.03.27.05.41.05Z" style="fill: #fff;"/>
      <path d="m25.17,58.78v-6.24h.94v.5c.04-.09.09-.17.14-.25.06-.08.12-.14.2-.2.08-.06.16-.1.25-.12.09-.02.19-.04.28-.04.12,0,.24.02.35.06.11.04.21.1.29.18.08.08.15.17.21.28.06.1.1.22.13.34.03-.11.08-.22.13-.33s.12-.2.2-.28c.08-.08.18-.14.29-.18.11-.04.23-.06.35-.06s.24.02.35.07c.12.04.22.11.31.19s.16.18.21.29c.05.11.09.23.13.34.03.12.05.23.07.35.01.12.02.24.02.36v4.73h-.94v-4.73c0-.09,0-.17-.02-.26-.01-.08-.04-.17-.08-.25s-.1-.14-.17-.19c-.08-.05-.16-.07-.25-.07-.08,0-.16.02-.23.07-.08.05-.13.11-.17.19s-.07.16-.08.25c-.01.08-.02.17-.02.26v4.73h-.94v-4.73c0-.09,0-.17-.02-.26-.01-.08-.04-.17-.08-.25s-.1-.14-.17-.19c-.08-.05-.15-.07-.23-.07-.09,0-.17.02-.25.07-.08.05-.13.11-.17.19s-.07.16-.08.25c-.01.08-.02.17-.02.26v4.73h-.94Z" style="fill: #fff;"/>
      <path d="m33.61,58.88c-.22,0-.43-.02-.65-.06s-.42-.11-.61-.22-.36-.24-.5-.41c-.15-.16-.27-.34-.36-.54-.09-.2-.15-.4-.19-.62-.03-.22-.05-.43-.05-.65v-1.44c0-.22.02-.43.05-.65.03-.22.09-.42.18-.62.09-.2.21-.38.35-.54s.31-.3.5-.4.38-.18.6-.22.43-.07.65-.07.43.02.65.07.42.12.6.22.35.24.5.4c.15.16.27.34.35.54.09.2.15.4.18.62.03.22.05.43.05.65v1.14h-3.72v.3c0,.14,0,.27.02.41.02.14.05.27.1.4.05.13.12.25.2.36.08.11.18.21.3.28.12.08.24.13.38.16.14.03.27.05.41.05.15,0,.31-.02.46-.05.16-.03.3-.09.43-.17s.23-.19.32-.32c.08-.14.13-.28.14-.44h.94c0,.18-.04.36-.1.53s-.14.33-.25.48c-.11.15-.24.28-.38.38s-.31.19-.47.26-.34.11-.53.13-.36.04-.54.04Zm1.37-3.64v-.3c0-.14,0-.27-.02-.41-.02-.14-.05-.27-.1-.4s-.11-.25-.2-.36-.18-.21-.29-.28c-.11-.08-.24-.13-.37-.16-.14-.03-.27-.05-.41-.05s-.27.02-.41.05c-.14.03-.26.09-.37.16-.11.08-.21.17-.29.28s-.15.23-.2.36-.08.26-.1.4c-.02.14-.02.27-.02.41v.3h2.78Z" style="fill: #fff;"/>
      <path d="m37.3,60.5l3.62-11.59h.96l-3.62,11.59h-.96Z" style="fill: #fff;"/>
      <path d="m45.96,58.88c-.18,0-.37-.02-.55-.07-.18-.05-.34-.13-.49-.23s-.27-.24-.38-.4c-.1-.16-.19-.32-.25-.49v1.09h-.94v-8.82h.94v3.67c.06-.17.15-.33.25-.49.1-.16.23-.29.38-.4.15-.11.31-.19.49-.23.18-.05.36-.07.55-.07.2,0,.4.03.59.08.2.06.37.14.53.26.16.12.29.26.4.43s.19.35.26.53c.06.19.11.38.13.58.02.2.04.4.04.6v1.44c0,.2-.01.4-.04.6-.02.2-.07.39-.13.58-.06.19-.15.37-.26.53s-.24.31-.4.43-.34.21-.53.26c-.2.06-.39.08-.59.08Zm-.36-.84c.14,0,.27-.02.4-.05.13-.03.25-.09.37-.16.11-.08.21-.17.29-.28.08-.11.15-.23.2-.36.05-.13.08-.26.1-.4.02-.14.02-.27.02-.41v-1.44c0-.14,0-.27-.02-.41-.02-.14-.05-.27-.1-.4s-.11-.25-.2-.36-.18-.21-.29-.28c-.11-.08-.23-.13-.37-.16-.13-.03-.27-.05-.4-.05s-.27.02-.4.05c-.13.03-.25.09-.35.17s-.19.18-.27.29c-.08.12-.13.24-.17.36s-.07.25-.08.38c-.02.13-.02.27-.02.4v1.44c0,.14,0,.27.02.4s.04.26.08.38.1.24.17.36.17.21.27.29.22.14.35.17c.13.03.27.05.4.05Z" style="fill: #fff;"/>
      <path d="m51.01,58.88c-.24,0-.48-.04-.71-.11-.23-.07-.43-.2-.59-.37-.16-.18-.28-.38-.35-.61-.07-.23-.1-.46-.1-.7,0-.21.03-.41.08-.61.05-.2.14-.38.26-.54.12-.16.27-.29.45-.4s.36-.19.56-.26c.2-.06.39-.11.59-.13.2-.02.4-.04.61-.04h1.07v-.59c0-.17-.03-.34-.08-.5s-.15-.31-.28-.42c-.13-.11-.28-.19-.44-.24-.17-.05-.34-.07-.5-.07s-.32.02-.47.05c-.16.03-.3.09-.43.18-.13.09-.23.2-.3.35-.07.14-.11.29-.11.44h-.94c0-.18.03-.36.08-.54.05-.18.13-.34.23-.49.1-.15.23-.28.38-.39.15-.11.31-.2.47-.26.17-.07.34-.11.53-.14.18-.02.37-.04.55-.04s.38.01.58.04.38.08.55.16c.18.08.34.18.49.31s.27.28.37.44c.1.17.16.35.2.54s.06.38.06.58v4.26h-.94v-1.03c-.07.18-.17.34-.31.49-.13.15-.28.27-.45.37s-.35.17-.54.21-.38.06-.58.06Zm.36-.84c.19,0,.39-.03.58-.08.2-.05.37-.14.51-.28.14-.13.25-.29.32-.48s.1-.38.1-.58v-.67h-1.07c-.12,0-.24,0-.37.02s-.24.03-.36.06c-.12.03-.23.07-.34.12-.11.05-.21.12-.3.2s-.15.18-.19.29c-.04.12-.06.23-.06.35,0,.14.03.29.08.43s.14.26.25.36c.11.1.24.16.39.2.15.04.3.05.45.05Z" style="fill: #fff;"/>
      <path d="m56.08,58.78v-6.24h.94v1.3c.05-.18.12-.35.2-.52s.2-.32.32-.46c.13-.14.28-.24.46-.31.18-.07.36-.11.54-.11.15,0,.3.02.45.05.15.04.28.1.4.19.12.09.22.19.31.32s.15.26.19.4.07.28.09.43c.02.15.02.3.02.45h-.94c0-.12-.01-.24-.03-.35-.02-.12-.06-.23-.12-.33s-.14-.18-.25-.23c-.11-.05-.22-.08-.34-.08-.16,0-.31.03-.46.1s-.27.16-.37.28c-.1.12-.18.25-.24.4-.06.15-.11.3-.14.46-.04.16-.06.31-.07.47-.01.16-.02.32-.02.47v3.31h-.94Z" style="fill: #fff;"/>
      <path d="m61.3,60.5l3.62-11.59h.96l-3.62,11.59h-.96Z" style="fill: #fff;"/>
      <path d="m69.03,58.88c-.19,0-.38-.03-.57-.09-.19-.06-.36-.15-.5-.28s-.27-.27-.37-.44c-.1-.17-.18-.35-.23-.53s-.09-.37-.11-.57c-.02-.2-.03-.39-.03-.58v-1.44c0-.19.01-.39.03-.58.02-.2.06-.39.11-.57.06-.18.13-.36.23-.53.1-.17.22-.32.37-.44.15-.12.32-.22.5-.28.19-.06.38-.09.57-.09.17,0,.33.02.49.07.16.04.31.12.44.22.14.1.25.22.35.35.1.14.18.28.24.44v-3.56h1.33v8.82h-1.33v-.98c-.06.16-.14.31-.24.44-.1.14-.21.25-.35.35-.14.1-.28.17-.44.22-.16.04-.32.07-.49.07Zm.55-1.15c.1,0,.21-.02.31-.05.1-.03.19-.08.27-.15s.15-.15.2-.24c.05-.09.09-.19.12-.29.03-.1.05-.2.06-.31.01-.1.02-.21.02-.31v-1.44c0-.1,0-.21-.02-.31-.01-.1-.03-.21-.06-.31-.03-.1-.07-.2-.12-.29-.05-.09-.12-.17-.2-.24s-.17-.12-.27-.15c-.1-.03-.2-.05-.31-.05-.16,0-.31.04-.46.11s-.27.18-.35.31c-.09.13-.15.28-.18.44-.03.16-.05.32-.05.48v1.44c0,.16.02.32.05.48.03.16.09.31.18.44s.21.24.35.31.3.11.46.11Z" style="fill: #f07167;"/>
      <path d="m75.61,58.88c-.22,0-.43-.02-.65-.06-.22-.04-.43-.11-.62-.22-.19-.1-.36-.24-.52-.4-.15-.16-.28-.34-.37-.54-.1-.2-.16-.41-.2-.63-.04-.22-.05-.44-.05-.65v-1.44c0-.22.02-.43.05-.65.04-.22.1-.43.19-.62.09-.2.21-.38.36-.54.15-.16.32-.3.51-.4s.4-.18.62-.22c.22-.04.44-.06.65-.06s.43.02.65.06c.22.04.43.11.62.22s.36.24.51.4c.15.16.27.34.36.54.09.2.16.4.19.62.04.22.05.44.05.65v1.3h-3.44v.14c0,.16.02.32.05.49.04.16.1.31.19.44.09.13.21.23.37.31.15.07.31.11.47.11.12,0,.24-.01.35-.04.12-.02.22-.07.32-.13.1-.06.17-.15.23-.25s.09-.22.1-.34h1.33c0,.19-.04.38-.1.55-.06.18-.14.34-.25.5-.11.16-.24.29-.39.4-.15.11-.32.2-.49.28s-.36.12-.54.14-.37.04-.56.04Zm-1.08-3.79h2.11v-.14c0-.16-.02-.32-.05-.48-.03-.16-.09-.31-.19-.44-.09-.14-.21-.24-.36-.31-.15-.07-.3-.11-.46-.11s-.31.04-.46.11c-.15.07-.27.18-.36.31-.09.14-.15.28-.19.44-.03.16-.05.32-.05.48v.14Z" style="fill: #f07167;"/>
      <path d="m81.61,58.88c-.22,0-.43-.02-.65-.06-.22-.04-.43-.11-.62-.22-.19-.1-.36-.24-.52-.4-.15-.16-.28-.34-.37-.54-.1-.2-.16-.41-.2-.63-.04-.22-.05-.44-.05-.65v-1.44c0-.22.02-.43.05-.65.04-.22.1-.43.19-.62.09-.2.21-.38.36-.54.15-.16.32-.3.51-.4s.4-.18.62-.22c.22-.04.44-.06.65-.06s.43.02.65.06c.22.04.43.11.62.22s.36.24.51.4c.15.16.27.34.36.54.09.2.16.4.19.62.04.22.05.44.05.65v1.3h-3.44v.14c0,.16.02.32.05.49.04.16.1.31.19.44.09.13.21.23.37.31.15.07.31.11.47.11.12,0,.24-.01.35-.04.12-.02.22-.07.32-.13.1-.06.17-.15.23-.25s.09-.22.1-.34h1.33c0,.19-.04.38-.1.55-.06.18-.14.34-.25.5-.11.16-.24.29-.39.4-.15.11-.32.2-.49.28s-.36.12-.54.14-.37.04-.56.04Zm-1.08-3.79h2.11v-.14c0-.16-.02-.32-.05-.48-.03-.16-.09-.31-.19-.44-.09-.14-.21-.24-.36-.31-.15-.07-.3-.11-.46-.11s-.31.04-.46.11c-.15.07-.27.18-.36.31-.09.14-.15.28-.19.44-.03.16-.05.32-.05.48v.14Z" style="fill: #f07167;"/>
      <path d="m85.3,61.36v-8.82h1.33v.98c.06-.16.14-.31.24-.44.1-.14.21-.25.35-.35.14-.1.28-.17.44-.22.16-.04.32-.07.49-.07.19,0,.38.03.57.09s.36.15.5.28c.15.12.27.27.37.44s.18.35.23.53c.06.18.09.37.11.57.02.2.03.39.03.58v1.44c0,.19-.01.39-.03.58-.02.2-.06.39-.11.57-.06.18-.13.36-.23.53s-.22.32-.37.44c-.15.12-.32.22-.5.28s-.38.09-.57.09c-.17,0-.33-.02-.49-.07-.16-.04-.31-.12-.44-.22s-.25-.22-.35-.35c-.1-.14-.18-.28-.24-.44v3.56h-1.33Zm2.3-3.64c.16,0,.31-.04.46-.11.15-.08.27-.18.35-.31.09-.13.15-.28.18-.44.03-.16.05-.32.05-.48v-1.44c0-.16-.02-.32-.05-.48-.03-.16-.09-.31-.18-.44-.09-.13-.21-.24-.35-.31-.15-.08-.3-.11-.46-.11-.1,0-.21.02-.31.05-.1.03-.19.08-.27.15s-.15.15-.2.24c-.05.09-.09.19-.12.29-.03.1-.05.2-.06.31-.01.1-.02.21-.02.31v1.44c0,.1,0,.21.02.31.01.1.03.21.06.31.03.1.07.2.12.29.05.09.12.17.2.24s.17.12.27.15c.1.03.2.05.31.05Z" style="fill: #f07167;"/>
      <path d="m91.19,60.5l3.43-11.59h1.37l-3.43,11.59h-1.37Z" style="fill: #f07167;"/>
      <path d="m97.3,61.36v-8.82h1.33v.98c.06-.16.14-.31.24-.44.1-.14.21-.25.35-.35.14-.1.28-.17.44-.22.16-.04.32-.07.49-.07.19,0,.38.03.57.09s.36.15.5.28c.15.12.27.27.37.44s.18.35.23.53c.06.18.09.37.11.57.02.2.03.39.03.58v1.44c0,.19-.01.39-.03.58-.02.2-.06.39-.11.57-.06.18-.13.36-.23.53s-.22.32-.37.44c-.15.12-.32.22-.5.28s-.38.09-.57.09c-.17,0-.33-.02-.49-.07-.16-.04-.31-.12-.44-.22s-.25-.22-.35-.35c-.1-.14-.18-.28-.24-.44v3.56h-1.33Zm2.3-3.64c.16,0,.31-.04.46-.11.15-.08.27-.18.35-.31.09-.13.15-.28.18-.44.03-.16.05-.32.05-.48v-1.44c0-.16-.02-.32-.05-.48-.03-.16-.09-.31-.18-.44-.09-.13-.21-.24-.35-.31-.15-.08-.3-.11-.46-.11-.1,0-.21.02-.31.05-.1.03-.19.08-.27.15s-.15.15-.2.24c-.05.09-.09.19-.12.29-.03.1-.05.2-.06.31-.01.1-.02.21-.02.31v1.44c0,.1,0,.21.02.31.01.1.03.21.06.31.03.1.07.2.12.29.05.09.12.17.2.24s.17.12.27.15c.1.03.2.05.31.05Z" style="fill: #f07167;"/>
      <path d="m104.86,58.88c-.16,0-.32-.01-.47-.04-.15-.03-.3-.08-.43-.16-.14-.08-.25-.18-.35-.31-.1-.12-.18-.26-.24-.4-.06-.14-.1-.29-.13-.44-.02-.16-.04-.31-.04-.46,0-.22.03-.43.08-.64.05-.21.14-.4.26-.56s.28-.31.46-.43c.18-.12.37-.21.57-.28.2-.07.41-.12.62-.14.21-.03.42-.04.63-.04h.73v-.41c0-.14-.02-.27-.06-.39s-.11-.23-.2-.32-.2-.16-.33-.2-.26-.06-.4-.06c-.11,0-.23.01-.34.04-.12.03-.22.08-.32.15-.1.07-.17.16-.22.28-.05.11-.08.22-.08.34h-1.33c0-.18.03-.37.08-.55.05-.18.13-.36.23-.52.1-.16.23-.3.38-.42.15-.12.32-.21.49-.28.18-.07.36-.12.55-.14s.37-.04.56-.04c.2,0,.4.01.6.04.2.03.39.08.57.16s.35.19.5.32c.15.13.28.28.38.46s.17.36.21.55c.04.2.06.39.06.59v4.21h-1.33v-.94c-.04.08-.07.13-.08.15-.01.02-.03.05-.05.08-.02.04-.05.07-.08.11-.03.04-.06.07-.08.1-.03.03-.06.06-.09.1s-.06.06-.1.09c-.03.03-.07.05-.1.08s-.07.05-.11.07c-.04.02-.07.05-.11.07s-.08.04-.12.05c-.04.02-.08.03-.13.04-.04.01-.09.02-.13.04-.04.01-.08.02-.13.02-.04,0-.09,0-.13.01h-.13s-.09.02-.13.02Zm.54-1.15c.15,0,.3-.02.45-.07s.28-.12.38-.22c.11-.1.19-.23.24-.37.05-.14.08-.29.08-.44v-.49h-.73c-.1,0-.19,0-.28.01-.09,0-.18.02-.28.05-.09.02-.18.05-.27.09s-.17.09-.24.15c-.07.06-.13.14-.16.23-.04.09-.05.18-.05.28,0,.11.02.22.06.32s.1.19.19.27.18.13.29.16c.11.03.22.04.33.04Z" style="fill: #f07167;"/>
      <path d="m112.57,58.78c-.16,0-.32-.01-.49-.04-.17-.03-.33-.08-.47-.15-.15-.07-.28-.17-.4-.29-.12-.12-.22-.26-.29-.41-.07-.15-.12-.31-.15-.47-.03-.16-.04-.33-.04-.5v-3.23h-1.43v-1.15h1.43v-2.58h1.33v2.58h1.82v1.15h-1.82v3.23c0,.09,0,.17.02.25.02.08.04.16.08.23.04.07.1.13.17.17s.15.06.23.06h1.31v1.15h-1.31Z" style="fill: #f07167;"/>
      <path d="m115.3,58.78v-8.82h1.33v3.56c.06-.16.14-.31.24-.44.1-.14.21-.25.34-.35.13-.1.28-.17.44-.22.16-.04.32-.07.49-.07.19,0,.38.03.56.1.18.06.35.16.49.29.14.13.25.28.34.45s.16.35.21.53c.05.18.09.37.11.56.02.19.03.38.03.57v3.84h-1.33v-3.84c0-.1,0-.21-.02-.31-.01-.1-.03-.21-.06-.31-.03-.1-.07-.19-.12-.28-.05-.09-.12-.17-.19-.24s-.16-.12-.26-.16c-.1-.03-.2-.05-.31-.05s-.21.02-.31.05c-.1.03-.19.08-.26.16-.08.07-.14.15-.19.24-.05.09-.09.18-.12.28-.03.1-.05.2-.06.31-.01.1-.02.21-.02.31v3.84h-1.33Z" style="fill: #f07167;"/>
      <path d="m121.19,60.5l3.43-11.59h1.37l-3.43,11.59h-1.37Z" style="fill: #f07167;"/>
      <path d="m128.01,58.78v-4.6h-1.43v-1.15h1.43v-1.21c0-.17.01-.33.04-.5.03-.16.08-.32.15-.47.07-.15.17-.29.29-.41.12-.12.25-.22.4-.29.15-.07.31-.12.47-.15.17-.03.33-.04.49-.04h1.31v1.15h-1.31c-.08,0-.16.02-.23.06s-.13.1-.17.17c-.04.07-.07.15-.08.23-.02.08-.02.16-.02.25v1.21h1.82v1.15h-1.82v4.6h-1.33Z" style="fill: #f07167;"/>
      <path d="m134.87,58.88c-.22,0-.43-.02-.65-.06-.22-.04-.43-.11-.62-.22-.19-.1-.36-.24-.51-.4s-.27-.34-.36-.54c-.09-.2-.16-.4-.19-.62-.04-.22-.05-.44-.05-.65v-1.44c0-.22.02-.43.05-.65.04-.22.1-.43.19-.62.09-.2.21-.38.36-.54.15-.16.32-.3.51-.4s.4-.18.62-.22c.22-.04.44-.06.65-.06s.43.02.65.06c.22.04.43.11.62.22s.36.24.51.4c.15.16.27.34.36.54.09.2.16.4.19.62.04.22.05.44.05.65v1.44c0,.22-.02.43-.05.65-.04.22-.1.43-.19.62-.09.2-.21.38-.36.54-.15.16-.32.3-.51.4-.19.1-.4.18-.62.22-.22.04-.44.06-.65.06Zm0-1.15c.16,0,.31-.04.46-.11.15-.07.27-.18.36-.31.09-.14.15-.28.19-.44.03-.16.05-.32.05-.48v-1.44c0-.16-.02-.32-.05-.48-.03-.16-.09-.31-.19-.44-.09-.14-.21-.24-.36-.31-.15-.07-.3-.11-.46-.11s-.31.04-.46.11c-.15.07-.27.18-.36.31-.09.14-.15.28-.19.44-.03.16-.05.32-.05.48v1.44c0,.16.02.32.05.48.03.16.09.31.19.44.09.14.21.24.36.31.15.07.3.11.46.11Z" style="fill: #f07167;"/>
      <path d="m140.87,58.88c-.22,0-.43-.02-.65-.06-.22-.04-.43-.11-.62-.22-.19-.1-.36-.24-.51-.4s-.27-.34-.36-.54c-.09-.2-.16-.4-.19-.62-.04-.22-.05-.44-.05-.65v-1.44c0-.22.02-.43.05-.65.04-.22.1-.43.19-.62.09-.2.21-.38.36-.54.15-.16.32-.3.51-.4s.4-.18.62-.22c.22-.04.44-.06.65-.06s.43.02.65.06c.22.04.43.11.62.22s.36.24.51.4c.15.16.27.34.36.54.09.2.16.4.19.62.04.22.05.44.05.65v1.44c0,.22-.02.43-.05.65-.04.22-.1.43-.19.62-.09.2-.21.38-.36.54-.15.16-.32.3-.51.4-.19.1-.4.18-.62.22-.22.04-.44.06-.65.06Zm0-1.15c.16,0,.31-.04.46-.11.15-.07.27-.18.36-.31.09-.14.15-.28.19-.44.03-.16.05-.32.05-.48v-1.44c0-.16-.02-.32-.05-.48-.03-.16-.09-.31-.19-.44-.09-.14-.21-.24-.36-.31-.15-.07-.3-.11-.46-.11s-.31.04-.46.11c-.15.07-.27.18-.36.31-.09.14-.15.28-.19.44-.03.16-.05.32-.05.48v1.44c0,.16.02.32.05.48.03.16.09.31.19.44.09.14.21.24.36.31.15.07.3.11.46.11Z" style="fill: #f07167;"/>
      <path d="m146.87,58.88c-.16,0-.32-.02-.47-.07-.15-.05-.28-.13-.4-.23-.11-.11-.19-.24-.23-.4-.04-.16-.07-.31-.07-.46,0-.16.02-.32.07-.47.04-.15.12-.28.23-.4s.24-.19.4-.24c.15-.05.31-.07.47-.07s.32.02.47.07c.15.05.28.13.4.24s.19.24.23.4c.04.15.07.31.07.47,0,.15-.02.31-.07.46-.04.16-.12.29-.23.4-.11.11-.24.19-.4.23-.15.05-.31.07-.47.07Z" style="fill: #f07167;"/>
      <path d="m150.58,61.36v-8.82h1.33v.98c.06-.16.14-.31.24-.44.1-.14.21-.25.35-.35.14-.1.28-.17.44-.22.16-.04.32-.07.49-.07.19,0,.38.03.57.09s.36.15.5.28c.15.12.27.27.37.44s.18.35.23.53c.06.18.09.37.11.57.02.2.03.39.03.58v1.44c0,.19-.01.39-.03.58-.02.2-.06.39-.11.57-.06.18-.13.36-.23.53s-.22.32-.37.44c-.15.12-.32.22-.5.28s-.38.09-.57.09c-.17,0-.33-.02-.49-.07-.16-.04-.31-.12-.44-.22s-.25-.22-.35-.35c-.1-.14-.18-.28-.24-.44v3.56h-1.33Zm2.3-3.64c.16,0,.31-.04.46-.11.15-.08.27-.18.35-.31.09-.13.15-.28.18-.44.03-.16.05-.32.05-.48v-1.44c0-.16-.02-.32-.05-.48-.03-.16-.09-.31-.18-.44-.09-.13-.21-.24-.35-.31-.15-.08-.3-.11-.46-.11-.1,0-.21.02-.31.05-.1.03-.19.08-.27.15s-.15.15-.2.24c-.05.09-.09.19-.12.29-.03.1-.05.2-.06.31-.01.1-.02.21-.02.31v1.44c0,.1,0,.21.02.31.01.1.03.21.06.31.03.1.07.2.12.29.05.09.12.17.2.24s.17.12.27.15c.1.03.2.05.31.05Z" style="fill: #f07167;"/>
      <path d="m156.58,58.78v-6.24h1.33v.98c.06-.16.14-.31.24-.44.1-.14.21-.25.34-.35.13-.1.28-.17.44-.22.16-.04.32-.07.49-.07.19,0,.38.03.56.1.18.06.35.16.49.29.14.13.25.28.34.45s.16.35.21.53c.05.18.09.37.11.56.02.19.03.38.03.57v3.84h-1.33v-3.84c0-.1,0-.21-.02-.31-.01-.1-.03-.21-.06-.31-.03-.1-.07-.19-.12-.28-.05-.09-.12-.17-.19-.24s-.16-.12-.26-.16c-.1-.03-.2-.05-.31-.05s-.21.02-.31.05c-.1.03-.19.08-.26.16-.08.07-.14.15-.19.24-.05.09-.09.18-.12.28-.03.1-.05.2-.06.31-.01.1-.02.21-.02.31v3.84h-1.33Z" style="fill: #f07167;"/>
      <path d="m163.49,61.36v-1.15h1.58c.11,0,.22-.02.33-.07.11-.05.19-.12.26-.21.06-.09.11-.2.13-.31.02-.12.04-.23.04-.34v-1.48c-.06.16-.14.31-.24.44-.1.14-.21.25-.35.35-.14.1-.28.17-.44.22-.16.04-.32.07-.49.07-.19,0-.38-.03-.57-.09-.19-.06-.36-.15-.5-.28s-.27-.27-.37-.44c-.1-.17-.18-.35-.23-.53s-.09-.37-.11-.57c-.02-.2-.03-.39-.03-.58v-1.44c0-.19.01-.39.03-.58.02-.2.06-.39.11-.57.06-.18.13-.36.23-.53.1-.17.22-.32.37-.44.15-.12.32-.22.5-.28.19-.06.38-.09.57-.09.17,0,.33.02.49.07.16.04.31.12.44.22.14.1.25.22.35.35.1.14.18.28.24.44v-.98h1.33v6.73c0,.18-.02.37-.05.56-.03.19-.09.37-.17.53s-.19.32-.32.45c-.13.13-.28.24-.45.32s-.35.14-.53.17c-.19.03-.37.05-.56.05h-1.58Zm1.37-3.64c.1,0,.21-.02.31-.05.1-.03.19-.08.27-.15s.15-.15.2-.24c.05-.09.09-.19.12-.29.03-.1.05-.2.06-.31.01-.1.02-.21.02-.31v-1.44c0-.1,0-.21-.02-.31-.01-.1-.03-.21-.06-.31-.03-.1-.07-.2-.12-.29-.05-.09-.12-.17-.2-.24s-.17-.12-.27-.15c-.1-.03-.2-.05-.31-.05-.16,0-.31.04-.46.11s-.27.18-.35.31c-.09.13-.15.28-.18.44-.03.16-.05.32-.05.48v1.44c0,.16.02.32.05.48.03.16.09.31.18.44s.21.24.35.31.3.11.46.11Z" style="fill: #f07167;"/>
    </g>
    <g>
      <path d="m245.7,101.64l3.62-11.59h.96l-3.62,11.59h-.96Z" style="fill: #fff;"/>
      <path d="m251.75,99.93v-8.82h.94v3.67c.06-.17.15-.33.25-.48.1-.15.23-.28.38-.4.15-.11.31-.19.49-.24.18-.05.36-.07.53-.07.2,0,.4.03.59.08.19.06.36.15.51.27.15.12.27.27.38.44.1.17.19.35.25.54.06.19.1.38.12.58.02.2.03.39.03.58v3.84h-.94v-3.84c0-.14,0-.27-.02-.4-.02-.13-.04-.26-.08-.38s-.1-.24-.17-.35c-.08-.11-.17-.21-.27-.29-.1-.08-.22-.14-.35-.17s-.26-.05-.4-.05-.27.02-.4.05-.24.09-.35.17c-.1.08-.19.18-.27.29-.08.11-.13.23-.17.35s-.07.25-.08.38c-.02.13-.02.27-.02.4v3.84h-.94Z" style="fill: #fff;"/>
      <path d="m259.99,100.02c-.22,0-.43-.02-.65-.07-.22-.04-.42-.12-.6-.22-.18-.1-.35-.24-.5-.4-.15-.16-.27-.34-.35-.54-.09-.2-.15-.4-.18-.62s-.05-.43-.05-.65v-1.44c0-.22.02-.43.05-.65.03-.22.09-.42.18-.62.09-.2.21-.38.35-.54.15-.16.31-.3.5-.4.18-.1.38-.18.6-.22s.43-.07.65-.07.43.02.65.07.42.12.6.22c.18.1.35.24.5.4.15.16.27.34.35.54.09.2.15.4.18.62.03.22.05.43.05.65v1.44c0,.22-.02.43-.05.65-.03.22-.09.42-.18.62-.09.2-.21.38-.35.54-.15.16-.31.3-.5.4-.18.1-.38.18-.6.22-.22.04-.43.07-.65.07Zm0-.84c.14,0,.27-.02.41-.05.14-.03.26-.09.37-.16.11-.08.21-.17.29-.28.08-.11.15-.23.2-.36.05-.13.08-.26.1-.4.02-.14.02-.27.02-.41v-1.44c0-.14,0-.27-.02-.41-.02-.14-.05-.27-.1-.4s-.11-.25-.2-.36-.18-.21-.29-.28c-.11-.08-.24-.13-.37-.16-.14-.03-.27-.05-.41-.05s-.27.02-.41.05c-.14.03-.26.09-.37.16-.11.08-.21.17-.29.28s-.15.23-.2.36-.08.26-.1.4c-.02.14-.02.27-.02.41v1.44c0,.14,0,.27.02.41.02.14.05.27.1.4.05.13.11.25.2.36.08.11.18.21.29.28.11.08.24.13.37.16.14.03.27.05.41.05Z" style="fill: #fff;"/>
      <path d="m263.56,99.93v-6.24h.94v.5c.04-.09.09-.17.14-.25.06-.08.12-.14.2-.2.08-.06.16-.1.25-.12.09-.02.19-.04.28-.04.12,0,.24.02.35.06.11.04.21.1.29.18.08.08.15.17.21.28.06.1.1.22.13.34.03-.11.08-.22.13-.33.06-.11.12-.2.2-.28.08-.08.18-.14.29-.18.11-.04.23-.06.35-.06s.24.02.35.07c.12.04.22.11.31.19s.16.18.21.29c.05.11.09.23.13.34.03.12.05.23.07.35.01.12.02.24.02.36v4.73h-.94v-4.73c0-.09,0-.17-.02-.26s-.04-.17-.08-.25-.1-.14-.17-.19c-.08-.05-.16-.07-.25-.07-.08,0-.16.02-.23.07-.08.05-.13.11-.17.19s-.07.16-.08.25c-.01.08-.02.17-.02.26v4.73h-.94v-4.73c0-.09,0-.17-.02-.26s-.04-.17-.08-.25-.1-.14-.17-.19c-.08-.05-.15-.07-.23-.07-.09,0-.17.02-.25.07-.08.05-.13.11-.17.19s-.07.16-.08.25c-.01.08-.02.17-.02.26v4.73h-.94Z" style="fill: #fff;"/>
      <path d="m272.01,100.02c-.22,0-.43-.02-.65-.06s-.42-.11-.61-.22c-.19-.11-.36-.24-.5-.41-.15-.16-.27-.34-.36-.54-.09-.2-.15-.4-.19-.62s-.05-.43-.05-.65v-1.44c0-.22.02-.43.05-.65.03-.22.09-.42.18-.62.09-.2.21-.38.35-.54.15-.16.31-.3.5-.4.18-.1.38-.18.6-.22s.43-.07.65-.07.43.02.65.07.42.12.6.22c.18.1.35.24.5.4.15.16.27.34.35.54.09.2.15.4.18.62.03.22.05.43.05.65v1.14h-3.72v.3c0,.14,0,.27.02.41.02.14.05.27.1.4.05.13.12.25.2.36.08.11.18.21.3.28.12.08.24.13.38.16.14.03.27.05.41.05.15,0,.31-.02.46-.05.16-.03.3-.09.43-.17s.23-.19.32-.32c.08-.14.13-.28.14-.44h.94c0,.18-.04.36-.1.53-.06.17-.14.33-.25.48-.11.15-.24.28-.38.38-.15.11-.31.19-.47.26s-.34.11-.53.13c-.18.02-.36.04-.54.04Zm1.37-3.64v-.3c0-.14,0-.27-.02-.41-.02-.14-.05-.27-.1-.4s-.11-.25-.2-.36-.18-.21-.29-.28c-.11-.08-.24-.13-.37-.16-.14-.03-.27-.05-.41-.05s-.27.02-.41.05c-.14.03-.26.09-.37.16-.11.08-.21.17-.29.28s-.15.23-.2.36-.08.26-.1.4c-.02.14-.02.27-.02.41v.3h2.78Z" style="fill: #fff;"/>
      <path d="m275.7,101.64l3.62-11.59h.96l-3.62,11.59h-.96Z" style="fill: #fff;"/>
      <path d="m284.36,100.02c-.18,0-.37-.02-.55-.07-.18-.05-.34-.13-.49-.23-.15-.11-.27-.24-.38-.4-.1-.16-.19-.32-.25-.49v1.09h-.94v-8.82h.94v3.67c.06-.17.15-.33.25-.49.1-.16.23-.29.38-.4.15-.11.31-.19.49-.23.18-.05.36-.07.55-.07.2,0,.4.03.59.08s.37.14.53.26c.16.12.29.26.4.43.11.17.19.35.26.53.06.19.11.38.13.58.02.2.04.4.04.6v1.44c0,.2-.01.4-.04.6-.02.2-.07.39-.13.58-.06.19-.15.37-.26.53-.11.17-.24.31-.4.43s-.34.21-.53.26c-.2.06-.39.08-.59.08Zm-.36-.84c.14,0,.27-.02.4-.05.13-.03.25-.09.37-.16.11-.08.21-.17.29-.28.08-.11.15-.23.2-.36.05-.13.08-.26.1-.4.02-.14.02-.27.02-.41v-1.44c0-.14,0-.27-.02-.41-.02-.14-.05-.27-.1-.4s-.11-.25-.2-.36-.18-.21-.29-.28c-.11-.08-.23-.13-.37-.16-.13-.03-.27-.05-.4-.05s-.27.02-.4.05c-.13.03-.25.09-.35.17-.1.08-.19.18-.27.29-.08.12-.13.24-.17.36s-.07.25-.08.38c-.02.13-.02.27-.02.4v1.44c0,.14,0,.27.02.4.02.13.04.26.08.38s.1.24.17.36.17.21.27.29c.1.08.22.14.35.17.13.03.27.05.4.05Z" style="fill: #fff;"/>
      <path d="m289.41,100.02c-.24,0-.48-.04-.71-.11-.23-.07-.43-.2-.59-.37-.16-.18-.28-.38-.35-.61-.07-.23-.1-.46-.1-.7,0-.21.03-.41.08-.61.05-.2.14-.38.26-.54.12-.16.27-.29.45-.4s.36-.19.56-.26.39-.11.59-.13c.2-.02.4-.04.61-.04h1.07v-.59c0-.17-.03-.34-.08-.5-.06-.17-.15-.31-.28-.42-.13-.11-.28-.19-.44-.24-.17-.05-.34-.07-.5-.07s-.32.02-.47.05c-.16.03-.3.09-.43.18-.13.09-.23.2-.3.35-.07.14-.11.29-.11.44h-.94c0-.18.03-.36.08-.54.05-.18.13-.34.23-.49s.23-.28.38-.39.31-.2.47-.26c.17-.07.34-.11.53-.14.18-.02.37-.04.55-.04s.38.01.58.04c.19.03.38.08.55.16.18.08.34.18.49.31.15.13.27.28.37.44s.16.35.2.54.06.38.06.58v4.26h-.94v-1.03c-.07.18-.17.34-.31.49-.13.15-.28.27-.45.37s-.35.17-.54.21c-.19.04-.38.06-.58.06Zm.36-.84c.19,0,.39-.03.58-.08.2-.05.37-.14.51-.28.14-.13.25-.29.32-.48.07-.19.1-.38.1-.58v-.67h-1.07c-.12,0-.24,0-.37.02s-.24.03-.36.06c-.12.03-.23.07-.34.12-.11.05-.21.12-.3.2s-.15.18-.19.29c-.04.12-.06.23-.06.35,0,.14.03.29.08.43.06.14.14.26.25.36.11.1.24.16.39.2.15.04.3.05.45.05Z" style="fill: #fff;"/>
      <path d="m294.47,99.93v-6.24h.94v1.3c.05-.18.12-.35.2-.52s.2-.32.32-.46c.13-.14.28-.24.46-.31.18-.07.36-.11.54-.11.15,0,.3.02.45.05.15.04.28.1.4.19.12.09.22.19.31.32s.15.26.19.4.07.28.09.43c.02.15.02.3.02.45h-.94c0-.12,0-.24-.03-.35-.02-.12-.06-.23-.12-.33-.06-.1-.14-.18-.25-.23-.11-.05-.22-.08-.34-.08-.16,0-.31.03-.46.1-.15.07-.27.16-.37.28-.1.12-.18.25-.24.4-.06.15-.11.3-.14.46-.04.16-.06.31-.07.47-.01.16-.02.32-.02.47v3.31h-.94Z" style="fill: #fff;"/>
      <path d="m299.7,101.64l3.62-11.59h.96l-3.62,11.59h-.96Z" style="fill: #fff;"/>
      <path d="m306.16,96.53l-.76-.49,1.26-1.61-1.94-.56.29-.79,1.86.67-.07-2.02h.94l-.07,2.02,1.86-.67.29.79-1.94.56,1.26,1.61-.76.49-1.1-1.63-1.1,1.63Z" style="fill: #fff;"/>
    </g>
    <g>
      <path d="m7.22,100.12l3.62-11.59h.96l-3.62,11.59h-.96Z" style="fill: #fff;"/>
      <path d="m13.28,98.4v-8.82h.94v3.67c.06-.17.15-.33.25-.48s.23-.28.38-.4.31-.19.49-.24c.18-.05.36-.07.53-.07.2,0,.4.03.59.08.19.06.36.15.51.27s.27.27.38.44c.1.17.19.35.25.54s.1.38.12.58c.02.2.03.39.03.58v3.84h-.94v-3.84c0-.14,0-.27-.02-.4-.02-.13-.04-.26-.08-.38s-.1-.24-.17-.35c-.08-.11-.17-.21-.27-.29-.1-.08-.22-.14-.35-.17s-.26-.05-.4-.05-.27.02-.4.05-.24.09-.35.17c-.1.08-.19.18-.27.29-.08.11-.13.23-.17.35s-.07.25-.08.38c-.02.13-.02.27-.02.4v3.84h-.94Z" style="fill: #fff;"/>
      <path d="m21.52,98.5c-.22,0-.43-.02-.65-.07-.22-.04-.42-.12-.6-.22s-.35-.24-.5-.4c-.15-.16-.27-.34-.35-.54-.09-.2-.15-.4-.18-.62-.03-.22-.05-.43-.05-.65v-1.44c0-.22.02-.43.05-.65.03-.22.09-.42.18-.62.09-.2.21-.38.35-.54s.31-.3.5-.4.38-.18.6-.22.43-.07.65-.07.43.02.65.07.42.12.6.22.35.24.5.4c.15.16.27.34.35.54.09.2.15.4.18.62.03.22.05.43.05.65v1.44c0,.22-.02.43-.05.65-.03.22-.09.42-.18.62-.09.2-.21.38-.35.54-.15.16-.31.3-.5.4s-.38.18-.6.22c-.22.04-.43.07-.65.07Zm0-.84c.14,0,.27-.02.41-.05.14-.03.26-.09.37-.16.11-.08.21-.17.29-.28.08-.11.15-.23.2-.36.05-.13.08-.26.1-.4.02-.14.02-.27.02-.41v-1.44c0-.14,0-.27-.02-.41-.02-.14-.05-.27-.1-.4s-.11-.25-.2-.36-.18-.21-.29-.28c-.11-.08-.24-.13-.37-.16-.14-.03-.27-.05-.41-.05s-.27.02-.41.05c-.14.03-.26.09-.37.16-.11.08-.21.17-.29.28s-.15.23-.2.36-.08.26-.1.4c-.02.14-.02.27-.02.41v1.44c0,.14,0,.27.02.41.02.14.05.27.1.4.05.13.11.25.2.36.08.11.18.21.29.28.11.08.24.13.37.16.14.03.27.05.41.05Z" style="fill: #fff;"/>
      <path d="m25.09,98.4v-6.24h.94v.5c.04-.09.09-.17.14-.25.06-.08.12-.14.2-.2.08-.06.16-.1.25-.12.09-.02.19-.04.28-.04.12,0,.24.02.35.06.11.04.21.1.29.18.08.08.15.17.21.28.06.1.1.22.13.34.03-.11.08-.22.13-.33s.12-.2.2-.28c.08-.08.18-.14.29-.18.11-.04.23-.06.35-.06s.24.02.35.07c.12.04.22.11.31.19s.16.18.21.29c.05.11.09.23.13.34.03.12.05.23.07.35.01.12.02.24.02.36v4.73h-.94v-4.73c0-.09,0-.17-.02-.26-.01-.08-.04-.17-.08-.25s-.1-.14-.17-.19c-.08-.05-.16-.07-.25-.07-.08,0-.16.02-.23.07-.08.05-.13.11-.17.19s-.07.16-.08.25c-.01.08-.02.17-.02.26v4.73h-.94v-4.73c0-.09,0-.17-.02-.26-.01-.08-.04-.17-.08-.25s-.1-.14-.17-.19c-.08-.05-.15-.07-.23-.07-.09,0-.17.02-.25.07-.08.05-.13.11-.17.19s-.07.16-.08.25c-.01.08-.02.17-.02.26v4.73h-.94Z" style="fill: #fff;"/>
      <path d="m33.54,98.5c-.22,0-.43-.02-.65-.06s-.42-.11-.61-.22-.36-.24-.5-.41c-.15-.16-.27-.34-.36-.54-.09-.2-.15-.4-.19-.62-.03-.22-.05-.43-.05-.65v-1.44c0-.22.02-.43.05-.65.03-.22.09-.42.18-.62.09-.2.21-.38.35-.54s.31-.3.5-.4.38-.18.6-.22.43-.07.65-.07.43.02.65.07.42.12.6.22.35.24.5.4c.15.16.27.34.35.54.09.2.15.4.18.62.03.22.05.43.05.65v1.14h-3.72v.3c0,.14,0,.27.02.41.02.14.05.27.1.4.05.13.12.25.2.36.08.11.18.21.3.28.12.08.24.13.38.16.14.03.27.05.41.05.15,0,.31-.02.46-.05.16-.03.3-.09.43-.17s.23-.19.32-.32c.08-.14.13-.28.14-.44h.94c0,.18-.04.36-.1.53s-.14.33-.25.48c-.11.15-.24.28-.38.38s-.31.19-.47.26-.34.11-.53.13-.36.04-.54.04Zm1.37-3.64v-.3c0-.14,0-.27-.02-.41-.02-.14-.05-.27-.1-.4s-.11-.25-.2-.36-.18-.21-.29-.28c-.11-.08-.24-.13-.37-.16-.14-.03-.27-.05-.41-.05s-.27.02-.41.05c-.14.03-.26.09-.37.16-.11.08-.21.17-.29.28s-.15.23-.2.36-.08.26-.1.4c-.02.14-.02.27-.02.41v.3h2.78Z" style="fill: #fff;"/>
      <path d="m37.22,100.12l3.62-11.59h.96l-3.62,11.59h-.96Z" style="fill: #fff;"/>
      <path d="m45.89,98.5c-.18,0-.37-.02-.55-.07-.18-.05-.34-.13-.49-.23s-.27-.24-.38-.4c-.1-.16-.19-.32-.25-.49v1.09h-.94v-8.82h.94v3.67c.06-.17.15-.33.25-.49.1-.16.23-.29.38-.4.15-.11.31-.19.49-.23.18-.05.36-.07.55-.07.2,0,.4.03.59.08.2.06.37.14.53.26.16.12.29.26.4.43s.19.35.26.53c.06.19.11.38.13.58.02.2.04.4.04.6v1.44c0,.2-.01.4-.04.6-.02.2-.07.39-.13.58-.06.19-.15.37-.26.53s-.24.31-.4.43-.34.21-.53.26c-.2.06-.39.08-.59.08Zm-.36-.84c.14,0,.27-.02.4-.05.13-.03.25-.09.37-.16.11-.08.21-.17.29-.28.08-.11.15-.23.2-.36.05-.13.08-.26.1-.4.02-.14.02-.27.02-.41v-1.44c0-.14,0-.27-.02-.41-.02-.14-.05-.27-.1-.4s-.11-.25-.2-.36-.18-.21-.29-.28c-.11-.08-.23-.13-.37-.16-.13-.03-.27-.05-.4-.05s-.27.02-.4.05c-.13.03-.25.09-.35.17s-.19.18-.27.29c-.08.12-.13.24-.17.36s-.07.25-.08.38c-.02.13-.02.27-.02.4v1.44c0,.14,0,.27.02.4s.04.26.08.38.1.24.17.36.17.21.27.29.22.14.35.17c.13.03.27.05.4.05Z" style="fill: #fff;"/>
      <path d="m50.94,98.5c-.24,0-.48-.04-.71-.11-.23-.07-.43-.2-.59-.37-.16-.18-.28-.38-.35-.61-.07-.23-.1-.46-.1-.7,0-.21.03-.41.08-.61.05-.2.14-.38.26-.54.12-.16.27-.29.45-.4s.36-.19.56-.26c.2-.06.39-.11.59-.13.2-.02.4-.04.61-.04h1.07v-.59c0-.17-.03-.34-.08-.5s-.15-.31-.28-.42c-.13-.11-.28-.19-.44-.24-.17-.05-.34-.07-.5-.07s-.32.02-.47.05c-.16.03-.3.09-.43.18-.13.09-.23.2-.3.35-.07.14-.11.29-.11.44h-.94c0-.18.03-.36.08-.54.05-.18.13-.34.23-.49.1-.15.23-.28.38-.39.15-.11.31-.2.47-.26.17-.07.34-.11.53-.14.18-.02.37-.04.55-.04s.38.01.58.04.38.08.55.16c.18.08.34.18.49.31s.27.28.37.44c.1.17.16.35.2.54s.06.38.06.58v4.26h-.94v-1.03c-.07.18-.17.34-.31.49-.13.15-.28.27-.45.37s-.35.17-.54.21-.38.06-.58.06Zm.36-.84c.19,0,.39-.03.58-.08.2-.05.37-.14.51-.28.14-.13.25-.29.32-.48s.1-.38.1-.58v-.67h-1.07c-.12,0-.24,0-.37.02s-.24.03-.36.06c-.12.03-.23.07-.34.12-.11.05-.21.12-.3.2s-.15.18-.19.29c-.04.12-.06.23-.06.35,0,.14.03.29.08.43s.14.26.25.36c.11.1.24.16.39.2.15.04.3.05.45.05Z" style="fill: #fff;"/>
      <path d="m56,98.4v-6.24h.94v1.3c.05-.18.12-.35.2-.52s.2-.32.32-.46c.13-.14.28-.24.46-.31.18-.07.36-.11.54-.11.15,0,.3.02.45.05.15.04.28.1.4.19.12.09.22.19.31.32s.15.26.19.4.07.28.09.43c.02.15.02.3.02.45h-.94c0-.12-.01-.24-.03-.35-.02-.12-.06-.23-.12-.33s-.14-.18-.25-.23c-.11-.05-.22-.08-.34-.08-.16,0-.31.03-.46.1s-.27.16-.37.28c-.1.12-.18.25-.24.4-.06.15-.11.3-.14.46-.04.16-.06.31-.07.47-.01.16-.02.32-.02.47v3.31h-.94Z" style="fill: #fff;"/>
      <path d="m61.22,100.12l3.62-11.59h.96l-3.62,11.59h-.96Z" style="fill: #fff;"/>
      <path d="m68.95,98.5c-.19,0-.38-.03-.57-.09-.19-.06-.36-.15-.5-.28s-.27-.27-.37-.44c-.1-.17-.18-.35-.23-.53s-.09-.37-.11-.57c-.02-.2-.03-.39-.03-.58v-1.44c0-.19.01-.39.03-.58.02-.2.06-.39.11-.57.06-.18.13-.36.23-.53.1-.17.22-.32.37-.44.15-.12.32-.22.5-.28.19-.06.38-.09.57-.09.17,0,.33.02.49.07.16.04.31.12.44.22.14.1.25.22.35.35.1.14.18.28.24.44v-3.56h1.33v8.82h-1.33v-.98c-.06.16-.14.31-.24.44-.1.14-.21.25-.35.35-.14.1-.28.17-.44.22-.16.04-.32.07-.49.07Zm.55-1.15c.1,0,.21-.02.31-.05.1-.03.19-.08.27-.15s.15-.15.2-.24c.05-.09.09-.19.12-.29.03-.1.05-.2.06-.31.01-.1.02-.21.02-.31v-1.44c0-.1,0-.21-.02-.31-.01-.1-.03-.21-.06-.31-.03-.1-.07-.2-.12-.29-.05-.09-.12-.17-.2-.24s-.17-.12-.27-.15c-.1-.03-.2-.05-.31-.05-.16,0-.31.04-.46.11s-.27.18-.35.31c-.09.13-.15.28-.18.44-.03.16-.05.32-.05.48v1.44c0,.16.02.32.05.48.03.16.09.31.18.44s.21.24.35.31.3.11.46.11Z" style="fill: #f07167;"/>
      <path d="m75.54,98.5c-.22,0-.43-.02-.65-.06-.22-.04-.43-.11-.62-.22-.19-.1-.36-.24-.52-.4-.15-.16-.28-.34-.37-.54-.1-.2-.16-.41-.2-.63-.04-.22-.05-.44-.05-.65v-1.44c0-.22.02-.43.05-.65.04-.22.1-.43.19-.62.09-.2.21-.38.36-.54.15-.16.32-.3.51-.4s.4-.18.62-.22c.22-.04.44-.06.65-.06s.43.02.65.06c.22.04.43.11.62.22s.36.24.51.4c.15.16.27.34.36.54.09.2.16.4.19.62.04.22.05.44.05.65v1.3h-3.44v.14c0,.16.02.32.05.49.04.16.1.31.19.44.09.13.21.23.37.31.15.07.31.11.47.11.12,0,.24-.01.35-.04.12-.02.22-.07.32-.13.1-.06.17-.15.23-.25s.09-.22.1-.34h1.33c0,.19-.04.38-.1.55-.06.18-.14.34-.25.5-.11.16-.24.29-.39.4-.15.11-.32.2-.49.28s-.36.12-.54.14-.37.04-.56.04Zm-1.08-3.79h2.11v-.14c0-.16-.02-.32-.05-.48-.03-.16-.09-.31-.19-.44-.09-.14-.21-.24-.36-.31-.15-.07-.3-.11-.46-.11s-.31.04-.46.11c-.15.07-.27.18-.36.31-.09.14-.15.28-.19.44-.03.16-.05.32-.05.48v.14Z" style="fill: #f07167;"/>
      <path d="m81.54,98.5c-.22,0-.43-.02-.65-.06-.22-.04-.43-.11-.62-.22-.19-.1-.36-.24-.52-.4-.15-.16-.28-.34-.37-.54-.1-.2-.16-.41-.2-.63-.04-.22-.05-.44-.05-.65v-1.44c0-.22.02-.43.05-.65.04-.22.1-.43.19-.62.09-.2.21-.38.36-.54.15-.16.32-.3.51-.4s.4-.18.62-.22c.22-.04.44-.06.65-.06s.43.02.65.06c.22.04.43.11.62.22s.36.24.51.4c.15.16.27.34.36.54.09.2.16.4.19.62.04.22.05.44.05.65v1.3h-3.44v.14c0,.16.02.32.05.49.04.16.1.31.19.44.09.13.21.23.37.31.15.07.31.11.47.11.12,0,.24-.01.35-.04.12-.02.22-.07.32-.13.1-.06.17-.15.23-.25s.09-.22.1-.34h1.33c0,.19-.04.38-.1.55-.06.18-.14.34-.25.5-.11.16-.24.29-.39.4-.15.11-.32.2-.49.28s-.36.12-.54.14-.37.04-.56.04Zm-1.08-3.79h2.11v-.14c0-.16-.02-.32-.05-.48-.03-.16-.09-.31-.19-.44-.09-.14-.21-.24-.36-.31-.15-.07-.3-.11-.46-.11s-.31.04-.46.11c-.15.07-.27.18-.36.31-.09.14-.15.28-.19.44-.03.16-.05.32-.05.48v.14Z" style="fill: #f07167;"/>
      <path d="m85.22,100.98v-8.82h1.33v.98c.06-.16.14-.31.24-.44.1-.14.21-.25.35-.35.14-.1.28-.17.44-.22.16-.04.32-.07.49-.07.19,0,.38.03.57.09s.36.15.5.28c.15.12.27.27.37.44s.18.35.23.53c.06.18.09.37.11.57.02.2.03.39.03.58v1.44c0,.19-.01.39-.03.58-.02.2-.06.39-.11.57-.06.18-.13.36-.23.53s-.22.32-.37.44c-.15.12-.32.22-.5.28s-.38.09-.57.09c-.17,0-.33-.02-.49-.07-.16-.04-.31-.12-.44-.22s-.25-.22-.35-.35c-.1-.14-.18-.28-.24-.44v3.56h-1.33Zm2.3-3.64c.16,0,.31-.04.46-.11.15-.08.27-.18.35-.31.09-.13.15-.28.18-.44.03-.16.05-.32.05-.48v-1.44c0-.16-.02-.32-.05-.48-.03-.16-.09-.31-.18-.44-.09-.13-.21-.24-.35-.31-.15-.08-.3-.11-.46-.11-.1,0-.21.02-.31.05-.1.03-.19.08-.27.15s-.15.15-.2.24c-.05.09-.09.19-.12.29-.03.1-.05.2-.06.31-.01.1-.02.21-.02.31v1.44c0,.1,0,.21.02.31.01.1.03.21.06.31.03.1.07.2.12.29.05.09.12.17.2.24s.17.12.27.15c.1.03.2.05.31.05Z" style="fill: #f07167;"/>
      <path d="m91.12,100.12l3.43-11.59h1.37l-3.43,11.59h-1.37Z" style="fill: #f07167;"/>
      <path d="m100.08,98.5c-.17,0-.33-.02-.49-.07-.16-.04-.31-.12-.44-.22s-.25-.22-.35-.35c-.1-.14-.18-.28-.24-.44v.98h-1.33v-8.82h1.33v3.56c.06-.16.14-.31.24-.44.1-.14.21-.25.35-.35.14-.1.28-.17.44-.22.16-.04.32-.07.49-.07.19,0,.38.03.57.09s.36.15.5.28c.15.12.27.27.37.44s.18.35.23.53c.06.18.09.37.11.57.02.2.03.39.03.58v1.44c0,.19-.01.39-.03.58-.02.2-.06.39-.11.57-.06.18-.13.36-.23.53s-.22.32-.37.44c-.15.12-.32.22-.5.28s-.38.09-.57.09Zm-.55-1.15c.16,0,.31-.04.46-.11.15-.08.27-.18.35-.31.09-.13.15-.28.18-.44.03-.16.05-.32.05-.48v-1.44c0-.16-.02-.32-.05-.48-.03-.16-.09-.31-.18-.44-.09-.13-.21-.24-.35-.31-.15-.08-.3-.11-.46-.11-.1,0-.21.02-.31.05-.1.03-.19.08-.27.15s-.15.15-.2.24c-.05.09-.09.19-.12.29-.03.1-.05.2-.06.31-.01.1-.02.21-.02.31v1.44c0,.1,0,.21.02.31.01.1.03.21.06.31.03.1.07.2.12.29.05.09.12.17.2.24s.17.12.27.15c.1.03.2.05.31.05Z" style="fill: #f07167;"/>
      <path d="m104.78,98.5c-.16,0-.32-.01-.47-.04-.15-.03-.3-.08-.43-.16-.14-.08-.25-.18-.35-.31-.1-.12-.18-.26-.24-.4-.06-.14-.1-.29-.13-.44-.02-.16-.04-.31-.04-.46,0-.22.03-.43.08-.64.05-.21.14-.4.26-.56s.28-.31.46-.43c.18-.12.37-.21.57-.28.2-.07.41-.12.62-.14.21-.03.42-.04.63-.04h.73v-.41c0-.14-.02-.27-.06-.39s-.11-.23-.2-.32-.2-.16-.33-.2-.26-.06-.4-.06c-.11,0-.23.01-.34.04-.12.03-.22.08-.32.15-.1.07-.17.16-.22.28-.05.11-.08.22-.08.34h-1.33c0-.18.03-.37.08-.55.05-.18.13-.36.23-.52.1-.16.23-.3.38-.42.15-.12.32-.21.49-.28.18-.07.36-.12.55-.14s.37-.04.56-.04c.2,0,.4.01.6.04.2.03.39.08.57.16s.35.19.5.32c.15.13.28.28.38.46s.17.36.21.55c.04.2.06.39.06.59v4.21h-1.33v-.94c-.04.08-.07.13-.08.15-.01.02-.03.05-.05.08-.02.04-.05.07-.08.11-.03.04-.06.07-.08.1-.03.03-.06.06-.09.1s-.06.06-.1.09c-.03.03-.07.05-.1.08s-.07.05-.11.07c-.04.02-.07.05-.11.07s-.08.04-.12.05c-.04.02-.08.03-.13.04-.04.01-.09.02-.13.04-.04.01-.08.02-.13.02-.04,0-.09,0-.13.01h-.13s-.09.02-.13.02Zm.54-1.15c.15,0,.3-.02.45-.07s.28-.12.38-.22c.11-.1.19-.23.24-.37.05-.14.08-.29.08-.44v-.49h-.73c-.1,0-.19,0-.28.01-.09,0-.18.02-.28.05-.09.02-.18.05-.27.09s-.17.09-.24.15c-.07.06-.13.14-.16.23-.04.09-.05.18-.05.28,0,.11.02.22.06.32s.1.19.19.27.18.13.29.16c.11.03.22.04.33.04Z" style="fill: #f07167;"/>
      <path d="m109.9,98.4v-6.24h1.34v1.18c.05-.17.11-.33.2-.48s.18-.29.3-.41c.12-.12.26-.22.42-.28.16-.06.33-.1.5-.1.15,0,.3.02.45.07.15.05.28.12.39.23.11.1.2.22.28.36.07.14.13.28.17.43s.07.3.08.45c.01.15.02.3.02.46h-1.34c0-.1,0-.19-.02-.29-.01-.1-.04-.19-.08-.27s-.1-.15-.19-.2c-.08-.05-.17-.08-.27-.08-.13,0-.25.04-.35.11s-.19.17-.26.28c-.06.11-.11.22-.15.35-.04.12-.06.25-.08.38s-.03.25-.04.38-.01.25-.01.38v3.31h-1.34Z" style="fill: #f07167;"/>
      <path d="m117.52,98.5c-.16,0-.32-.02-.47-.07-.15-.05-.28-.13-.4-.23-.11-.11-.19-.24-.23-.4-.04-.16-.07-.31-.07-.46,0-.16.02-.32.07-.47.04-.15.12-.28.23-.4s.24-.19.4-.24c.15-.05.31-.07.47-.07s.32.02.47.07c.15.05.28.13.4.24s.19.24.23.4c.04.15.07.31.07.47,0,.15-.02.31-.07.46-.04.16-.12.29-.23.4-.11.11-.24.19-.4.23-.15.05-.31.07-.47.07Z" style="fill: #f07167;"/>
      <path d="m121.22,100.98v-8.82h1.33v.98c.06-.16.14-.31.24-.44.1-.14.21-.25.35-.35.14-.1.28-.17.44-.22.16-.04.32-.07.49-.07.19,0,.38.03.57.09s.36.15.5.28c.15.12.27.27.37.44s.18.35.23.53c.06.18.09.37.11.57.02.2.03.39.03.58v1.44c0,.19-.01.39-.03.58-.02.2-.06.39-.11.57-.06.18-.13.36-.23.53s-.22.32-.37.44c-.15.12-.32.22-.5.28s-.38.09-.57.09c-.17,0-.33-.02-.49-.07-.16-.04-.31-.12-.44-.22s-.25-.22-.35-.35c-.1-.14-.18-.28-.24-.44v3.56h-1.33Zm2.3-3.64c.16,0,.31-.04.46-.11.15-.08.27-.18.35-.31.09-.13.15-.28.18-.44.03-.16.05-.32.05-.48v-1.44c0-.16-.02-.32-.05-.48-.03-.16-.09-.31-.18-.44-.09-.13-.21-.24-.35-.31-.15-.08-.3-.11-.46-.11-.1,0-.21.02-.31.05-.1.03-.19.08-.27.15s-.15.15-.2.24c-.05.09-.09.19-.12.29-.03.1-.05.2-.06.31-.01.1-.02.21-.02.31v1.44c0,.1,0,.21.02.31.01.1.03.21.06.31.03.1.07.2.12.29.05.09.12.17.2.24s.17.12.27.15c.1.03.2.05.31.05Z" style="fill: #f07167;"/>
      <path d="m127.22,98.4v-6.24h1.33v.98c.06-.16.14-.31.24-.44.1-.14.21-.25.34-.35.13-.1.28-.17.44-.22.16-.04.32-.07.49-.07.19,0,.38.03.56.1.18.06.35.16.49.29.14.13.25.28.34.45s.16.35.21.53c.05.18.09.37.11.56.02.19.03.38.03.57v3.84h-1.33v-3.84c0-.1,0-.21-.02-.31-.01-.1-.03-.21-.06-.31-.03-.1-.07-.19-.12-.28-.05-.09-.12-.17-.19-.24s-.16-.12-.26-.16c-.1-.03-.2-.05-.31-.05s-.21.02-.31.05c-.1.03-.19.08-.26.16-.08.07-.14.15-.19.24-.05.09-.09.18-.12.28-.03.1-.05.2-.06.31-.01.1-.02.21-.02.31v3.84h-1.33Z" style="fill: #f07167;"/>
      <path d="m134.14,100.98v-1.15h1.58c.11,0,.22-.02.33-.07.11-.05.19-.12.26-.21.06-.09.11-.2.13-.31.02-.12.04-.23.04-.34v-1.48c-.06.16-.14.31-.24.44-.1.14-.21.25-.35.35-.14.1-.28.17-.44.22-.16.04-.32.07-.49.07-.19,0-.38-.03-.57-.09-.19-.06-.36-.15-.5-.28s-.27-.27-.37-.44c-.1-.17-.18-.35-.23-.53s-.09-.37-.11-.57c-.02-.2-.03-.39-.03-.58v-1.44c0-.19.01-.39.03-.58.02-.2.06-.39.11-.57.06-.18.13-.36.23-.53.1-.17.22-.32.37-.44.15-.12.32-.22.5-.28.19-.06.38-.09.57-.09.17,0,.33.02.49.07.16.04.31.12.44.22.14.1.25.22.35.35.1.14.18.28.24.44v-.98h1.33v6.73c0,.18-.02.37-.05.56-.03.19-.09.37-.17.53s-.19.32-.32.45c-.13.13-.28.24-.45.32s-.35.14-.53.17c-.19.03-.37.05-.56.05h-1.58Zm1.37-3.64c.1,0,.21-.02.31-.05.1-.03.19-.08.27-.15s.15-.15.2-.24c.05-.09.09-.19.12-.29.03-.1.05-.2.06-.31.01-.1.02-.21.02-.31v-1.44c0-.1,0-.21-.02-.31-.01-.1-.03-.21-.06-.31-.03-.1-.07-.2-.12-.29-.05-.09-.12-.17-.2-.24s-.17-.12-.27-.15c-.1-.03-.2-.05-.31-.05-.16,0-.31.04-.46.11s-.27.18-.35.31c-.09.13-.15.28-.18.44-.03.16-.05.32-.05.48v1.44c0,.16.02.32.05.48.03.16.09.31.18.44s.21.24.35.31.3.11.46.11Z" style="fill: #f07167;"/>
    </g>
    <g>
      <path d="m7.7,141.01l3.62-11.59h.96l-3.62,11.59h-.96Z" style="fill: #fff;"/>
      <path d="m13.76,139.29v-8.82h.94v3.67c.06-.17.15-.33.25-.48s.23-.28.38-.4c.15-.11.31-.19.49-.24.18-.05.36-.07.53-.07.2,0,.4.03.59.08.19.06.36.15.51.27.15.12.27.27.38.44s.19.35.25.54.1.38.12.58c.02.2.03.39.03.58v3.84h-.94v-3.84c0-.14,0-.27-.02-.4s-.04-.26-.08-.38-.1-.24-.17-.35c-.08-.11-.17-.21-.27-.29-.1-.08-.22-.14-.35-.17-.13-.04-.26-.05-.4-.05s-.27.02-.4.05c-.13.04-.24.09-.35.17-.1.08-.19.18-.27.29-.08.11-.13.23-.17.35s-.07.25-.08.38-.02.27-.02.4v3.84h-.94Z" style="fill: #fff;"/>
      <path d="m22,139.39c-.22,0-.43-.02-.65-.07-.22-.04-.42-.12-.6-.22-.18-.1-.35-.24-.5-.4-.15-.16-.27-.34-.35-.54-.09-.2-.15-.4-.18-.62-.03-.22-.05-.43-.05-.65v-1.44c0-.22.02-.43.05-.65.03-.22.09-.42.18-.62.09-.2.21-.38.35-.54s.31-.3.5-.4.38-.18.6-.22c.22-.04.43-.07.65-.07s.43.02.65.07c.22.04.42.12.6.22s.35.24.5.4c.15.16.27.34.35.54.09.2.15.4.18.62.03.21.05.43.05.65v1.44c0,.21-.02.43-.05.65-.03.22-.09.42-.18.62-.09.2-.21.38-.35.54-.15.16-.31.3-.5.4-.18.1-.38.18-.6.22-.22.04-.43.07-.65.07Zm0-.84c.14,0,.27-.02.41-.05.14-.03.26-.09.37-.16.11-.08.21-.17.29-.28.08-.11.15-.23.2-.36.05-.13.08-.26.1-.4.02-.14.02-.27.02-.41v-1.44c0-.14,0-.27-.02-.41-.02-.14-.05-.27-.1-.4-.05-.13-.11-.25-.2-.36s-.18-.21-.29-.28c-.11-.08-.24-.13-.37-.16-.14-.03-.27-.05-.41-.05s-.27.02-.41.05c-.14.03-.26.09-.37.16-.11.08-.21.17-.29.28s-.15.23-.2.36c-.05.13-.08.26-.1.4s-.02.27-.02.41v1.44c0,.14,0,.27.02.41s.05.27.1.4c.05.13.11.25.2.36.08.11.18.21.29.28.11.08.24.13.37.16.14.03.27.05.41.05Z" style="fill: #fff;"/>
      <path d="m25.57,139.29v-6.24h.94v.5c.04-.09.09-.17.14-.25.06-.08.12-.14.2-.2.08-.05.16-.1.25-.12.09-.02.19-.04.28-.04.12,0,.24.02.35.06.11.04.21.1.29.18.08.08.15.17.21.28.06.1.1.21.13.34.03-.11.08-.22.13-.33.06-.11.12-.2.2-.28.08-.08.18-.14.29-.18.11-.04.23-.06.35-.06s.24.02.35.07c.12.04.22.11.31.19s.16.18.21.29c.05.11.09.23.13.34.03.12.05.23.07.35.01.12.02.24.02.36v4.73h-.94v-4.73c0-.09,0-.17-.02-.26-.01-.08-.04-.17-.08-.25s-.1-.14-.17-.19c-.08-.05-.16-.07-.25-.07-.08,0-.16.02-.23.07-.08.05-.13.11-.17.19s-.07.16-.08.25c-.01.08-.02.17-.02.26v4.73h-.94v-4.73c0-.09,0-.17-.02-.26-.01-.08-.04-.17-.08-.25s-.1-.14-.17-.19c-.08-.05-.15-.07-.23-.07-.09,0-.17.02-.25.07-.08.05-.13.11-.17.19s-.07.16-.08.25c-.01.08-.02.17-.02.26v4.73h-.94Z" style="fill: #fff;"/>
      <path d="m34.02,139.39c-.22,0-.43-.02-.65-.06s-.42-.11-.61-.22c-.19-.11-.36-.24-.5-.41-.15-.16-.27-.34-.36-.54-.09-.2-.15-.4-.19-.62-.03-.22-.05-.43-.05-.65v-1.44c0-.22.02-.43.05-.65.03-.22.09-.42.18-.62.09-.2.21-.38.35-.54s.31-.3.5-.4.38-.18.6-.22c.22-.04.43-.07.65-.07s.43.02.65.07c.22.04.42.12.6.22s.35.24.5.4c.15.16.27.34.35.54.09.2.15.4.18.62.03.21.05.43.05.65v1.14h-3.72v.3c0,.14,0,.27.02.41s.05.27.1.4c.05.13.12.25.2.36.08.11.18.21.3.28.12.08.24.13.38.16.14.03.27.05.41.05.15,0,.31-.02.46-.05.16-.03.3-.09.43-.17s.23-.19.32-.32c.08-.14.13-.28.14-.44h.94c0,.18-.04.36-.1.53s-.14.33-.25.48c-.11.15-.24.28-.38.38s-.31.19-.47.26c-.17.06-.34.11-.53.13-.18.02-.36.04-.54.04Zm1.37-3.64v-.3c0-.14,0-.27-.02-.41-.02-.14-.05-.27-.1-.4-.05-.13-.11-.25-.2-.36s-.18-.21-.29-.28c-.11-.08-.24-.13-.37-.16-.14-.03-.27-.05-.41-.05s-.27.02-.41.05c-.14.03-.26.09-.37.16-.11.08-.21.17-.29.28s-.15.23-.2.36c-.05.13-.08.26-.1.4s-.02.27-.02.41v.3h2.78Z" style="fill: #fff;"/>
      <path d="m37.7,141.01l3.62-11.59h.96l-3.62,11.59h-.96Z" style="fill: #fff;"/>
      <path d="m46.37,139.39c-.18,0-.37-.03-.55-.07-.18-.05-.34-.13-.49-.23s-.27-.24-.38-.4-.19-.32-.25-.49v1.09h-.94v-8.82h.94v3.67c.06-.17.15-.33.25-.49s.23-.29.38-.4c.15-.11.31-.19.49-.23.18-.05.36-.07.55-.07.2,0,.4.03.59.08.2.06.37.14.53.26.16.12.29.26.4.43s.19.35.26.53c.06.19.11.38.13.58.02.2.04.4.04.6v1.44c0,.2-.01.4-.04.6-.02.2-.07.39-.13.58-.06.19-.15.37-.26.53s-.24.31-.4.43-.34.21-.53.26c-.2.05-.39.08-.59.08Zm-.36-.84c.14,0,.27-.02.4-.05.13-.03.25-.09.37-.16.11-.08.21-.17.29-.28.08-.11.15-.23.2-.36.05-.13.08-.26.1-.4.02-.14.02-.27.02-.41v-1.44c0-.14,0-.27-.02-.41-.02-.14-.05-.27-.1-.4-.05-.13-.11-.25-.2-.36s-.18-.21-.29-.28c-.11-.08-.23-.13-.37-.16-.13-.03-.27-.05-.4-.05s-.27.02-.4.05c-.13.03-.25.09-.35.17s-.19.18-.27.29c-.08.12-.13.24-.17.36s-.07.25-.08.38-.02.27-.02.4v1.44c0,.14,0,.27.02.4s.04.26.08.38c.04.12.1.24.17.36s.17.21.27.29.22.14.35.17c.13.03.27.05.4.05Z" style="fill: #fff;"/>
      <path d="m51.42,139.39c-.24,0-.48-.04-.71-.11-.23-.07-.43-.2-.59-.37-.16-.18-.28-.38-.35-.61-.07-.23-.1-.46-.1-.7,0-.21.03-.41.08-.61.05-.2.14-.38.26-.54.12-.16.27-.29.45-.4s.36-.19.56-.26c.2-.06.39-.11.59-.13.2-.02.4-.04.61-.04h1.07v-.59c0-.17-.03-.34-.08-.5s-.15-.31-.28-.42c-.13-.11-.28-.19-.44-.24s-.34-.07-.5-.07-.32.02-.47.05c-.16.03-.3.09-.43.18-.13.09-.23.21-.3.35-.07.14-.11.29-.11.44h-.94c0-.18.03-.36.08-.54.05-.18.13-.34.23-.49.1-.15.23-.28.38-.39.15-.11.31-.2.47-.26.17-.07.34-.11.53-.14.18-.02.37-.04.55-.04s.38.01.58.04.38.08.55.16c.18.08.34.18.49.31.15.13.27.28.37.44.1.17.16.35.2.54s.06.38.06.58v4.26h-.94v-1.03c-.07.18-.17.34-.31.49-.13.15-.28.27-.45.37s-.35.17-.54.21-.38.06-.58.06Zm.36-.84c.19,0,.39-.03.58-.08.2-.05.37-.14.51-.28.14-.13.25-.29.32-.48s.1-.38.1-.58v-.67h-1.07c-.12,0-.24,0-.37.02-.12.01-.24.03-.36.06-.12.03-.23.07-.34.12-.11.05-.21.12-.3.2s-.15.18-.19.29c-.04.12-.06.23-.06.35,0,.14.03.29.08.43.06.14.14.26.25.36.11.1.24.16.39.2.15.04.3.05.45.05Z" style="fill: #fff;"/>
      <path d="m56.48,139.29v-6.24h.94v1.3c.05-.18.12-.35.2-.52s.2-.32.32-.46c.13-.14.28-.24.46-.31.18-.07.36-.11.54-.11.15,0,.3.02.45.05.15.04.28.1.4.19.12.09.22.2.31.32.08.12.15.26.19.4s.07.28.09.43c.02.15.02.3.02.45h-.94c0-.12-.01-.24-.03-.35-.02-.12-.06-.23-.12-.33-.06-.1-.14-.18-.25-.23-.11-.05-.22-.08-.34-.08-.16,0-.31.03-.46.1-.15.07-.27.16-.37.28-.1.12-.18.25-.24.4-.06.15-.11.3-.14.46-.04.16-.06.31-.07.47-.01.16-.02.32-.02.47v3.31h-.94Z" style="fill: #fff;"/>
      <path d="m61.7,141.01l3.62-11.59h.96l-3.62,11.59h-.96Z" style="fill: #fff;"/>
      <path d="m69.13,139.29v-4.6h-1.43v-1.15h1.43v-1.21c0-.17.01-.33.04-.5.03-.16.08-.32.15-.47.07-.15.17-.29.29-.41.12-.12.25-.22.4-.29s.31-.12.47-.15c.17-.03.33-.04.49-.04h1.31v1.15h-1.31c-.08,0-.16.02-.23.06-.08.04-.13.1-.17.17-.04.07-.07.15-.08.23-.02.08-.02.16-.02.25v1.21h1.82v1.15h-1.82v4.6h-1.33Z" style="fill: #f07167;"/>
      <path d="m75.62,139.29v-5.09h-1.43v-1.15h2.76v6.24h-1.33Zm.67-7.08c-.13,0-.26-.02-.38-.06-.13-.04-.24-.1-.32-.19-.09-.09-.15-.2-.19-.32-.04-.13-.06-.26-.06-.38s.02-.26.06-.38.1-.24.19-.32c.09-.09.2-.15.32-.19.13-.04.26-.06.38-.06s.26.02.38.06c.13.04.24.1.32.19.09.09.15.2.19.32.04.13.06.26.06.38s-.02.26-.06.38c-.04.13-.1.24-.19.32-.09.09-.2.15-.32.19-.13.04-.26.06-.38.06Z" style="fill: #f07167;"/>
      <path d="m81.23,139.29l-.6-2.08-1.19-4.16h1.39l1.07,4.16c.02.06.03.13.05.19.02.06.03.13.05.19.02-.06.03-.13.05-.19s.03-.13.05-.19l1.07-4.16h1.39l-1.79,6.24h-1.54Z" style="fill: #f07167;"/>
      <path d="m88.02,139.39c-.22,0-.43-.02-.65-.06-.22-.04-.43-.11-.62-.22-.19-.1-.36-.24-.52-.4-.15-.16-.28-.34-.37-.54-.1-.2-.16-.41-.2-.63s-.05-.44-.05-.65v-1.44c0-.22.02-.43.05-.65s.1-.43.19-.62c.09-.2.21-.38.36-.54.15-.16.32-.3.51-.4.19-.1.4-.18.62-.22.22-.04.44-.06.65-.06s.43.02.65.06c.22.04.43.11.62.22.19.1.36.24.51.4.15.16.27.34.36.54.09.2.16.4.19.62s.05.44.05.65v1.3h-3.44v.14c0,.16.02.32.05.49.04.16.1.31.19.44.09.13.21.23.37.31.15.07.31.11.47.11.12,0,.24-.01.35-.04.12-.02.22-.07.32-.13.1-.06.17-.15.23-.25.06-.1.09-.22.1-.34h1.33c0,.19-.04.38-.1.55-.06.18-.14.34-.25.5-.11.16-.24.29-.39.4-.15.11-.32.21-.49.28s-.36.12-.54.14c-.18.02-.37.04-.56.04Zm-1.08-3.79h2.11v-.14c0-.16-.02-.32-.05-.48-.03-.16-.09-.31-.19-.45-.09-.13-.21-.24-.36-.31-.15-.07-.3-.11-.46-.11s-.31.04-.46.11c-.15.07-.27.18-.36.31-.09.14-.15.29-.19.45-.03.16-.05.32-.05.48v.14Z" style="fill: #f07167;"/>
      <path d="m94,139.39c-.16,0-.32-.03-.47-.07-.15-.05-.28-.13-.4-.23-.11-.11-.19-.24-.23-.4s-.07-.31-.07-.46c0-.16.02-.32.07-.47s.12-.28.23-.4c.11-.11.24-.19.4-.24.15-.05.31-.07.47-.07s.32.02.47.07c.15.05.28.13.4.24.11.11.19.24.23.4.04.15.07.31.07.47,0,.15-.02.3-.07.46-.04.16-.12.29-.23.4-.11.11-.24.19-.4.23-.15.05-.31.07-.47.07Z" style="fill: #f07167;"/>
      <path d="m97.7,141.87v-8.82h1.33v.98c.06-.16.14-.31.24-.44.1-.14.21-.25.35-.35s.28-.17.44-.22c.16-.04.32-.07.49-.07.19,0,.38.03.57.09s.36.15.5.28c.15.12.27.27.37.44s.18.35.23.53c.06.18.09.37.11.57s.03.39.03.58v1.44c0,.19-.01.38-.03.58-.02.2-.06.38-.11.57-.06.18-.13.36-.23.53s-.22.32-.37.44c-.15.12-.32.22-.5.28s-.38.09-.57.09c-.17,0-.33-.02-.49-.07-.16-.04-.31-.12-.44-.22-.14-.1-.25-.22-.35-.35-.1-.14-.18-.28-.24-.44v3.56h-1.33Zm2.3-3.64c.16,0,.31-.04.46-.11.15-.08.27-.18.35-.31.09-.13.15-.28.18-.44.03-.16.05-.32.05-.48v-1.44c0-.16-.02-.32-.05-.48-.03-.16-.09-.31-.18-.44-.09-.13-.21-.24-.35-.31-.15-.08-.3-.12-.46-.12-.1,0-.21.02-.31.05-.1.03-.19.08-.27.15-.08.07-.15.15-.2.24-.05.09-.09.19-.12.29-.03.1-.05.2-.06.31-.01.1-.02.21-.02.31v1.44c0,.1,0,.21.02.31.01.1.03.21.06.31.03.1.07.2.12.29.05.09.12.17.2.24s.17.12.27.15c.1.03.2.05.31.05Z" style="fill: #f07167;"/>
      <path d="m103.7,139.29v-6.24h1.33v.98c.06-.16.14-.31.24-.44.1-.14.21-.25.34-.35s.28-.17.44-.22c.16-.04.32-.07.49-.07.19,0,.38.03.56.1.18.06.35.16.49.29.14.13.25.28.34.45s.16.35.21.53c.05.18.09.37.11.56.02.19.03.38.03.57v3.84h-1.33v-3.84c0-.1,0-.21-.02-.31-.01-.1-.03-.21-.06-.31-.03-.1-.07-.19-.12-.28-.05-.09-.12-.17-.19-.24-.08-.07-.16-.12-.26-.16-.1-.03-.2-.05-.31-.05s-.21.02-.31.05c-.1.03-.19.08-.26.16-.08.07-.14.15-.19.24-.05.09-.09.18-.12.28-.03.1-.05.2-.06.31-.01.1-.02.21-.02.31v3.84h-1.33Z" style="fill: #f07167;"/>
      <path d="m110.62,141.87v-1.15h1.58c.11,0,.22-.03.33-.07.11-.05.19-.12.26-.21s.11-.2.13-.31c.02-.12.04-.23.04-.34v-1.48c-.06.16-.14.31-.24.44-.1.14-.21.25-.35.35-.14.1-.28.17-.44.22-.16.04-.32.07-.49.07-.19,0-.38-.03-.57-.09-.19-.06-.36-.15-.5-.28-.15-.12-.27-.27-.37-.44-.1-.17-.18-.35-.23-.53s-.09-.37-.11-.57c-.02-.2-.03-.39-.03-.58v-1.44c0-.19.01-.39.03-.58s.06-.39.11-.57c.06-.18.13-.36.23-.53.1-.17.22-.32.37-.44s.32-.22.5-.28c.19-.06.38-.09.57-.09.17,0,.33.02.49.07.16.04.31.12.44.22.14.1.25.22.35.35.1.14.18.28.24.44v-.98h1.33v6.73c0,.18-.02.37-.05.56-.03.19-.09.37-.17.53s-.19.32-.32.45c-.13.13-.28.24-.45.32s-.35.14-.53.17c-.19.03-.37.05-.56.05h-1.58Zm1.37-3.64c.1,0,.21-.02.31-.05.1-.03.19-.08.27-.15s.15-.15.2-.24c.05-.09.09-.19.12-.29.03-.1.05-.2.06-.31.01-.1.02-.21.02-.31v-1.44c0-.1,0-.21-.02-.31-.01-.1-.03-.21-.06-.31-.03-.1-.07-.2-.12-.29-.05-.09-.12-.17-.2-.24-.08-.07-.17-.12-.27-.15-.1-.03-.2-.05-.31-.05-.16,0-.31.04-.46.12s-.27.18-.35.31-.15.28-.18.44c-.03.16-.05.32-.05.48v1.44c0,.16.02.32.05.48.03.16.09.31.18.44.09.13.21.24.35.31s.3.11.46.11Z" style="fill: #f07167;"/>
    </g>
    <g>
      <path d="m7.7,182.12l3.62-11.59h.96l-3.62,11.59h-.96Z" style="fill: #fff;"/>
      <path d="m15.29,180.4v-4.84h-1.52v-.84h1.52v-1.28c0-.17.01-.33.04-.5.03-.16.08-.32.16-.47.08-.15.17-.29.29-.41.12-.12.25-.22.4-.29.15-.07.31-.12.47-.15.16-.03.33-.04.5-.04h1.08v.84h-1.08c-.14,0-.27.02-.39.07-.12.04-.23.12-.31.22-.08.1-.14.21-.17.34-.03.13-.05.26-.05.4v1.28h2v.84h-2v4.84h-.94Z" style="fill: #fff;"/>
      <path d="m21.83,180.4v-5.4h-1.63v-.84h2.56v6.24h-.92Zm.47-7.3c-.1,0-.2-.01-.3-.04-.1-.03-.18-.08-.25-.15-.07-.07-.12-.16-.15-.25-.03-.1-.04-.2-.04-.3s.01-.2.04-.3c.03-.1.08-.18.15-.25.07-.07.16-.12.25-.16.1-.03.2-.05.3-.05s.2.02.3.05c.1.03.18.08.25.16.07.07.12.16.16.25.03.1.05.2.05.3s-.02.2-.05.3c-.03.1-.08.18-.16.25-.07.07-.16.12-.25.15-.1.03-.2.04-.3.04Z" style="fill: #fff;"/>
      <path d="m27.46,180.4l-1.93-6.24h.98l1.2,4.16c.05.17.1.34.14.5.05.17.1.34.14.52.05-.18.1-.35.14-.52.05-.17.1-.34.14-.5l1.2-4.16h.98l-1.93,6.24h-1.08Z" style="fill: #fff;"/>
      <path d="m34.02,180.5c-.22,0-.43-.02-.65-.06s-.42-.11-.61-.22c-.19-.11-.36-.24-.5-.41-.15-.16-.27-.34-.36-.54-.09-.2-.15-.4-.19-.62-.03-.22-.05-.43-.05-.65v-1.44c0-.22.02-.43.05-.65.03-.22.09-.42.18-.62s.21-.38.35-.54.31-.3.5-.4c.18-.1.38-.18.6-.22s.43-.07.65-.07.43.02.65.07.42.12.6.22c.18.1.35.24.5.4.15.16.27.34.35.54.09.2.15.4.18.62.03.22.05.43.05.65v1.14h-3.72v.3c0,.14,0,.27.02.41.02.14.05.27.1.4s.12.25.2.36c.08.11.18.21.3.28.12.08.24.13.38.16.14.03.27.05.41.05.15,0,.31-.02.46-.05.16-.03.3-.09.43-.17s.23-.19.32-.32c.08-.14.13-.28.14-.44h.94c0,.18-.04.36-.1.53s-.14.33-.25.48c-.11.15-.24.28-.38.38-.15.11-.31.19-.47.26-.17.06-.34.11-.53.13-.18.02-.36.04-.54.04Zm1.37-3.64v-.3c0-.14,0-.27-.02-.41-.02-.14-.05-.27-.1-.4s-.11-.25-.2-.36c-.08-.11-.18-.21-.29-.28-.11-.08-.24-.13-.37-.16-.14-.03-.27-.05-.41-.05s-.27.02-.41.05c-.14.03-.26.09-.37.16-.11.08-.21.17-.29.28-.08.11-.15.23-.2.36s-.08.26-.1.4c-.02.14-.02.27-.02.41v.3h2.78Z" style="fill: #fff;"/>
      <path d="m40,180.5c-.13,0-.25-.02-.37-.05s-.23-.1-.32-.19c-.09-.09-.16-.2-.19-.32-.04-.12-.05-.24-.05-.37s.02-.25.05-.37c.04-.12.1-.23.19-.32.09-.09.2-.16.32-.19s.24-.05.37-.05.25.02.37.05.23.1.32.19c.09.09.16.2.19.32.04.12.05.24.05.37s-.02.25-.05.37c-.04.12-.1.23-.19.32s-.2.16-.32.19-.24.05-.37.05Z" style="fill: #fff;"/>
      <path d="m43.76,182.98v-8.82h.94v1.09c.06-.17.15-.33.25-.49s.23-.29.38-.4c.15-.11.31-.19.49-.23.18-.05.36-.07.55-.07.2,0,.4.03.59.08.2.06.37.14.53.26.16.12.29.26.4.43s.19.35.26.53c.06.19.11.38.13.58s.04.4.04.6v1.44c0,.2-.01.4-.04.6s-.07.39-.13.58c-.06.19-.15.37-.26.53s-.24.31-.4.43-.34.21-.53.26c-.2.06-.39.08-.59.08-.18,0-.37-.02-.55-.07-.18-.05-.34-.13-.49-.23-.15-.11-.27-.24-.38-.4-.1-.16-.19-.32-.25-.49v3.67h-.94Zm2.24-3.32c.14,0,.27-.02.4-.05.13-.03.25-.09.37-.16.11-.08.21-.17.29-.28.08-.11.15-.23.2-.36s.08-.26.1-.4c.02-.14.02-.27.02-.41v-1.44c0-.14,0-.27-.02-.41-.02-.14-.05-.27-.1-.4s-.11-.25-.2-.36c-.08-.11-.18-.21-.29-.28-.11-.08-.23-.13-.37-.16-.13-.03-.27-.05-.4-.05s-.27.02-.4.05c-.13.03-.25.09-.35.17s-.19.18-.27.29c-.08.12-.13.24-.17.36s-.07.25-.08.38c-.02.13-.02.27-.02.4v1.44c0,.14,0,.27.02.4s.04.26.08.38.1.24.17.36.17.21.27.29.22.14.35.17c.13.03.27.05.4.05Z" style="fill: #fff;"/>
      <path d="m49.76,180.4v-6.24h.94v1.09c.06-.17.15-.33.25-.48.1-.15.23-.28.38-.4.15-.11.31-.19.49-.24.18-.05.36-.07.53-.07.2,0,.4.03.59.08.19.06.36.15.51.27s.27.27.38.44c.1.17.19.35.25.54.06.19.1.38.12.58.02.2.03.39.03.58v3.84h-.94v-3.84c0-.14,0-.27-.02-.4-.02-.13-.04-.26-.08-.38s-.1-.24-.17-.35c-.08-.11-.17-.21-.27-.29-.1-.08-.22-.14-.35-.17s-.26-.05-.4-.05-.27.02-.4.05-.24.09-.35.17-.19.18-.27.29-.13.23-.17.35-.07.25-.08.38c-.02.13-.02.27-.02.4v3.84h-.94Z" style="fill: #fff;"/>
      <path d="m56.65,182.98v-.84h1.49c.16,0,.32-.03.47-.08.16-.05.29-.14.4-.26.11-.12.18-.27.22-.43.04-.16.06-.32.06-.48v-1.58c-.06.17-.15.33-.25.49-.1.16-.23.29-.38.4-.15.11-.31.19-.49.23-.18.05-.36.07-.55.07-.2,0-.4-.03-.59-.08-.2-.06-.37-.14-.53-.26s-.29-.26-.4-.43-.19-.35-.26-.53c-.06-.19-.11-.38-.13-.58s-.04-.4-.04-.6v-1.44c0-.2.01-.4.04-.6s.07-.39.13-.58c.06-.19.15-.37.26-.53s.24-.31.4-.43c.16-.12.34-.21.53-.26.2-.06.39-.08.59-.08.18,0,.37.02.55.07.18.05.34.13.49.23.15.11.27.24.38.4s.19.32.25.49v-1.09h.94v6.73c0,.18-.02.37-.05.56-.03.19-.09.37-.17.53-.08.17-.19.32-.32.45s-.28.24-.45.32-.35.14-.53.17c-.19.03-.37.05-.56.05h-1.49Zm1.33-3.32c.14,0,.27-.02.4-.05.13-.03.25-.09.35-.17.1-.08.19-.18.27-.29.08-.12.13-.24.17-.36s.07-.25.08-.38.02-.27.02-.4v-1.44c0-.14,0-.27-.02-.4-.02-.13-.04-.26-.08-.38s-.1-.24-.17-.36c-.08-.12-.17-.21-.27-.29-.1-.08-.22-.14-.35-.17-.13-.03-.27-.05-.4-.05s-.27.02-.4.05c-.13.03-.25.09-.37.16-.11.08-.21.17-.29.28-.08.11-.15.23-.2.36s-.08.26-.1.4c-.02.14-.02.27-.02.41v1.44c0,.14,0,.27.02.41.02.14.05.27.1.4s.11.25.2.36c.08.11.18.21.29.28.11.08.23.13.37.16.13.03.27.05.4.05Z" style="fill: #fff;"/>
    </g>
    <g>
      <path d="m245.37,184.35l3.62-11.59h.96l-3.62,11.59h-.96Z" style="fill: #fff;"/>
      <path d="m252.95,182.63v-4.84h-1.52v-.84h1.52v-1.28c0-.17.01-.33.04-.5.03-.16.08-.32.16-.47s.17-.29.29-.41c.12-.12.25-.22.4-.29.15-.07.31-.12.47-.15s.33-.04.5-.04h1.08v.84h-1.08c-.14,0-.27.02-.39.07-.12.04-.23.12-.31.22-.08.1-.14.21-.17.34-.03.13-.05.26-.05.4v1.28h2v.84h-2v4.84h-.94Z" style="fill: #fff;"/>
      <path d="m259.49,182.63v-5.4h-1.63v-.84h2.56v6.24h-.92Zm.47-7.3c-.1,0-.2-.01-.3-.04-.1-.03-.18-.08-.25-.15-.07-.07-.12-.16-.15-.25-.03-.1-.04-.2-.04-.3s.01-.2.04-.3c.03-.1.08-.18.15-.25.07-.07.16-.12.25-.16s.2-.05.3-.05.2.02.3.05c.1.03.18.08.25.16.07.07.12.16.16.25.03.1.05.2.05.3s-.02.2-.05.3c-.03.1-.08.18-.16.25-.07.07-.16.12-.25.15-.1.03-.2.04-.3.04Z" style="fill: #fff;"/>
      <path d="m265.12,182.63l-1.93-6.24h.98l1.2,4.16c.05.17.1.34.14.5s.1.34.14.52c.05-.18.1-.35.14-.52s.1-.34.14-.5l1.2-4.16h.98l-1.93,6.24h-1.08Z" style="fill: #fff;"/>
      <path d="m271.68,182.73c-.22,0-.43-.02-.65-.06s-.42-.11-.61-.22c-.19-.11-.36-.24-.5-.41-.15-.16-.27-.34-.36-.54-.09-.2-.15-.4-.19-.62-.03-.22-.05-.43-.05-.65v-1.44c0-.22.02-.43.05-.65.03-.22.09-.42.18-.62.09-.2.21-.38.35-.54s.31-.3.5-.4c.18-.1.38-.18.6-.22s.43-.07.65-.07.43.02.65.07.42.12.6.22c.18.1.35.24.5.4.15.16.27.34.35.54.09.2.15.4.18.62.03.22.05.43.05.65v1.14h-3.72v.3c0,.14,0,.27.02.41s.05.27.1.4c.05.13.12.25.2.36s.18.21.3.28c.12.08.24.13.38.16.14.03.27.05.41.05.15,0,.31-.02.46-.05.16-.03.3-.09.43-.17s.23-.19.32-.32.13-.28.14-.44h.94c0,.18-.04.36-.1.53s-.14.33-.25.48c-.11.15-.24.28-.38.38-.15.11-.31.19-.47.26-.17.06-.34.11-.53.13-.18.02-.36.04-.54.04Zm1.37-3.64v-.3c0-.14,0-.27-.02-.41-.02-.14-.05-.27-.1-.4s-.11-.25-.2-.36c-.08-.11-.18-.21-.29-.28-.11-.08-.24-.13-.37-.16-.14-.03-.27-.05-.41-.05s-.27.02-.41.05c-.14.03-.26.09-.37.16-.11.08-.21.17-.29.28-.08.11-.15.23-.2.36s-.08.26-.1.4-.02.27-.02.41v.3h2.78Z" style="fill: #fff;"/>
      <path d="m277.66,182.73c-.13,0-.25-.02-.37-.05s-.23-.1-.32-.19c-.09-.09-.16-.2-.19-.32-.04-.12-.05-.24-.05-.37s.02-.25.05-.37c.04-.12.1-.23.19-.32.09-.09.2-.16.32-.19.12-.04.24-.05.37-.05s.25.02.37.05c.12.04.23.1.32.19s.16.2.19.32c.04.12.05.24.05.37s-.02.25-.05.37c-.04.12-.1.23-.19.32s-.2.16-.32.19-.24.05-.37.05Z" style="fill: #fff;"/>
      <path d="m281.43,185.21v-8.82h.94v1.09c.06-.17.15-.33.25-.49.1-.16.23-.29.38-.4s.31-.19.49-.23c.18-.05.36-.07.55-.07.2,0,.4.03.59.08.2.06.37.14.53.26s.29.26.4.43.19.35.26.53c.06.19.11.38.13.58.02.2.04.4.04.6v1.44c0,.2-.01.4-.04.6-.02.2-.07.39-.13.58-.06.19-.15.37-.26.53s-.24.31-.4.43-.34.21-.53.26c-.2.06-.39.08-.59.08-.18,0-.37-.02-.55-.07-.18-.05-.34-.13-.49-.23-.15-.11-.27-.24-.38-.4s-.19-.32-.25-.49v3.67h-.94Zm2.24-3.32c.14,0,.27-.02.4-.05s.25-.09.37-.16c.11-.08.21-.17.29-.28s.15-.23.2-.36c.05-.13.08-.26.1-.4.02-.14.02-.27.02-.41v-1.44c0-.14,0-.27-.02-.41-.02-.14-.05-.27-.1-.4s-.11-.25-.2-.36c-.08-.11-.18-.21-.29-.28-.11-.08-.23-.13-.37-.16s-.27-.05-.4-.05-.27.02-.4.05c-.13.03-.25.09-.35.17s-.19.18-.27.29-.13.24-.17.36-.07.25-.08.38-.02.27-.02.4v1.44c0,.14,0,.27.02.4s.04.26.08.38.1.24.17.36.17.21.27.29.22.14.35.17c.13.03.27.05.4.05Z" style="fill: #fff;"/>
      <path d="m287.43,182.63v-6.24h.94v1.09c.06-.17.15-.33.25-.48.1-.15.23-.28.38-.4.15-.11.31-.19.49-.24.18-.05.36-.07.53-.07.2,0,.4.03.59.08.19.06.36.15.51.27s.27.27.38.44.19.35.25.54c.06.19.1.38.12.58.02.2.03.39.03.58v3.84h-.94v-3.84c0-.14,0-.27-.02-.4s-.04-.26-.08-.38-.1-.24-.17-.35c-.08-.11-.17-.21-.27-.29-.1-.08-.22-.14-.35-.17s-.26-.05-.4-.05-.27.02-.4.05-.24.09-.35.17c-.1.08-.19.18-.27.29-.08.11-.13.23-.17.35s-.07.25-.08.38-.02.27-.02.4v3.84h-.94Z" style="fill: #fff;"/>
      <path d="m294.31,185.21v-.84h1.49c.16,0,.32-.03.47-.08.16-.05.29-.14.4-.26.11-.12.18-.27.22-.43s.06-.32.06-.48v-1.58c-.06.17-.15.33-.25.49s-.23.29-.38.4c-.15.11-.31.19-.49.23-.18.05-.36.07-.55.07-.2,0-.4-.03-.59-.08-.2-.06-.37-.14-.53-.26s-.29-.26-.4-.43-.19-.35-.26-.53c-.06-.19-.11-.38-.13-.58-.02-.2-.04-.4-.04-.6v-1.44c0-.2.01-.4.04-.6.02-.2.07-.39.13-.58.06-.19.15-.37.26-.53s.24-.31.4-.43.34-.21.53-.26c.2-.06.39-.08.59-.08.18,0,.37.02.55.07.18.05.34.13.49.23s.27.24.38.4c.1.16.19.32.25.49v-1.09h.94v6.73c0,.18-.02.37-.05.56-.03.19-.09.37-.17.53-.08.17-.19.32-.32.45-.13.13-.28.24-.45.32s-.35.14-.53.17c-.19.03-.37.05-.56.05h-1.49Zm1.33-3.32c.14,0,.27-.02.4-.05.13-.03.25-.09.35-.17.1-.08.19-.18.27-.29.08-.12.13-.24.17-.36s.07-.25.08-.38.02-.27.02-.4v-1.44c0-.14,0-.27-.02-.4s-.04-.26-.08-.38-.1-.24-.17-.36c-.08-.12-.17-.21-.27-.29-.1-.08-.22-.14-.35-.17-.13-.03-.27-.05-.4-.05s-.27.02-.4.05-.25.09-.37.16c-.11.08-.21.17-.29.28-.08.11-.15.23-.2.36s-.08.26-.1.4-.02.27-.02.41v1.44c0,.14,0,.27.02.41s.05.27.1.4c.05.13.11.25.2.36s.18.21.29.28c.11.08.23.13.37.16s.27.05.4.05Z" style="fill: #fff;"/>
    </g>
    <polyline points="9.38 64.58 9.38 66.49 62 66.49 62 64.58" style="fill: none; stroke: #8ac926; stroke-miterlimit: 10; stroke-width: .5px;"/>
    <path d="m207.54,187.49l-2.31-2.07,6.39-6.63h-22.69v-4.26h22.69l-6.39-6.63,2.31-2.07,10.83,10.83-10.83,10.83Z" style="fill: #1982c4;"/>
    <polyline points="9.31 101.43 9.31 103.35 61.92 103.35 61.92 101.43" style="fill: none; stroke: #8ac926; stroke-miterlimit: 10; stroke-width: .5px;"/>
    <polyline points="9.14 142.71 9.14 144.63 61.76 144.63 61.76 142.71" style="fill: none; stroke: #8ac926; stroke-miterlimit: 10; stroke-width: .5px;"/>
    <path d="m218.48,96.78c-6.39,0-7.29,3.87-7.29,6.66,0,2.43.36,4.86.72,7.29s.72,4.95.72,7.38c0,9.09-5.67,12.33-13.05,12.33h-1.89v-4.95h1.53c5.04-.09,7.2-2.79,7.2-7.83,0-2.16-.36-4.23-.63-6.48-.36-2.16-.72-4.41-.72-6.84,0-5.76,2.52-8.82,6.48-9.81v-.18c-3.96-1.08-6.48-3.96-6.48-9.72,0-2.43.36-4.59.72-6.84.27-2.16.63-4.32.63-6.39,0-4.86-1.89-7.65-7.11-7.74h-1.62v-4.95h1.8c7.65,0,13.14,3.51,13.14,11.79,0,2.52-.36,4.95-.72,7.47s-.72,5.04-.72,7.56c0,3.15.9,6.66,7.29,6.66v4.59Z" style="fill: #1982c4;"/>
  </g>
</svg>