<?xml version="1.0" encoding="UTF-8"?>
<svg id="Layer_2" data-name="Layer 2" xmlns="http://www.w3.org/2000/svg" width="429" height="189.45" viewBox="0 0 429 189.45">
  <g id="Layer_4" data-name="Layer 4">
    <rect x="253" y="105.06" width="176" height="28" style="fill: #299d8f;"/>
    <rect x="1" y="40.06" width="176" height="28" style="fill: #31343e;"/>
    <rect x="1" y="120.06" width="176" height="28" style="fill: #31343e;"/>
    <rect x="1" y="161.06" width="176" height="28" style="fill: #31343e;"/>
    <rect y="79.06" width="176" height="28" style="fill: #31343e;"/>
    <rect x="3" y=".06" width="106" height="24" style="fill: #6a4c93;"/>
  </g>
  <g id="Layer_2-2" data-name="Layer 2">
    <g>
      <path d="m9.04,17.3c-.17,0-.33-.02-.49-.07-.16-.04-.31-.12-.44-.22-.14-.1-.25-.22-.35-.35-.1-.14-.18-.28-.24-.44v.98h-1.33v-8.82h1.33v3.56c.06-.16.14-.31.24-.44.1-.14.21-.25.35-.35s.28-.17.44-.22c.16-.04.32-.07.49-.07.19,0,.38.03.57.09.19.06.36.15.5.28.15.12.27.27.37.44s.18.35.23.53c.06.18.09.37.11.57s.03.39.03.58v1.44c0,.19-.01.39-.03.58-.02.2-.06.39-.11.57-.06.18-.13.36-.23.53s-.22.32-.37.44c-.15.12-.32.22-.5.28-.19.06-.38.09-.57.09Zm-.55-1.15c.16,0,.31-.04.46-.11.15-.08.27-.18.35-.31.09-.13.15-.28.18-.44.03-.16.05-.32.05-.48v-1.44c0-.16-.02-.32-.05-.48-.03-.16-.09-.31-.18-.44-.09-.13-.21-.24-.35-.31-.15-.08-.3-.11-.46-.11-.1,0-.21.02-.31.05s-.19.08-.27.15c-.08.07-.15.15-.2.24-.05.09-.09.19-.12.29-.03.1-.05.2-.06.31-.01.1-.02.21-.02.31v1.44c0,.1,0,.21.02.31.01.1.03.21.06.31.03.1.07.2.12.29.05.09.12.17.2.24.08.07.17.12.27.15s.2.05.31.05Z" style="fill: #fff;"/>
      <path d="m13.75,17.3c-.16,0-.32-.01-.47-.04-.15-.03-.3-.08-.43-.16-.14-.08-.25-.18-.35-.31-.1-.12-.18-.26-.24-.4s-.1-.29-.13-.44-.04-.31-.04-.46c0-.22.03-.43.08-.64.05-.21.14-.4.26-.56s.28-.31.46-.43c.18-.12.37-.21.57-.28.2-.07.41-.12.62-.14.21-.03.42-.04.63-.04h.73v-.41c0-.14-.02-.27-.06-.39s-.11-.23-.2-.32c-.09-.09-.2-.16-.33-.2s-.26-.06-.4-.06c-.11,0-.23.01-.34.04-.12.03-.22.08-.32.15-.1.07-.17.16-.22.28-.05.11-.08.22-.08.34h-1.33c0-.18.03-.37.08-.55.05-.18.13-.36.23-.52.1-.16.23-.3.38-.42.15-.12.32-.21.49-.28.18-.07.36-.12.55-.14.19-.03.37-.04.56-.04.2,0,.4.01.6.04.2.03.39.08.57.16s.35.19.5.32c.15.13.28.28.38.46s.17.36.21.55.06.39.06.59v4.21h-1.33v-.94c-.04.08-.07.13-.08.15-.01.02-.03.05-.05.08-.02.04-.05.07-.08.11-.03.04-.06.07-.08.1-.03.03-.06.06-.09.1-.03.03-.06.06-.1.09-.03.03-.07.05-.1.08-.04.02-.07.05-.11.07-.04.02-.07.05-.11.07-.04.02-.08.04-.12.05-.04.02-.08.03-.13.04-.04.01-.09.02-.13.04-.04.01-.08.02-.13.02-.04,0-.09,0-.13.01h-.13s-.09.02-.13.02Zm.54-1.15c.15,0,.3-.02.45-.07s.28-.12.38-.22c.11-.1.19-.23.24-.37.05-.14.08-.29.08-.44v-.49h-.73c-.1,0-.19,0-.28.01-.09,0-.18.02-.28.05s-.18.05-.27.09-.17.09-.24.15c-.07.06-.13.14-.16.23-.04.09-.05.18-.05.28,0,.11.02.22.06.32.04.1.1.19.19.27s.18.13.29.16.22.04.33.04Z" style="fill: #fff;"/>
      <path d="m20.11,17.2v-7.67h-1.44v-1.15h2.77v8.82h-1.33Z" style="fill: #fff;"/>
      <path d="m25.75,17.3c-.16,0-.32-.01-.47-.04-.15-.03-.3-.08-.43-.16-.14-.08-.25-.18-.35-.31-.1-.12-.18-.26-.24-.4s-.1-.29-.13-.44-.04-.31-.04-.46c0-.22.03-.43.08-.64.05-.21.14-.4.26-.56s.28-.31.46-.43c.18-.12.37-.21.57-.28.2-.07.41-.12.62-.14.21-.03.42-.04.63-.04h.73v-.41c0-.14-.02-.27-.06-.39s-.11-.23-.2-.32c-.09-.09-.2-.16-.33-.2s-.26-.06-.4-.06c-.11,0-.23.01-.34.04-.12.03-.22.08-.32.15-.1.07-.17.16-.22.28-.05.11-.08.22-.08.34h-1.33c0-.18.03-.37.08-.55.05-.18.13-.36.23-.52.1-.16.23-.3.38-.42.15-.12.32-.21.49-.28.18-.07.36-.12.55-.14.19-.03.37-.04.56-.04.2,0,.4.01.6.04.2.03.39.08.57.16s.35.19.5.32c.15.13.28.28.38.46s.17.36.21.55.06.39.06.59v4.21h-1.33v-.94c-.04.08-.07.13-.08.15-.01.02-.03.05-.05.08-.02.04-.05.07-.08.11-.03.04-.06.07-.08.1-.03.03-.06.06-.09.1-.03.03-.06.06-.1.09-.03.03-.07.05-.1.08-.04.02-.07.05-.11.07-.04.02-.07.05-.11.07-.04.02-.08.04-.12.05-.04.02-.08.03-.13.04-.04.01-.09.02-.13.04-.04.01-.08.02-.13.02-.04,0-.09,0-.13.01h-.13s-.09.02-.13.02Zm.54-1.15c.15,0,.3-.02.45-.07s.28-.12.38-.22c.11-.1.19-.23.24-.37.05-.14.08-.29.08-.44v-.49h-.73c-.1,0-.19,0-.28.01-.09,0-.18.02-.28.05s-.18.05-.27.09-.17.09-.24.15c-.07.06-.13.14-.16.23-.04.09-.05.18-.05.28,0,.11.02.22.06.32.04.1.1.19.19.27s.18.13.29.16.22.04.33.04Z" style="fill: #fff;"/>
      <path d="m30.19,17.2v-6.24h1.33v.98c.06-.16.14-.31.24-.44.1-.14.21-.25.34-.35s.28-.17.44-.22c.16-.04.32-.07.49-.07.19,0,.38.03.56.1.18.06.35.16.49.29.14.13.25.28.34.45s.16.35.21.53c.05.18.09.37.11.56.02.19.03.38.03.57v3.84h-1.33v-3.84c0-.1,0-.21-.02-.31-.01-.1-.03-.21-.06-.31-.03-.1-.07-.19-.12-.28-.05-.09-.12-.17-.19-.24-.08-.07-.16-.12-.26-.16-.1-.03-.2-.05-.31-.05s-.21.02-.31.05-.19.08-.26.16c-.08.07-.14.15-.19.24-.05.09-.09.18-.12.28-.03.1-.05.2-.06.31-.01.1-.02.21-.02.31v3.84h-1.33Z" style="fill: #fff;"/>
      <path d="m38.44,17.3c-.22,0-.43-.02-.65-.06-.22-.04-.42-.11-.61-.22-.19-.11-.36-.24-.5-.41s-.27-.34-.36-.54c-.09-.2-.15-.4-.19-.62-.03-.22-.05-.43-.05-.65v-1.44c0-.22.02-.43.05-.65.03-.22.09-.42.19-.62.09-.2.21-.38.36-.54s.32-.3.5-.41.39-.18.61-.22c.22-.04.43-.06.65-.06s.41.02.62.05c.2.04.4.1.58.19s.35.2.5.35c.15.14.27.31.37.49.1.18.17.37.22.58.05.2.07.41.07.61v.02h-1.33c0-.16-.02-.3-.07-.43-.04-.14-.11-.26-.2-.37-.09-.11-.2-.19-.34-.25-.14-.05-.28-.08-.42-.08-.16,0-.31.04-.46.11s-.26.18-.34.31-.14.28-.17.44c-.03.16-.05.32-.05.48v1.44c0,.16.02.32.05.48.03.16.09.31.17.44s.2.24.34.31.3.11.46.11c.14,0,.28-.03.42-.08.14-.05.25-.13.34-.25.09-.11.15-.24.2-.37.04-.14.07-.28.07-.42h0s1.33-.01,1.33-.01v.02c0,.2-.02.4-.07.61-.05.2-.12.4-.22.58-.1.18-.22.34-.37.49-.15.14-.31.26-.5.35s-.38.15-.58.19-.41.05-.62.05Z" style="fill: #fff;"/>
      <path d="m44.5,17.3c-.22,0-.43-.02-.65-.06-.22-.04-.43-.11-.62-.22s-.36-.24-.52-.4c-.15-.16-.28-.34-.37-.54-.1-.2-.16-.41-.2-.63-.04-.22-.05-.44-.05-.65v-1.44c0-.22.02-.43.05-.65.04-.22.1-.43.19-.62.09-.2.21-.38.36-.54.15-.16.32-.3.51-.4.19-.1.4-.18.62-.22.22-.04.44-.06.65-.06s.43.02.65.06c.22.04.43.11.62.22.19.1.36.24.51.4.15.16.27.34.36.54.09.2.16.4.19.62.04.22.05.44.05.65v1.3h-3.44v.14c0,.16.02.32.05.49.04.16.1.31.19.44s.21.23.37.31c.15.07.31.11.47.11.12,0,.24-.01.35-.04.12-.02.22-.07.32-.13.1-.06.17-.15.23-.25.06-.1.09-.22.1-.34h1.33c0,.19-.04.38-.1.55-.06.18-.14.34-.25.5-.11.16-.24.29-.39.4-.15.11-.32.2-.49.28-.18.07-.36.12-.54.14-.18.02-.37.04-.56.04Zm-1.08-3.79h2.11v-.14c0-.16-.02-.32-.05-.48-.03-.16-.09-.31-.19-.44-.09-.14-.21-.24-.36-.31-.15-.07-.3-.11-.46-.11s-.31.04-.46.11c-.15.07-.27.18-.36.31-.09.14-.15.28-.19.44-.03.16-.05.32-.05.48v.14Z" style="fill: #fff;"/>
      <path d="m49.92,17.3c-.19,0-.38-.03-.57-.09-.19-.06-.36-.15-.5-.28s-.27-.27-.37-.44c-.1-.17-.18-.35-.23-.53-.06-.18-.09-.37-.11-.57-.02-.2-.03-.39-.03-.58v-1.44c0-.19.01-.39.03-.58s.06-.39.11-.57c.06-.18.13-.36.23-.53.1-.17.22-.32.37-.44s.32-.22.5-.28c.19-.06.38-.09.57-.09.17,0,.33.02.49.07.16.04.31.12.44.22.14.1.25.22.35.35.1.14.18.28.24.44v-3.56h1.33v8.82h-1.33v-.98c-.06.16-.14.31-.24.44-.1.14-.21.25-.35.35-.14.1-.28.17-.44.22-.16.04-.32.07-.49.07Zm.55-1.15c.1,0,.21-.02.31-.05s.19-.08.27-.15c.08-.07.15-.15.2-.24.05-.09.09-.19.12-.29.03-.1.05-.2.06-.31.01-.1.02-.21.02-.31v-1.44c0-.1,0-.21-.02-.31-.01-.1-.03-.21-.06-.31-.03-.1-.07-.2-.12-.29-.05-.09-.12-.17-.2-.24-.08-.07-.17-.12-.27-.15s-.2-.05-.31-.05c-.16,0-.31.04-.46.11s-.27.18-.35.31-.15.28-.18.44c-.03.16-.05.32-.05.48v1.44c0,.16.02.32.05.48.03.16.09.31.18.44s.21.24.35.31.3.11.46.11Z" style="fill: #fff;"/>
      <path d="m54.54,17.2v-8.82h1.34v7.67h2.99v1.15h-4.33Z" style="fill: #fff;"/>
      <path d="m62.11,17.2v-5.09h-1.44v-1.15h2.77v6.24h-1.33Zm.44-7.08c-.13,0-.26-.02-.38-.06s-.24-.1-.32-.19c-.09-.09-.15-.2-.19-.32s-.06-.26-.06-.38.02-.26.06-.38.1-.24.19-.32c.09-.09.2-.15.32-.19s.26-.06.38-.06.26.02.38.06.24.1.32.19c.09.09.15.2.19.32.04.13.06.26.06.38s-.02.26-.06.38c-.04.13-.1.24-.19.32-.09.09-.2.15-.32.19s-.26.06-.38.06Z" style="fill: #fff;"/>
      <path d="m65.95,17.2v-6.24h1.24v.53c.04-.09.09-.17.14-.25.05-.08.11-.14.19-.2.07-.06.15-.1.25-.13.09-.03.19-.04.28-.04.12,0,.24.02.35.07.11.05.21.11.29.2.08.08.15.18.2.29.05.11.09.22.13.34.02-.11.06-.22.11-.34.05-.11.12-.21.2-.29s.18-.15.29-.2.23-.07.35-.07.24.03.36.08.22.13.31.22c.08.1.15.2.2.32.05.12.09.24.11.36.03.12.05.25.06.37.01.12.02.25.02.38v4.61h-1.24v-4.61c0-.07,0-.14-.01-.21,0-.07-.02-.13-.04-.2-.02-.06-.06-.12-.11-.18-.05-.06-.11-.08-.17-.08-.07,0-.13.03-.18.08-.05.06-.08.12-.11.18s-.04.13-.05.2c0,.07-.01.14-.01.21v4.61h-1.22v-4.61c0-.07,0-.14-.01-.21,0-.07-.02-.13-.05-.2s-.06-.12-.11-.18c-.05-.06-.11-.08-.18-.08-.06,0-.12.03-.17.08-.05.06-.09.12-.11.18s-.03.13-.04.2c0,.07-.01.14-.01.21v4.61h-1.24Z" style="fill: #fff;"/>
      <path d="m74.11,17.2v-5.09h-1.44v-1.15h2.77v6.24h-1.33Zm.44-7.08c-.13,0-.26-.02-.38-.06s-.24-.1-.32-.19c-.09-.09-.15-.2-.19-.32s-.06-.26-.06-.38.02-.26.06-.38.1-.24.19-.32c.09-.09.2-.15.32-.19s.26-.06.38-.06.26.02.38.06.24.1.32.19c.09.09.15.2.19.32.04.13.06.26.06.38s-.02.26-.06.38c-.04.13-.1.24-.19.32-.09.09-.2.15-.32.19s-.26.06-.38.06Z" style="fill: #fff;"/>
      <path d="m81.46,17.2c-.16,0-.32-.01-.49-.04-.17-.03-.33-.08-.47-.15-.15-.07-.28-.17-.4-.29-.12-.12-.22-.26-.29-.41-.07-.15-.12-.31-.15-.47-.03-.16-.04-.33-.04-.5v-3.23h-1.43v-1.15h1.43v-2.58h1.33v2.58h1.82v1.15h-1.82v3.23c0,.09,0,.17.02.25.02.08.04.16.08.23.04.07.1.13.17.17s.15.06.23.06h1.31v1.15h-1.31Z" style="fill: #fff;"/>
      <path d="m86.48,13.21c-.16,0-.32-.02-.47-.07-.15-.05-.28-.13-.4-.24-.11-.11-.19-.24-.23-.4-.04-.15-.07-.31-.07-.47,0-.15.02-.31.07-.46s.12-.29.23-.4c.11-.11.24-.19.4-.23.15-.05.31-.07.47-.07s.32.02.47.07c.15.05.28.13.4.23.11.11.19.24.23.4.04.16.07.31.07.46,0,.16-.02.32-.07.47-.04.15-.12.28-.23.4-.11.11-.24.19-.4.24-.15.05-.31.07-.47.07Zm0,4.09c-.16,0-.32-.02-.47-.07-.15-.05-.28-.13-.4-.23-.11-.11-.19-.24-.23-.4-.04-.16-.07-.31-.07-.46,0-.16.02-.32.07-.47.04-.15.12-.28.23-.4.11-.11.24-.19.4-.24.15-.05.31-.07.47-.07s.32.02.47.07c.15.05.28.13.4.24.11.11.19.24.23.4.04.15.07.31.07.47,0,.15-.02.31-.07.46-.04.16-.12.29-.23.4-.11.11-.24.19-.4.23-.15.05-.31.07-.47.07Z" style="fill: #fff;"/>
      <path d="m96.38,17.2v-1.15h1.52v-6.43l-1.39,1.1-.66-.71,2.05-1.63h1.33v7.67h1.34v1.15h-4.2Z" style="fill: #fff;"/>
    </g>
    <g>
      <path d="m6.92,60.08l3.43-11.59h1.37l-3.43,11.59h-1.37Z" style="fill: #fff;"/>
      <path d="m13.03,58.36v-8.82h1.33v3.56c.06-.16.14-.31.24-.44.1-.14.21-.25.34-.35.13-.1.28-.17.44-.22.16-.04.32-.07.49-.07.19,0,.38.03.56.1.18.06.35.16.49.29.14.13.25.28.34.45s.16.35.21.53c.05.18.09.37.11.56.02.19.03.38.03.57v3.84h-1.33v-3.84c0-.1,0-.21-.02-.31-.01-.1-.03-.21-.06-.31-.03-.1-.07-.19-.12-.28-.05-.09-.12-.17-.19-.24-.08-.07-.16-.12-.26-.16-.1-.03-.2-.05-.31-.05s-.21.02-.31.05c-.1.03-.19.08-.26.16-.08.07-.14.15-.19.24-.05.09-.09.18-.12.28-.03.1-.05.2-.06.31-.01.1-.02.21-.02.31v3.84h-1.33Z" style="fill: #f07167;"/>
      <path d="m21.32,58.46c-.22,0-.43-.02-.65-.06-.22-.04-.43-.11-.62-.22-.19-.1-.36-.24-.51-.4s-.27-.34-.36-.54-.16-.4-.19-.62-.05-.44-.05-.65v-1.44c0-.22.02-.43.05-.65s.1-.43.19-.62.21-.38.36-.54.32-.3.51-.4c.19-.1.4-.18.62-.22.22-.04.44-.06.65-.06s.43.02.65.06c.22.04.43.11.62.22.19.1.36.24.51.4.15.16.27.34.36.54.09.2.16.4.19.62s.05.44.05.65v1.44c0,.22-.02.43-.05.65s-.1.43-.19.62c-.09.2-.21.38-.36.54-.15.16-.32.3-.51.4-.19.1-.4.18-.62.22-.22.04-.44.06-.65.06Zm0-1.15c.16,0,.31-.04.46-.11s.27-.18.36-.31c.09-.14.15-.28.19-.44.03-.16.05-.32.05-.48v-1.44c0-.16-.02-.32-.05-.48-.03-.16-.09-.31-.19-.44-.09-.14-.21-.24-.36-.31s-.3-.11-.46-.11-.31.04-.46.11c-.15.07-.27.18-.36.31-.09.14-.15.28-.19.44-.03.16-.05.32-.05.48v1.44c0,.16.02.32.05.48.03.16.09.31.19.44.09.14.21.24.36.31.15.07.3.11.46.11Z" style="fill: #f07167;"/>
      <path d="m24.79,58.36v-6.24h1.24v.53c.04-.09.09-.17.14-.25.05-.08.11-.14.19-.2.07-.06.15-.1.25-.13.09-.03.19-.04.28-.04.12,0,.24.02.35.07.11.05.21.11.29.2.08.08.15.18.2.29.05.11.09.22.13.34.02-.11.06-.22.11-.34.05-.11.12-.21.2-.29s.18-.15.29-.2c.11-.05.23-.07.35-.07s.24.03.36.08c.12.05.22.13.31.22s.15.2.2.32c.05.12.09.24.11.36.03.12.05.25.06.37.01.12.02.25.02.38v4.61h-1.24v-4.61c0-.07,0-.14-.01-.21,0-.07-.02-.13-.04-.2-.02-.06-.06-.12-.11-.18-.05-.06-.11-.08-.17-.08-.07,0-.13.03-.18.08-.05.06-.08.12-.11.18-.02.06-.04.13-.05.2,0,.07-.01.14-.01.21v4.61h-1.22v-4.61c0-.07,0-.14-.01-.21,0-.07-.02-.13-.05-.2-.02-.06-.06-.12-.11-.18-.05-.06-.11-.08-.18-.08-.06,0-.12.03-.17.08-.05.06-.09.12-.11.18-.02.06-.03.13-.04.2,0,.07-.01.14-.01.21v4.61h-1.24Z" style="fill: #f07167;"/>
      <path d="m33.35,58.46c-.22,0-.43-.02-.65-.06-.22-.04-.43-.11-.62-.22-.19-.1-.36-.24-.52-.4s-.28-.34-.37-.54c-.1-.2-.16-.41-.2-.63s-.05-.44-.05-.65v-1.44c0-.22.02-.43.05-.65s.1-.43.19-.62.21-.38.36-.54.32-.3.51-.4c.19-.1.4-.18.62-.22.22-.04.44-.06.65-.06s.43.02.65.06c.22.04.43.11.62.22.19.1.36.24.51.4.15.16.27.34.36.54.09.2.16.4.19.62s.05.44.05.65v1.3h-3.44v.14c0,.16.02.32.05.49s.1.31.19.44c.09.13.21.23.37.31.15.07.31.11.47.11.12,0,.24-.01.35-.04.12-.02.22-.07.32-.13.1-.06.17-.15.23-.25.06-.1.09-.22.1-.34h1.33c0,.19-.04.38-.1.55-.06.18-.14.34-.25.5-.11.16-.24.29-.39.4-.15.11-.32.2-.49.28-.18.07-.36.12-.54.14-.18.02-.37.04-.56.04Zm-1.08-3.79h2.11v-.14c0-.16-.02-.32-.05-.48-.03-.16-.09-.31-.19-.44-.09-.14-.21-.24-.36-.31s-.3-.11-.46-.11-.31.04-.46.11c-.15.07-.27.18-.36.31-.09.14-.15.28-.19.44-.03.16-.05.32-.05.48v.14Z" style="fill: #f07167;"/>
      <path d="m36.92,60.08l3.43-11.59h1.37l-3.43,11.59h-1.37Z" style="fill: #f07167;"/>
      <path d="m45.89,58.46c-.17,0-.33-.02-.49-.07-.16-.04-.31-.12-.44-.22-.14-.1-.25-.22-.35-.35-.1-.14-.18-.28-.24-.44v.98h-1.33v-8.82h1.33v3.56c.06-.16.14-.31.24-.44.1-.14.21-.25.35-.35.14-.1.28-.17.44-.22.16-.04.32-.07.49-.07.19,0,.38.03.57.09.19.06.36.15.5.28.15.12.27.27.37.44s.18.35.23.53c.06.18.09.37.11.57.02.2.03.39.03.58v1.44c0,.19-.01.39-.03.58s-.06.39-.11.57c-.06.18-.13.36-.23.53s-.22.32-.37.44c-.15.12-.32.22-.5.28-.19.06-.38.09-.57.09Zm-.55-1.15c.16,0,.31-.04.46-.11.15-.08.27-.18.35-.31.09-.13.15-.28.18-.44.03-.16.05-.32.05-.48v-1.44c0-.16-.02-.32-.05-.48-.03-.16-.09-.31-.18-.44-.09-.13-.21-.24-.35-.31-.15-.08-.3-.11-.46-.11-.1,0-.21.02-.31.05-.1.03-.19.08-.27.15-.08.07-.15.15-.2.24-.05.09-.09.19-.12.29-.03.1-.05.2-.06.31-.01.1-.02.21-.02.31v1.44c0,.1,0,.21.02.31.01.1.03.21.06.31.03.1.07.2.12.29.05.09.12.17.2.24.08.07.17.12.27.15.1.03.2.05.31.05Z" style="fill: #f07167;"/>
      <path d="m50.59,58.46c-.16,0-.32-.01-.47-.04s-.3-.08-.43-.16c-.14-.08-.25-.18-.35-.31-.1-.12-.18-.26-.24-.4-.06-.14-.1-.29-.13-.44-.02-.16-.04-.31-.04-.46,0-.22.03-.43.08-.64.05-.21.14-.4.26-.56s.28-.31.46-.43c.18-.12.37-.21.57-.28.2-.07.41-.12.62-.14.21-.03.42-.04.63-.04h.73v-.41c0-.14-.02-.27-.06-.39s-.11-.23-.2-.32c-.09-.09-.2-.16-.33-.2s-.26-.06-.4-.06c-.11,0-.23.01-.34.04-.12.03-.22.08-.32.15-.1.07-.17.16-.22.28-.05.11-.08.22-.08.34h-1.33c0-.18.03-.37.08-.55.05-.18.13-.36.23-.52s.23-.3.38-.42.32-.21.49-.28c.18-.07.36-.12.55-.14.19-.03.37-.04.56-.04.2,0,.4.01.6.04.2.03.39.08.57.16s.35.19.5.32c.15.13.28.28.38.46s.17.36.21.55c.04.2.06.39.06.59v4.21h-1.33v-.94c-.04.08-.07.13-.08.15-.01.02-.03.05-.05.08s-.05.07-.08.11c-.03.04-.06.07-.08.1-.03.03-.06.06-.09.1-.03.03-.06.06-.1.09-.03.03-.07.05-.1.08-.04.02-.07.05-.11.07s-.07.05-.11.07c-.04.02-.08.04-.12.05s-.08.03-.13.04c-.04.01-.09.02-.13.04-.04.01-.08.02-.13.02-.04,0-.09,0-.13.01h-.13s-.09.02-.13.02Zm.54-1.15c.15,0,.3-.02.45-.07s.28-.12.38-.22c.11-.1.19-.23.24-.37.05-.14.08-.29.08-.44v-.49h-.73c-.1,0-.19,0-.28.01-.09,0-.18.02-.28.05-.09.02-.18.05-.27.09s-.17.09-.24.15c-.07.06-.13.14-.16.23s-.05.18-.05.28c0,.11.02.22.06.32.04.1.1.19.19.27s.18.13.29.16c.11.03.22.04.33.04Z" style="fill: #f07167;"/>
      <path d="m55.7,58.36v-6.24h1.34v1.18c.05-.17.11-.33.2-.48.08-.15.18-.29.3-.41.12-.12.26-.22.42-.28.16-.06.33-.1.5-.1.15,0,.3.02.45.07.15.05.28.12.39.23.11.1.2.22.28.36.07.14.13.28.17.43.04.15.07.3.08.45.01.15.02.3.02.46h-1.34c0-.1,0-.19-.02-.29-.01-.1-.04-.19-.08-.27s-.1-.15-.19-.2c-.08-.05-.17-.08-.27-.08-.13,0-.25.04-.35.11s-.19.17-.26.28c-.06.11-.11.22-.15.35-.04.12-.06.25-.08.38s-.03.25-.04.38-.01.25-.01.38v3.31h-1.34Z" style="fill: #f07167;"/>
      <path d="m60.92,60.08l3.43-11.59h1.37l-3.43,11.59h-1.37Z" style="fill: #f07167;"/>
      <path d="m68.76,58.46c-.19,0-.38-.03-.57-.09-.19-.06-.36-.15-.5-.28s-.27-.27-.37-.44c-.1-.17-.18-.35-.23-.53-.06-.18-.09-.37-.11-.57s-.03-.39-.03-.58v-1.44c0-.19.01-.39.03-.58.02-.2.06-.39.11-.57s.13-.36.23-.53c.1-.17.22-.32.37-.44.15-.12.32-.22.5-.28.19-.06.38-.09.57-.09.17,0,.33.02.49.07.16.04.31.12.44.22.14.1.25.22.35.35.1.14.18.28.24.44v-3.56h1.33v8.82h-1.33v-.98c-.06.16-.14.31-.24.44-.1.14-.21.25-.35.35-.14.1-.28.17-.44.22-.16.04-.32.07-.49.07Zm.55-1.15c.1,0,.21-.02.31-.05.1-.03.19-.08.27-.15.08-.07.15-.15.2-.24.05-.09.09-.19.12-.29.03-.1.05-.2.06-.31.01-.1.02-.21.02-.31v-1.44c0-.1,0-.21-.02-.31-.01-.1-.03-.21-.06-.31-.03-.1-.07-.2-.12-.29-.05-.09-.12-.17-.2-.24-.08-.07-.17-.12-.27-.15-.1-.03-.2-.05-.31-.05-.16,0-.31.04-.46.11s-.27.18-.35.31c-.09.13-.15.28-.18.44-.03.16-.05.32-.05.48v1.44c0,.16.02.32.05.48.03.16.09.31.18.44s.21.24.35.31.3.11.46.11Z" style="fill: #f07167;"/>
      <path d="m75.35,58.46c-.22,0-.43-.02-.65-.06-.22-.04-.43-.11-.62-.22-.19-.1-.36-.24-.52-.4s-.28-.34-.37-.54c-.1-.2-.16-.41-.2-.63s-.05-.44-.05-.65v-1.44c0-.22.02-.43.05-.65s.1-.43.19-.62.21-.38.36-.54.32-.3.51-.4c.19-.1.4-.18.62-.22.22-.04.44-.06.65-.06s.43.02.65.06c.22.04.43.11.62.22.19.1.36.24.51.4.15.16.27.34.36.54.09.2.16.4.19.62s.05.44.05.65v1.3h-3.44v.14c0,.16.02.32.05.49s.1.31.19.44c.09.13.21.23.37.31.15.07.31.11.47.11.12,0,.24-.01.35-.04.12-.02.22-.07.32-.13.1-.06.17-.15.23-.25.06-.1.09-.22.1-.34h1.33c0,.19-.04.38-.1.55-.06.18-.14.34-.25.5-.11.16-.24.29-.39.4-.15.11-.32.2-.49.28-.18.07-.36.12-.54.14-.18.02-.37.04-.56.04Zm-1.08-3.79h2.11v-.14c0-.16-.02-.32-.05-.48-.03-.16-.09-.31-.19-.44-.09-.14-.21-.24-.36-.31s-.3-.11-.46-.11-.31.04-.46.11c-.15.07-.27.18-.36.31-.09.14-.15.28-.19.44-.03.16-.05.32-.05.48v.14Z" style="fill: #f07167;"/>
      <path d="m81.35,58.46c-.22,0-.43-.02-.65-.06-.22-.04-.43-.11-.62-.22-.19-.1-.36-.24-.52-.4s-.28-.34-.37-.54c-.1-.2-.16-.41-.2-.63s-.05-.44-.05-.65v-1.44c0-.22.02-.43.05-.65s.1-.43.19-.62.21-.38.36-.54.32-.3.51-.4c.19-.1.4-.18.62-.22.22-.04.44-.06.65-.06s.43.02.65.06c.22.04.43.11.62.22.19.1.36.24.51.4.15.16.27.34.36.54.09.2.16.4.19.62s.05.44.05.65v1.3h-3.44v.14c0,.16.02.32.05.49s.1.31.19.44c.09.13.21.23.37.31.15.07.31.11.47.11.12,0,.24-.01.35-.04.12-.02.22-.07.32-.13.1-.06.17-.15.23-.25.06-.1.09-.22.1-.34h1.33c0,.19-.04.38-.1.55-.06.18-.14.34-.25.5-.11.16-.24.29-.39.4-.15.11-.32.2-.49.28-.18.07-.36.12-.54.14-.18.02-.37.04-.56.04Zm-1.08-3.79h2.11v-.14c0-.16-.02-.32-.05-.48-.03-.16-.09-.31-.19-.44-.09-.14-.21-.24-.36-.31s-.3-.11-.46-.11-.31.04-.46.11c-.15.07-.27.18-.36.31-.09.14-.15.28-.19.44-.03.16-.05.32-.05.48v.14Z" style="fill: #f07167;"/>
      <path d="m85.03,60.94v-8.82h1.33v.98c.06-.16.14-.31.24-.44.1-.14.21-.25.35-.35.14-.1.28-.17.44-.22.16-.04.32-.07.49-.07.19,0,.38.03.57.09.19.06.36.15.5.28.15.12.27.27.37.44s.18.35.23.53c.06.18.09.37.11.57.02.2.03.39.03.58v1.44c0,.19-.01.39-.03.58s-.06.39-.11.57c-.06.18-.13.36-.23.53s-.22.32-.37.44c-.15.12-.32.22-.5.28-.19.06-.38.09-.57.09-.17,0-.33-.02-.49-.07-.16-.04-.31-.12-.44-.22-.14-.1-.25-.22-.35-.35-.1-.14-.18-.28-.24-.44v3.56h-1.33Zm2.3-3.64c.16,0,.31-.04.46-.11.15-.08.27-.18.35-.31.09-.13.15-.28.18-.44.03-.16.05-.32.05-.48v-1.44c0-.16-.02-.32-.05-.48-.03-.16-.09-.31-.18-.44-.09-.13-.21-.24-.35-.31-.15-.08-.3-.11-.46-.11-.1,0-.21.02-.31.05-.1.03-.19.08-.27.15-.08.07-.15.15-.2.24-.05.09-.09.19-.12.29-.03.1-.05.2-.06.31-.01.1-.02.21-.02.31v1.44c0,.1,0,.21.02.31.01.1.03.21.06.31.03.1.07.2.12.29.05.09.12.17.2.24.08.07.17.12.27.15.1.03.2.05.31.05Z" style="fill: #f07167;"/>
      <path d="m90.92,60.08l3.43-11.59h1.37l-3.43,11.59h-1.37Z" style="fill: #f07167;"/>
      <path d="m97.03,60.94v-8.82h1.33v.98c.06-.16.14-.31.24-.44.1-.14.21-.25.35-.35.14-.1.28-.17.44-.22.16-.04.32-.07.49-.07.19,0,.38.03.57.09.19.06.36.15.5.28.15.12.27.27.37.44s.18.35.23.53c.06.18.09.37.11.57.02.2.03.39.03.58v1.44c0,.19-.01.39-.03.58s-.06.39-.11.57c-.06.18-.13.36-.23.53s-.22.32-.37.44c-.15.12-.32.22-.5.28-.19.06-.38.09-.57.09-.17,0-.33-.02-.49-.07-.16-.04-.31-.12-.44-.22-.14-.1-.25-.22-.35-.35-.1-.14-.18-.28-.24-.44v3.56h-1.33Zm2.3-3.64c.16,0,.31-.04.46-.11.15-.08.27-.18.35-.31.09-.13.15-.28.18-.44.03-.16.05-.32.05-.48v-1.44c0-.16-.02-.32-.05-.48-.03-.16-.09-.31-.18-.44-.09-.13-.21-.24-.35-.31-.15-.08-.3-.11-.46-.11-.1,0-.21.02-.31.05-.1.03-.19.08-.27.15-.08.07-.15.15-.2.24-.05.09-.09.19-.12.29-.03.1-.05.2-.06.31-.01.1-.02.21-.02.31v1.44c0,.1,0,.21.02.31.01.1.03.21.06.31.03.1.07.2.12.29.05.09.12.17.2.24.08.07.17.12.27.15.1.03.2.05.31.05Z" style="fill: #f07167;"/>
      <path d="m104.59,58.46c-.16,0-.32-.01-.47-.04s-.3-.08-.43-.16c-.14-.08-.25-.18-.35-.31-.1-.12-.18-.26-.24-.4-.06-.14-.1-.29-.13-.44-.02-.16-.04-.31-.04-.46,0-.22.03-.43.08-.64.05-.21.14-.4.26-.56s.28-.31.46-.43c.18-.12.37-.21.57-.28.2-.07.41-.12.62-.14.21-.03.42-.04.63-.04h.73v-.41c0-.14-.02-.27-.06-.39s-.11-.23-.2-.32c-.09-.09-.2-.16-.33-.2s-.26-.06-.4-.06c-.11,0-.23.01-.34.04-.12.03-.22.08-.32.15-.1.07-.17.16-.22.28-.05.11-.08.22-.08.34h-1.33c0-.18.03-.37.08-.55.05-.18.13-.36.23-.52s.23-.3.38-.42.32-.21.49-.28c.18-.07.36-.12.55-.14.19-.03.37-.04.56-.04.2,0,.4.01.6.04.2.03.39.08.57.16s.35.19.5.32c.15.13.28.28.38.46s.17.36.21.55c.04.2.06.39.06.59v4.21h-1.33v-.94c-.04.08-.07.13-.08.15-.01.02-.03.05-.05.08s-.05.07-.08.11c-.03.04-.06.07-.08.1-.03.03-.06.06-.09.1-.03.03-.06.06-.1.09-.03.03-.07.05-.1.08-.04.02-.07.05-.11.07s-.07.05-.11.07c-.04.02-.08.04-.12.05s-.08.03-.13.04c-.04.01-.09.02-.13.04-.04.01-.08.02-.13.02-.04,0-.09,0-.13.01h-.13s-.09.02-.13.02Zm.54-1.15c.15,0,.3-.02.45-.07s.28-.12.38-.22c.11-.1.19-.23.24-.37.05-.14.08-.29.08-.44v-.49h-.73c-.1,0-.19,0-.28.01-.09,0-.18.02-.28.05-.09.02-.18.05-.27.09s-.17.09-.24.15c-.07.06-.13.14-.16.23s-.05.18-.05.28c0,.11.02.22.06.32.04.1.1.19.19.27s.18.13.29.16c.11.03.22.04.33.04Z" style="fill: #f07167;"/>
      <path d="m112.31,58.36c-.16,0-.32-.01-.49-.04s-.33-.08-.47-.15-.28-.17-.4-.29c-.12-.12-.22-.26-.29-.41-.07-.15-.12-.31-.15-.47-.03-.16-.04-.33-.04-.5v-3.23h-1.43v-1.15h1.43v-2.58h1.33v2.58h1.82v1.15h-1.82v3.23c0,.09,0,.17.02.25.02.08.04.16.08.23.04.07.1.13.17.17s.15.06.23.06h1.31v1.15h-1.31Z" style="fill: #f07167;"/>
      <path d="m115.03,58.36v-8.82h1.33v3.56c.06-.16.14-.31.24-.44.1-.14.21-.25.34-.35.13-.1.28-.17.44-.22.16-.04.32-.07.49-.07.19,0,.38.03.56.1.18.06.35.16.49.29.14.13.25.28.34.45s.16.35.21.53c.05.18.09.37.11.56.02.19.03.38.03.57v3.84h-1.33v-3.84c0-.1,0-.21-.02-.31-.01-.1-.03-.21-.06-.31-.03-.1-.07-.19-.12-.28-.05-.09-.12-.17-.19-.24-.08-.07-.16-.12-.26-.16-.1-.03-.2-.05-.31-.05s-.21.02-.31.05c-.1.03-.19.08-.26.16-.08.07-.14.15-.19.24-.05.09-.09.18-.12.28-.03.1-.05.2-.06.31-.01.1-.02.21-.02.31v3.84h-1.33Z" style="fill: #f07167;"/>
      <path d="m120.92,60.08l3.43-11.59h1.37l-3.43,11.59h-1.37Z" style="fill: #f07167;"/>
      <path d="m127.74,58.36v-4.6h-1.43v-1.15h1.43v-1.21c0-.17.01-.33.04-.5.03-.16.08-.32.15-.47.07-.15.17-.29.29-.41.12-.12.25-.22.4-.29.15-.07.31-.12.47-.15s.33-.04.49-.04h1.31v1.15h-1.31c-.08,0-.16.02-.23.06s-.13.1-.17.17c-.04.07-.07.15-.08.23-.02.08-.02.16-.02.25v1.21h1.82v1.15h-1.82v4.6h-1.33Z" style="fill: #f07167;"/>
      <path d="m134.6,58.46c-.22,0-.43-.02-.65-.06-.22-.04-.43-.11-.62-.22-.19-.1-.36-.24-.51-.4s-.27-.34-.36-.54-.16-.4-.19-.62-.05-.44-.05-.65v-1.44c0-.22.02-.43.05-.65s.1-.43.19-.62.21-.38.36-.54.32-.3.51-.4c.19-.1.4-.18.62-.22.22-.04.44-.06.65-.06s.43.02.65.06c.22.04.43.11.62.22.19.1.36.24.51.4.15.16.27.34.36.54.09.2.16.4.19.62s.05.44.05.65v1.44c0,.22-.02.43-.05.65s-.1.43-.19.62c-.09.2-.21.38-.36.54-.15.16-.32.3-.51.4-.19.1-.4.18-.62.22-.22.04-.44.06-.65.06Zm0-1.15c.16,0,.31-.04.46-.11s.27-.18.36-.31c.09-.14.15-.28.19-.44.03-.16.05-.32.05-.48v-1.44c0-.16-.02-.32-.05-.48-.03-.16-.09-.31-.19-.44-.09-.14-.21-.24-.36-.31s-.3-.11-.46-.11-.31.04-.46.11c-.15.07-.27.18-.36.31-.09.14-.15.28-.19.44-.03.16-.05.32-.05.48v1.44c0,.16.02.32.05.48.03.16.09.31.19.44.09.14.21.24.36.31.15.07.3.11.46.11Z" style="fill: #f07167;"/>
      <path d="m140.6,58.46c-.22,0-.43-.02-.65-.06-.22-.04-.43-.11-.62-.22-.19-.1-.36-.24-.51-.4s-.27-.34-.36-.54-.16-.4-.19-.62-.05-.44-.05-.65v-1.44c0-.22.02-.43.05-.65s.1-.43.19-.62.21-.38.36-.54.32-.3.51-.4c.19-.1.4-.18.62-.22.22-.04.44-.06.65-.06s.43.02.65.06c.22.04.43.11.62.22.19.1.36.24.51.4.15.16.27.34.36.54.09.2.16.4.19.62s.05.44.05.65v1.44c0,.22-.02.43-.05.65s-.1.43-.19.62c-.09.2-.21.38-.36.54-.15.16-.32.3-.51.4-.19.1-.4.18-.62.22-.22.04-.44.06-.65.06Zm0-1.15c.16,0,.31-.04.46-.11s.27-.18.36-.31c.09-.14.15-.28.19-.44.03-.16.05-.32.05-.48v-1.44c0-.16-.02-.32-.05-.48-.03-.16-.09-.31-.19-.44-.09-.14-.21-.24-.36-.31s-.3-.11-.46-.11-.31.04-.46.11c-.15.07-.27.18-.36.31-.09.14-.15.28-.19.44-.03.16-.05.32-.05.48v1.44c0,.16.02.32.05.48.03.16.09.31.19.44.09.14.21.24.36.31.15.07.3.11.46.11Z" style="fill: #f07167;"/>
      <path d="m146.6,58.46c-.16,0-.32-.02-.47-.07-.15-.05-.28-.13-.4-.23-.11-.11-.19-.24-.23-.4s-.07-.31-.07-.46c0-.16.02-.32.07-.47s.12-.28.23-.4c.11-.11.24-.19.4-.24.15-.05.31-.07.47-.07s.32.02.47.07c.15.05.28.13.4.24.11.11.19.24.23.4.04.15.07.31.07.47s-.02.31-.07.46c-.04.16-.12.29-.23.4-.11.11-.24.19-.4.23-.15.05-.31.07-.47.07Z" style="fill: #f07167;"/>
      <path d="m150.31,60.94v-8.82h1.33v.98c.06-.16.14-.31.24-.44.1-.14.21-.25.35-.35.14-.1.28-.17.44-.22.16-.04.32-.07.49-.07.19,0,.38.03.57.09.19.06.36.15.5.28.15.12.27.27.37.44s.18.35.23.53c.06.18.09.37.11.57.02.2.03.39.03.58v1.44c0,.19-.01.39-.03.58s-.06.39-.11.57c-.06.18-.13.36-.23.53s-.22.32-.37.44c-.15.12-.32.22-.5.28-.19.06-.38.09-.57.09-.17,0-.33-.02-.49-.07-.16-.04-.31-.12-.44-.22-.14-.1-.25-.22-.35-.35-.1-.14-.18-.28-.24-.44v3.56h-1.33Zm2.3-3.64c.16,0,.31-.04.46-.11.15-.08.27-.18.35-.31.09-.13.15-.28.18-.44.03-.16.05-.32.05-.48v-1.44c0-.16-.02-.32-.05-.48-.03-.16-.09-.31-.18-.44-.09-.13-.21-.24-.35-.31-.15-.08-.3-.11-.46-.11-.1,0-.21.02-.31.05-.1.03-.19.08-.27.15-.08.07-.15.15-.2.24-.05.09-.09.19-.12.29-.03.1-.05.2-.06.31-.01.1-.02.21-.02.31v1.44c0,.1,0,.21.02.31.01.1.03.21.06.31.03.1.07.2.12.29.05.09.12.17.2.24.08.07.17.12.27.15.1.03.2.05.31.05Z" style="fill: #f07167;"/>
      <path d="m156.31,58.36v-6.24h1.33v.98c.06-.16.14-.31.24-.44.1-.14.21-.25.34-.35.13-.1.28-.17.44-.22.16-.04.32-.07.49-.07.19,0,.38.03.56.1.18.06.35.16.49.29.14.13.25.28.34.45s.16.35.21.53c.05.18.09.37.11.56.02.19.03.38.03.57v3.84h-1.33v-3.84c0-.1,0-.21-.02-.31-.01-.1-.03-.21-.06-.31-.03-.1-.07-.19-.12-.28-.05-.09-.12-.17-.19-.24-.08-.07-.16-.12-.26-.16-.1-.03-.2-.05-.31-.05s-.21.02-.31.05c-.1.03-.19.08-.26.16-.08.07-.14.15-.19.24-.05.09-.09.18-.12.28-.03.1-.05.2-.06.31-.01.1-.02.21-.02.31v3.84h-1.33Z" style="fill: #f07167;"/>
      <path d="m163.22,60.94v-1.15h1.58c.11,0,.22-.02.33-.07.11-.05.19-.12.26-.21s.11-.2.13-.31c.02-.12.04-.23.04-.34v-1.48c-.06.16-.14.31-.24.44-.1.14-.21.25-.35.35-.14.1-.28.17-.44.22-.16.04-.32.07-.49.07-.19,0-.38-.03-.57-.09-.19-.06-.36-.15-.5-.28s-.27-.27-.37-.44c-.1-.17-.18-.35-.23-.53-.06-.18-.09-.37-.11-.57s-.03-.39-.03-.58v-1.44c0-.19.01-.39.03-.58.02-.2.06-.39.11-.57s.13-.36.23-.53c.1-.17.22-.32.37-.44.15-.12.32-.22.5-.28.19-.06.38-.09.57-.09.17,0,.33.02.49.07.16.04.31.12.44.22.14.1.25.22.35.35.1.14.18.28.24.44v-.98h1.33v6.73c0,.18-.02.37-.05.56-.03.19-.09.37-.17.53s-.19.32-.32.45c-.13.13-.28.24-.45.32s-.35.14-.53.17c-.19.03-.37.05-.56.05h-1.58Zm1.37-3.64c.1,0,.21-.02.31-.05.1-.03.19-.08.27-.15.08-.07.15-.15.2-.24.05-.09.09-.19.12-.29.03-.1.05-.2.06-.31.01-.1.02-.21.02-.31v-1.44c0-.1,0-.21-.02-.31-.01-.1-.03-.21-.06-.31-.03-.1-.07-.2-.12-.29-.05-.09-.12-.17-.2-.24-.08-.07-.17-.12-.27-.15-.1-.03-.2-.05-.31-.05-.16,0-.31.04-.46.11s-.27.18-.35.31c-.09.13-.15.28-.18.44-.03.16-.05.32-.05.48v1.44c0,.16.02.32.05.48.03.16.09.31.18.44s.21.24.35.31.3.11.46.11Z" style="fill: #f07167;"/>
    </g>
    <g>
      <path d="m259.43,126.23l3.62-11.59h.96l-3.62,11.59h-.96Z" style="fill: #fff;"/>
      <path d="m266.62,121.12l-.76-.49,1.26-1.61-1.94-.56.29-.79,1.86.67-.07-2.02h.94l-.07,2.02,1.86-.67.29.79-1.94.56,1.26,1.61-.76.49-1.1-1.63-1.1,1.63Z" style="fill: #fff;"/>
    </g>
    <g>
      <path d="m6.96,99.7l3.62-11.59h.96l-3.62,11.59h-.96Z" style="fill: #fff;"/>
      <path d="m12.96,97.99v-8.82h1.33v3.56c.06-.16.14-.31.24-.44.1-.14.21-.25.34-.35.13-.1.28-.17.44-.22.16-.04.32-.07.49-.07.19,0,.38.03.56.1.18.06.35.16.49.29.14.13.25.28.34.45s.16.35.21.53c.05.18.09.37.11.56.02.19.03.38.03.57v3.84h-1.33v-3.84c0-.1,0-.21-.02-.31-.01-.1-.03-.21-.06-.31-.03-.1-.07-.19-.12-.28-.05-.09-.12-.17-.19-.24-.08-.07-.16-.12-.26-.16-.1-.03-.2-.05-.31-.05s-.21.02-.31.05c-.1.03-.19.08-.26.16-.08.07-.14.15-.19.24-.05.09-.09.18-.12.28-.03.1-.05.2-.06.31-.01.1-.02.21-.02.31v3.84h-1.33Z" style="fill: #f07167;"/>
      <path d="m21.25,98.08c-.22,0-.43-.02-.65-.06-.22-.04-.43-.11-.62-.22-.19-.1-.36-.24-.51-.4s-.27-.34-.36-.54-.16-.4-.19-.62-.05-.44-.05-.65v-1.44c0-.22.02-.43.05-.65s.1-.43.19-.62.21-.38.36-.54.32-.3.51-.4c.19-.1.4-.18.62-.22.22-.04.44-.06.65-.06s.43.02.65.06c.22.04.43.11.62.22.19.1.36.24.51.4.15.16.27.34.36.54.09.2.16.4.19.62s.05.44.05.65v1.44c0,.22-.02.43-.05.65s-.1.43-.19.62c-.09.2-.21.38-.36.54-.15.16-.32.3-.51.4-.19.1-.4.18-.62.22-.22.04-.44.06-.65.06Zm0-1.15c.16,0,.31-.04.46-.11s.27-.18.36-.31c.09-.14.15-.28.19-.44.03-.16.05-.32.05-.48v-1.44c0-.16-.02-.32-.05-.48-.03-.16-.09-.31-.19-.44-.09-.14-.21-.24-.36-.31s-.3-.11-.46-.11-.31.04-.46.11c-.15.07-.27.18-.36.31-.09.14-.15.28-.19.44-.03.16-.05.32-.05.48v1.44c0,.16.02.32.05.48.03.16.09.31.19.44.09.14.21.24.36.31.15.07.3.11.46.11Z" style="fill: #f07167;"/>
      <path d="m24.72,97.99v-6.24h1.24v.53c.04-.09.09-.17.14-.25.05-.08.11-.14.19-.2.07-.06.15-.1.25-.13.09-.03.19-.04.28-.04.12,0,.24.02.35.07.11.05.21.11.29.2.08.08.15.18.2.29.05.11.09.22.13.34.02-.11.06-.22.11-.34.05-.11.12-.21.2-.29s.18-.15.29-.2c.11-.05.23-.07.35-.07s.24.03.36.08c.12.05.22.13.31.22s.15.2.2.32c.05.12.09.24.11.36.03.12.05.25.06.37.01.12.02.25.02.38v4.61h-1.24v-4.61c0-.07,0-.14-.01-.21,0-.07-.02-.13-.04-.2-.02-.06-.06-.12-.11-.18-.05-.06-.11-.08-.17-.08-.07,0-.13.03-.18.08-.05.06-.08.12-.11.18-.02.06-.04.13-.05.2,0,.07-.01.14-.01.21v4.61h-1.22v-4.61c0-.07,0-.14-.01-.21,0-.07-.02-.13-.05-.2-.02-.06-.06-.12-.11-.18-.05-.06-.11-.08-.18-.08-.06,0-.12.03-.17.08-.05.06-.09.12-.11.18-.02.06-.03.13-.04.2,0,.07-.01.14-.01.21v4.61h-1.24Z" style="fill: #f07167;"/>
      <path d="m33.27,98.08c-.22,0-.43-.02-.65-.06-.22-.04-.43-.11-.62-.22-.19-.1-.36-.24-.52-.4s-.28-.34-.37-.54c-.1-.2-.16-.41-.2-.63s-.05-.44-.05-.65v-1.44c0-.22.02-.43.05-.65s.1-.43.19-.62.21-.38.36-.54.32-.3.51-.4c.19-.1.4-.18.62-.22.22-.04.44-.06.65-.06s.43.02.65.06c.22.04.43.11.62.22.19.1.36.24.51.4.15.16.27.34.36.54.09.2.16.4.19.62s.05.44.05.65v1.3h-3.44v.14c0,.16.02.32.05.49s.1.31.19.44c.09.13.21.23.37.31.15.07.31.11.47.11.12,0,.24-.01.35-.04.12-.02.22-.07.32-.13.1-.06.17-.15.23-.25.06-.1.09-.22.1-.34h1.33c0,.19-.04.38-.1.55-.06.18-.14.34-.25.5-.11.16-.24.29-.39.4-.15.11-.32.2-.49.28-.18.07-.36.12-.54.14-.18.02-.37.04-.56.04Zm-1.08-3.79h2.11v-.14c0-.16-.02-.32-.05-.48-.03-.16-.09-.31-.19-.44-.09-.14-.21-.24-.36-.31s-.3-.11-.46-.11-.31.04-.46.11c-.15.07-.27.18-.36.31-.09.14-.15.28-.19.44-.03.16-.05.32-.05.48v.14Z" style="fill: #f07167;"/>
      <path d="m36.85,99.7l3.43-11.59h1.37l-3.43,11.59h-1.37Z" style="fill: #f07167;"/>
      <path d="m45.81,98.08c-.17,0-.33-.02-.49-.07-.16-.04-.31-.12-.44-.22-.14-.1-.25-.22-.35-.35-.1-.14-.18-.28-.24-.44v.98h-1.33v-8.82h1.33v3.56c.06-.16.14-.31.24-.44.1-.14.21-.25.35-.35.14-.1.28-.17.44-.22.16-.04.32-.07.49-.07.19,0,.38.03.57.09.19.06.36.15.5.28.15.12.27.27.37.44s.18.35.23.53c.06.18.09.37.11.57.02.2.03.39.03.58v1.44c0,.19-.01.39-.03.58s-.06.39-.11.57c-.06.18-.13.36-.23.53s-.22.32-.37.44c-.15.12-.32.22-.5.28-.19.06-.38.09-.57.09Zm-.55-1.15c.16,0,.31-.04.46-.11.15-.08.27-.18.35-.31.09-.13.15-.28.18-.44.03-.16.05-.32.05-.48v-1.44c0-.16-.02-.32-.05-.48-.03-.16-.09-.31-.18-.44-.09-.13-.21-.24-.35-.31-.15-.08-.3-.11-.46-.11-.1,0-.21.02-.31.05-.1.03-.19.08-.27.15-.08.07-.15.15-.2.24-.05.09-.09.19-.12.29-.03.1-.05.2-.06.31-.01.1-.02.21-.02.31v1.44c0,.1,0,.21.02.31.01.1.03.21.06.31.03.1.07.2.12.29.05.09.12.17.2.24.08.07.17.12.27.15.1.03.2.05.31.05Z" style="fill: #f07167;"/>
      <path d="m50.52,98.08c-.16,0-.32-.01-.47-.04s-.3-.08-.43-.16c-.14-.08-.25-.18-.35-.31-.1-.12-.18-.26-.24-.4-.06-.14-.1-.29-.13-.44-.02-.16-.04-.31-.04-.46,0-.22.03-.43.08-.64.05-.21.14-.4.26-.56s.28-.31.46-.43c.18-.12.37-.21.57-.28.2-.07.41-.12.62-.14.21-.03.42-.04.63-.04h.73v-.41c0-.14-.02-.27-.06-.39s-.11-.23-.2-.32c-.09-.09-.2-.16-.33-.2s-.26-.06-.4-.06c-.11,0-.23.01-.34.04-.12.03-.22.08-.32.15-.1.07-.17.16-.22.28-.05.11-.08.22-.08.34h-1.33c0-.18.03-.37.08-.55.05-.18.13-.36.23-.52s.23-.3.38-.42.32-.21.49-.28c.18-.07.36-.12.55-.14.19-.03.37-.04.56-.04.2,0,.4.01.6.04.2.03.39.08.57.16s.35.19.5.32c.15.13.28.28.38.46s.17.36.21.55c.04.2.06.39.06.59v4.21h-1.33v-.94c-.04.08-.07.13-.08.15-.01.02-.03.05-.05.08s-.05.07-.08.11c-.03.04-.06.07-.08.1-.03.03-.06.06-.09.1-.03.03-.06.06-.1.09-.03.03-.07.05-.1.08-.04.02-.07.05-.11.07s-.07.05-.11.07c-.04.02-.08.04-.12.05s-.08.03-.13.04c-.04.01-.09.02-.13.04-.04.01-.08.02-.13.02-.04,0-.09,0-.13.01h-.13s-.09.02-.13.02Zm.54-1.15c.15,0,.3-.02.45-.07s.28-.12.38-.22c.11-.1.19-.23.24-.37.05-.14.08-.29.08-.44v-.49h-.73c-.1,0-.19,0-.28.01-.09,0-.18.02-.28.05-.09.02-.18.05-.27.09s-.17.09-.24.15c-.07.06-.13.14-.16.23s-.05.18-.05.28c0,.11.02.22.06.32.04.1.1.19.19.27s.18.13.29.16c.11.03.22.04.33.04Z" style="fill: #f07167;"/>
      <path d="m55.63,97.99v-6.24h1.34v1.18c.05-.17.11-.33.2-.48.08-.15.18-.29.3-.41.12-.12.26-.22.42-.28.16-.06.33-.1.5-.1.15,0,.3.02.45.07.15.05.28.12.39.23.11.1.2.22.28.36.07.14.13.28.17.43.04.15.07.3.08.45.01.15.02.3.02.46h-1.34c0-.1,0-.19-.02-.29-.01-.1-.04-.19-.08-.27s-.1-.15-.19-.2c-.08-.05-.17-.08-.27-.08-.13,0-.25.04-.35.11s-.19.17-.26.28c-.06.11-.11.22-.15.35-.04.12-.06.25-.08.38s-.03.25-.04.38-.01.25-.01.38v3.31h-1.34Z" style="fill: #f07167;"/>
      <path d="m60.85,99.7l3.43-11.59h1.37l-3.43,11.59h-1.37Z" style="fill: #f07167;"/>
      <path d="m68.69,98.08c-.19,0-.38-.03-.57-.09-.19-.06-.36-.15-.5-.28s-.27-.27-.37-.44c-.1-.17-.18-.35-.23-.53-.06-.18-.09-.37-.11-.57s-.03-.39-.03-.58v-1.44c0-.19.01-.39.03-.58.02-.2.06-.39.11-.57s.13-.36.23-.53c.1-.17.22-.32.37-.44.15-.12.32-.22.5-.28.19-.06.38-.09.57-.09.17,0,.33.02.49.07.16.04.31.12.44.22.14.1.25.22.35.35.1.14.18.28.24.44v-3.56h1.33v8.82h-1.33v-.98c-.06.16-.14.31-.24.44-.1.14-.21.25-.35.35-.14.1-.28.17-.44.22-.16.04-.32.07-.49.07Zm.55-1.15c.1,0,.21-.02.31-.05.1-.03.19-.08.27-.15.08-.07.15-.15.2-.24.05-.09.09-.19.12-.29.03-.1.05-.2.06-.31.01-.1.02-.21.02-.31v-1.44c0-.1,0-.21-.02-.31-.01-.1-.03-.21-.06-.31-.03-.1-.07-.2-.12-.29-.05-.09-.12-.17-.2-.24-.08-.07-.17-.12-.27-.15-.1-.03-.2-.05-.31-.05-.16,0-.31.04-.46.11s-.27.18-.35.31c-.09.13-.15.28-.18.44-.03.16-.05.32-.05.48v1.44c0,.16.02.32.05.48.03.16.09.31.18.44s.21.24.35.31.3.11.46.11Z" style="fill: #f07167;"/>
      <path d="m75.27,98.08c-.22,0-.43-.02-.65-.06-.22-.04-.43-.11-.62-.22-.19-.1-.36-.24-.52-.4s-.28-.34-.37-.54c-.1-.2-.16-.41-.2-.63s-.05-.44-.05-.65v-1.44c0-.22.02-.43.05-.65s.1-.43.19-.62.21-.38.36-.54.32-.3.51-.4c.19-.1.4-.18.62-.22.22-.04.44-.06.65-.06s.43.02.65.06c.22.04.43.11.62.22.19.1.36.24.51.4.15.16.27.34.36.54.09.2.16.4.19.62s.05.44.05.65v1.3h-3.44v.14c0,.16.02.32.05.49s.1.31.19.44c.09.13.21.23.37.31.15.07.31.11.47.11.12,0,.24-.01.35-.04.12-.02.22-.07.32-.13.1-.06.17-.15.23-.25.06-.1.09-.22.1-.34h1.33c0,.19-.04.38-.1.55-.06.18-.14.34-.25.5-.11.16-.24.29-.39.4-.15.11-.32.2-.49.28-.18.07-.36.12-.54.14-.18.02-.37.04-.56.04Zm-1.08-3.79h2.11v-.14c0-.16-.02-.32-.05-.48-.03-.16-.09-.31-.19-.44-.09-.14-.21-.24-.36-.31s-.3-.11-.46-.11-.31.04-.46.11c-.15.07-.27.18-.36.31-.09.14-.15.28-.19.44-.03.16-.05.32-.05.48v.14Z" style="fill: #f07167;"/>
      <path d="m81.27,98.08c-.22,0-.43-.02-.65-.06-.22-.04-.43-.11-.62-.22-.19-.1-.36-.24-.52-.4s-.28-.34-.37-.54c-.1-.2-.16-.41-.2-.63s-.05-.44-.05-.65v-1.44c0-.22.02-.43.05-.65s.1-.43.19-.62.21-.38.36-.54.32-.3.51-.4c.19-.1.4-.18.62-.22.22-.04.44-.06.65-.06s.43.02.65.06c.22.04.43.11.62.22.19.1.36.24.51.4.15.16.27.34.36.54.09.2.16.4.19.62s.05.44.05.65v1.3h-3.44v.14c0,.16.02.32.05.49s.1.31.19.44c.09.13.21.23.37.31.15.07.31.11.47.11.12,0,.24-.01.35-.04.12-.02.22-.07.32-.13.1-.06.17-.15.23-.25.06-.1.09-.22.1-.34h1.33c0,.19-.04.38-.1.55-.06.18-.14.34-.25.5-.11.16-.24.29-.39.4-.15.11-.32.2-.49.28-.18.07-.36.12-.54.14-.18.02-.37.04-.56.04Zm-1.08-3.79h2.11v-.14c0-.16-.02-.32-.05-.48-.03-.16-.09-.31-.19-.44-.09-.14-.21-.24-.36-.31s-.3-.11-.46-.11-.31.04-.46.11c-.15.07-.27.18-.36.31-.09.14-.15.28-.19.44-.03.16-.05.32-.05.48v.14Z" style="fill: #f07167;"/>
      <path d="m84.96,100.57v-8.82h1.33v.98c.06-.16.14-.31.24-.44.1-.14.21-.25.35-.35.14-.1.28-.17.44-.22.16-.04.32-.07.49-.07.19,0,.38.03.57.09.19.06.36.15.5.28.15.12.27.27.37.44s.18.35.23.53c.06.18.09.37.11.57.02.2.03.39.03.58v1.44c0,.19-.01.39-.03.58s-.06.39-.11.57c-.06.18-.13.36-.23.53s-.22.32-.37.44c-.15.12-.32.22-.5.28-.19.06-.38.09-.57.09-.17,0-.33-.02-.49-.07-.16-.04-.31-.12-.44-.22-.14-.1-.25-.22-.35-.35-.1-.14-.18-.28-.24-.44v3.56h-1.33Zm2.3-3.64c.16,0,.31-.04.46-.11.15-.08.27-.18.35-.31.09-.13.15-.28.18-.44.03-.16.05-.32.05-.48v-1.44c0-.16-.02-.32-.05-.48-.03-.16-.09-.31-.18-.44-.09-.13-.21-.24-.35-.31-.15-.08-.3-.11-.46-.11-.1,0-.21.02-.31.05-.1.03-.19.08-.27.15-.08.07-.15.15-.2.24-.05.09-.09.19-.12.29-.03.1-.05.2-.06.31-.01.1-.02.21-.02.31v1.44c0,.1,0,.21.02.31.01.1.03.21.06.31.03.1.07.2.12.29.05.09.12.17.2.24.08.07.17.12.27.15.1.03.2.05.31.05Z" style="fill: #f07167;"/>
      <path d="m90.85,99.7l3.43-11.59h1.37l-3.43,11.59h-1.37Z" style="fill: #f07167;"/>
      <path d="m99.81,98.08c-.17,0-.33-.02-.49-.07-.16-.04-.31-.12-.44-.22-.14-.1-.25-.22-.35-.35-.1-.14-.18-.28-.24-.44v.98h-1.33v-8.82h1.33v3.56c.06-.16.14-.31.24-.44.1-.14.21-.25.35-.35.14-.1.28-.17.44-.22.16-.04.32-.07.49-.07.19,0,.38.03.57.09.19.06.36.15.5.28.15.12.27.27.37.44s.18.35.23.53c.06.18.09.37.11.57.02.2.03.39.03.58v1.44c0,.19-.01.39-.03.58s-.06.39-.11.57c-.06.18-.13.36-.23.53s-.22.32-.37.44c-.15.12-.32.22-.5.28-.19.06-.38.09-.57.09Zm-.55-1.15c.16,0,.31-.04.46-.11.15-.08.27-.18.35-.31.09-.13.15-.28.18-.44.03-.16.05-.32.05-.48v-1.44c0-.16-.02-.32-.05-.48-.03-.16-.09-.31-.18-.44-.09-.13-.21-.24-.35-.31-.15-.08-.3-.11-.46-.11-.1,0-.21.02-.31.05-.1.03-.19.08-.27.15-.08.07-.15.15-.2.24-.05.09-.09.19-.12.29-.03.1-.05.2-.06.31-.01.1-.02.21-.02.31v1.44c0,.1,0,.21.02.31.01.1.03.21.06.31.03.1.07.2.12.29.05.09.12.17.2.24.08.07.17.12.27.15.1.03.2.05.31.05Z" style="fill: #f07167;"/>
      <path d="m104.52,98.08c-.16,0-.32-.01-.47-.04s-.3-.08-.43-.16c-.14-.08-.25-.18-.35-.31-.1-.12-.18-.26-.24-.4-.06-.14-.1-.29-.13-.44-.02-.16-.04-.31-.04-.46,0-.22.03-.43.08-.64.05-.21.14-.4.26-.56s.28-.31.46-.43c.18-.12.37-.21.57-.28.2-.07.41-.12.62-.14.21-.03.42-.04.63-.04h.73v-.41c0-.14-.02-.27-.06-.39s-.11-.23-.2-.32c-.09-.09-.2-.16-.33-.2s-.26-.06-.4-.06c-.11,0-.23.01-.34.04-.12.03-.22.08-.32.15-.1.07-.17.16-.22.28-.05.11-.08.22-.08.34h-1.33c0-.18.03-.37.08-.55.05-.18.13-.36.23-.52s.23-.3.38-.42.32-.21.49-.28c.18-.07.36-.12.55-.14.19-.03.37-.04.56-.04.2,0,.4.01.6.04.2.03.39.08.57.16s.35.19.5.32c.15.13.28.28.38.46s.17.36.21.55c.04.2.06.39.06.59v4.21h-1.33v-.94c-.04.08-.07.13-.08.15-.01.02-.03.05-.05.08s-.05.07-.08.11c-.03.04-.06.07-.08.1-.03.03-.06.06-.09.1-.03.03-.06.06-.1.09-.03.03-.07.05-.1.08-.04.02-.07.05-.11.07s-.07.05-.11.07c-.04.02-.08.04-.12.05s-.08.03-.13.04c-.04.01-.09.02-.13.04-.04.01-.08.02-.13.02-.04,0-.09,0-.13.01h-.13s-.09.02-.13.02Zm.54-1.15c.15,0,.3-.02.45-.07s.28-.12.38-.22c.11-.1.19-.23.24-.37.05-.14.08-.29.08-.44v-.49h-.73c-.1,0-.19,0-.28.01-.09,0-.18.02-.28.05-.09.02-.18.05-.27.09s-.17.09-.24.15c-.07.06-.13.14-.16.23s-.05.18-.05.28c0,.11.02.22.06.32.04.1.1.19.19.27s.18.13.29.16c.11.03.22.04.33.04Z" style="fill: #f07167;"/>
      <path d="m109.63,97.99v-6.24h1.34v1.18c.05-.17.11-.33.2-.48.08-.15.18-.29.3-.41.12-.12.26-.22.42-.28.16-.06.33-.1.5-.1.15,0,.3.02.45.07.15.05.28.12.39.23.11.1.2.22.28.36.07.14.13.28.17.43.04.15.07.3.08.45.01.15.02.3.02.46h-1.34c0-.1,0-.19-.02-.29-.01-.1-.04-.19-.08-.27s-.1-.15-.19-.2c-.08-.05-.17-.08-.27-.08-.13,0-.25.04-.35.11s-.19.17-.26.28c-.06.11-.11.22-.15.35-.04.12-.06.25-.08.38s-.03.25-.04.38-.01.25-.01.38v3.31h-1.34Z" style="fill: #f07167;"/>
      <path d="m117.25,98.08c-.16,0-.32-.02-.47-.07-.15-.05-.28-.13-.4-.23-.11-.11-.19-.24-.23-.4s-.07-.31-.07-.46c0-.16.02-.32.07-.47s.12-.28.23-.4c.11-.11.24-.19.4-.24.15-.05.31-.07.47-.07s.32.02.47.07c.15.05.28.13.4.24.11.11.19.24.23.4.04.15.07.31.07.47s-.02.31-.07.46c-.04.16-.12.29-.23.4-.11.11-.24.19-.4.23-.15.05-.31.07-.47.07Z" style="fill: #f07167;"/>
      <path d="m120.96,100.57v-8.82h1.33v.98c.06-.16.14-.31.24-.44.1-.14.21-.25.35-.35.14-.1.28-.17.44-.22.16-.04.32-.07.49-.07.19,0,.38.03.57.09.19.06.36.15.5.28.15.12.27.27.37.44s.18.35.23.53c.06.18.09.37.11.57.02.2.03.39.03.58v1.44c0,.19-.01.39-.03.58s-.06.39-.11.57c-.06.18-.13.36-.23.53s-.22.32-.37.44c-.15.12-.32.22-.5.28-.19.06-.38.09-.57.09-.17,0-.33-.02-.49-.07-.16-.04-.31-.12-.44-.22-.14-.1-.25-.22-.35-.35-.1-.14-.18-.28-.24-.44v3.56h-1.33Zm2.3-3.64c.16,0,.31-.04.46-.11.15-.08.27-.18.35-.31.09-.13.15-.28.18-.44.03-.16.05-.32.05-.48v-1.44c0-.16-.02-.32-.05-.48-.03-.16-.09-.31-.18-.44-.09-.13-.21-.24-.35-.31-.15-.08-.3-.11-.46-.11-.1,0-.21.02-.31.05-.1.03-.19.08-.27.15-.08.07-.15.15-.2.24-.05.09-.09.19-.12.29-.03.1-.05.2-.06.31-.01.1-.02.21-.02.31v1.44c0,.1,0,.21.02.31.01.1.03.21.06.31.03.1.07.2.12.29.05.09.12.17.2.24.08.07.17.12.27.15.1.03.2.05.31.05Z" style="fill: #f07167;"/>
      <path d="m126.96,97.99v-6.24h1.33v.98c.06-.16.14-.31.24-.44.1-.14.21-.25.34-.35.13-.1.28-.17.44-.22.16-.04.32-.07.49-.07.19,0,.38.03.56.1.18.06.35.16.49.29.14.13.25.28.34.45s.16.35.21.53c.05.18.09.37.11.56.02.19.03.38.03.57v3.84h-1.33v-3.84c0-.1,0-.21-.02-.31-.01-.1-.03-.21-.06-.31-.03-.1-.07-.19-.12-.28-.05-.09-.12-.17-.19-.24-.08-.07-.16-.12-.26-.16-.1-.03-.2-.05-.31-.05s-.21.02-.31.05c-.1.03-.19.08-.26.16-.08.07-.14.15-.19.24-.05.09-.09.18-.12.28-.03.1-.05.2-.06.31-.01.1-.02.21-.02.31v3.84h-1.33Z" style="fill: #f07167;"/>
      <path d="m133.87,100.57v-1.15h1.58c.11,0,.22-.02.33-.07.11-.05.19-.12.26-.21s.11-.2.13-.31c.02-.12.04-.23.04-.34v-1.48c-.06.16-.14.31-.24.44-.1.14-.21.25-.35.35-.14.1-.28.17-.44.22-.16.04-.32.07-.49.07-.19,0-.38-.03-.57-.09-.19-.06-.36-.15-.5-.28s-.27-.27-.37-.44c-.1-.17-.18-.35-.23-.53-.06-.18-.09-.37-.11-.57s-.03-.39-.03-.58v-1.44c0-.19.01-.39.03-.58.02-.2.06-.39.11-.57s.13-.36.23-.53c.1-.17.22-.32.37-.44.15-.12.32-.22.5-.28.19-.06.38-.09.57-.09.17,0,.33.02.49.07.16.04.31.12.44.22.14.1.25.22.35.35.1.14.18.28.24.44v-.98h1.33v6.73c0,.18-.02.37-.05.56-.03.19-.09.37-.17.53s-.19.32-.32.45c-.13.13-.28.24-.45.32s-.35.14-.53.17c-.19.03-.37.05-.56.05h-1.58Zm1.37-3.64c.1,0,.21-.02.31-.05.1-.03.19-.08.27-.15.08-.07.15-.15.2-.24.05-.09.09-.19.12-.29.03-.1.05-.2.06-.31.01-.1.02-.21.02-.31v-1.44c0-.1,0-.21-.02-.31-.01-.1-.03-.21-.06-.31-.03-.1-.07-.2-.12-.29-.05-.09-.12-.17-.2-.24-.08-.07-.17-.12-.27-.15-.1-.03-.2-.05-.31-.05-.16,0-.31.04-.46.11s-.27.18-.35.31c-.09.13-.15.28-.18.44-.03.16-.05.32-.05.48v1.44c0,.16.02.32.05.48.03.16.09.31.18.44s.21.24.35.31.3.11.46.11Z" style="fill: #f07167;"/>
    </g>
    <g>
      <path d="m7.44,140.59l3.62-11.59h.96l-3.62,11.59h-.96Z" style="fill: #fff;"/>
      <path d="m13.44,138.88v-8.82h1.33v3.56c.06-.16.14-.31.24-.44.1-.14.21-.25.34-.35s.28-.17.44-.22c.16-.04.32-.07.49-.07.19,0,.38.03.56.1.18.06.35.16.49.29.14.13.25.28.34.45s.16.35.21.53c.05.18.09.37.11.56.02.19.03.38.03.57v3.84h-1.33v-3.84c0-.1,0-.21-.02-.31-.01-.1-.03-.21-.06-.31-.03-.1-.07-.19-.12-.28-.05-.09-.12-.17-.19-.24-.08-.07-.16-.12-.26-.16-.1-.03-.2-.05-.31-.05s-.21.02-.31.05c-.1.03-.19.08-.26.16-.08.07-.14.15-.19.24-.05.09-.09.18-.12.28-.03.1-.05.2-.06.31-.01.1-.02.21-.02.31v3.84h-1.33Z" style="fill: #f07167;"/>
      <path d="m21.73,138.97c-.22,0-.43-.02-.65-.06-.22-.04-.43-.11-.62-.22-.19-.1-.36-.24-.51-.4s-.27-.34-.36-.54c-.09-.2-.16-.4-.19-.62s-.05-.44-.05-.65v-1.44c0-.22.02-.43.05-.65s.1-.43.19-.62c.09-.2.21-.38.36-.54.15-.16.32-.3.51-.4.19-.1.4-.18.62-.22.22-.04.44-.06.65-.06s.43.02.65.06c.22.04.43.11.62.22.19.1.36.24.51.4.15.16.27.34.36.54.09.2.16.4.19.62s.05.44.05.65v1.44c0,.21-.02.43-.05.65s-.1.43-.19.62c-.09.2-.21.38-.36.54-.15.16-.32.3-.51.4-.19.1-.4.18-.62.22-.22.04-.44.06-.65.06Zm0-1.15c.16,0,.31-.04.46-.11.15-.07.27-.18.36-.31.09-.14.15-.28.19-.44.03-.16.05-.32.05-.48v-1.44c0-.16-.02-.32-.05-.48-.03-.16-.09-.31-.19-.45-.09-.13-.21-.24-.36-.31-.15-.07-.3-.11-.46-.11s-.31.04-.46.11c-.15.07-.27.18-.36.31-.09.14-.15.29-.19.45-.03.16-.05.32-.05.48v1.44c0,.16.02.32.05.48.03.16.09.31.19.44.09.14.21.24.36.31.15.07.3.11.46.11Z" style="fill: #f07167;"/>
      <path d="m25.2,138.88v-6.24h1.24v.53c.04-.09.09-.17.14-.25.05-.08.11-.14.19-.2.07-.06.15-.1.25-.13s.19-.04.28-.04c.12,0,.24.02.35.07.11.05.21.12.29.2.08.08.15.18.2.29.05.11.09.22.13.34.02-.11.06-.22.11-.34.05-.11.12-.21.2-.29s.18-.15.29-.2c.11-.05.23-.07.35-.07s.24.03.36.08.22.13.31.22.15.2.2.32c.05.12.09.24.11.36.03.12.05.25.06.37.01.12.02.25.02.38v4.61h-1.24v-4.61c0-.07,0-.14-.01-.21,0-.07-.02-.13-.04-.2-.02-.06-.06-.12-.11-.18-.05-.06-.11-.08-.17-.08-.07,0-.13.03-.18.08-.05.06-.08.12-.11.18-.02.06-.04.13-.05.2,0,.07-.01.14-.01.21v4.61h-1.22v-4.61c0-.07,0-.14-.01-.21,0-.07-.02-.13-.05-.2-.02-.06-.06-.12-.11-.18-.05-.06-.11-.08-.18-.08-.06,0-.12.03-.17.08-.05.06-.09.12-.11.18-.02.06-.03.13-.04.2,0,.07-.01.14-.01.21v4.61h-1.24Z" style="fill: #f07167;"/>
      <path d="m33.75,138.97c-.22,0-.43-.02-.65-.06-.22-.04-.43-.11-.62-.22-.19-.1-.36-.24-.52-.4-.15-.16-.28-.34-.37-.54-.1-.2-.16-.41-.2-.63s-.05-.44-.05-.65v-1.44c0-.22.02-.43.05-.65s.1-.43.19-.62c.09-.2.21-.38.36-.54.15-.16.32-.3.51-.4.19-.1.4-.18.62-.22.22-.04.44-.06.65-.06s.43.02.65.06c.22.04.43.11.62.22.19.1.36.24.51.4.15.16.27.34.36.54.09.2.16.4.19.62s.05.44.05.65v1.3h-3.44v.14c0,.16.02.32.05.49.04.16.1.31.19.44.09.13.21.23.37.31.15.07.31.11.47.11.12,0,.24-.01.35-.04.12-.02.22-.07.32-.13.1-.06.17-.15.23-.25.06-.1.09-.22.1-.34h1.33c0,.19-.04.38-.1.55-.06.18-.14.34-.25.5-.11.16-.24.29-.39.4-.15.11-.32.21-.49.28s-.36.12-.54.14c-.18.02-.37.04-.56.04Zm-1.08-3.79h2.11v-.14c0-.16-.02-.32-.05-.48-.03-.16-.09-.31-.19-.45-.09-.13-.21-.24-.36-.31-.15-.07-.3-.11-.46-.11s-.31.04-.46.11c-.15.07-.27.18-.36.31-.09.14-.15.29-.19.45-.03.16-.05.32-.05.48v.14Z" style="fill: #f07167;"/>
      <path d="m37.33,140.59l3.43-11.59h1.37l-3.43,11.59h-1.37Z" style="fill: #f07167;"/>
      <path d="m46.29,138.97c-.17,0-.33-.02-.49-.07-.16-.04-.31-.12-.44-.22-.14-.1-.25-.22-.35-.35-.1-.14-.18-.28-.24-.44v.98h-1.33v-8.82h1.33v3.56c.06-.16.14-.31.24-.44.1-.14.21-.25.35-.35s.28-.17.44-.22c.16-.04.32-.07.49-.07.19,0,.38.03.57.09s.36.15.5.28c.15.12.27.27.37.44s.18.35.23.53c.06.18.09.37.11.57s.03.39.03.58v1.44c0,.19-.01.38-.03.58-.02.2-.06.38-.11.57-.06.18-.13.36-.23.53s-.22.32-.37.44c-.15.12-.32.22-.5.28s-.38.09-.57.09Zm-.55-1.15c.16,0,.31-.04.46-.11.15-.08.27-.18.35-.31.09-.13.15-.28.18-.44.03-.16.05-.32.05-.48v-1.44c0-.16-.02-.32-.05-.48-.03-.16-.09-.31-.18-.44-.09-.13-.21-.24-.35-.31-.15-.08-.3-.12-.46-.12-.1,0-.21.02-.31.05-.1.03-.19.08-.27.15-.08.07-.15.15-.2.24-.05.09-.09.19-.12.29-.03.1-.05.2-.06.31-.01.1-.02.21-.02.31v1.44c0,.1,0,.21.02.31.01.1.03.21.06.31.03.1.07.2.12.29.05.09.12.17.2.24s.17.12.27.15c.1.03.2.05.31.05Z" style="fill: #f07167;"/>
      <path d="m51,138.97c-.16,0-.32-.01-.47-.04-.15-.03-.3-.08-.43-.16-.14-.08-.25-.18-.35-.31-.1-.12-.18-.26-.24-.4-.06-.14-.1-.29-.13-.44-.02-.16-.04-.31-.04-.46,0-.22.03-.43.08-.64s.14-.4.26-.56.28-.31.46-.43c.18-.12.37-.21.57-.28.2-.07.41-.12.62-.14.21-.03.42-.04.63-.04h.73v-.41c0-.14-.02-.27-.06-.39-.04-.12-.11-.23-.2-.32-.09-.09-.2-.16-.33-.2s-.26-.06-.4-.06c-.11,0-.23.01-.34.04-.12.03-.22.08-.32.15-.1.07-.17.16-.22.28-.05.11-.08.22-.08.34h-1.33c0-.18.03-.37.08-.55.05-.18.13-.36.23-.52s.23-.3.38-.42c.15-.12.32-.21.49-.28.18-.07.36-.12.55-.14s.37-.04.56-.04c.2,0,.4.01.6.04.2.03.39.08.57.16s.35.19.5.32c.15.13.28.28.38.46s.17.36.21.55c.04.2.06.39.06.59v4.21h-1.33v-.94c-.04.08-.07.13-.08.15-.01.02-.03.05-.05.08-.02.04-.05.07-.08.11-.03.04-.06.07-.08.1-.03.03-.06.06-.09.1-.03.03-.06.06-.1.09-.03.03-.07.05-.1.08-.04.02-.07.05-.11.07-.04.02-.07.04-.11.07s-.08.04-.12.05-.08.03-.13.04c-.04.01-.09.02-.13.04-.04.01-.08.02-.13.02-.04,0-.09,0-.13.01h-.13s-.09.02-.13.02Zm.54-1.15c.15,0,.3-.02.45-.07s.28-.12.38-.22c.11-.1.19-.23.24-.37.05-.14.08-.29.08-.44v-.49h-.73c-.1,0-.19,0-.28.01-.09,0-.18.02-.28.05s-.18.05-.27.09-.17.09-.24.15c-.07.06-.13.14-.16.23s-.05.18-.05.28c0,.11.02.22.06.32.04.1.1.19.19.27s.18.13.29.16c.11.03.22.04.33.04Z" style="fill: #f07167;"/>
      <path d="m56.11,138.88v-6.24h1.34v1.18c.05-.17.11-.33.2-.48s.18-.29.3-.41c.12-.12.26-.22.42-.28.16-.06.33-.1.5-.1.15,0,.3.02.45.07.15.05.28.12.39.23.11.1.2.22.28.36.07.14.13.28.17.43s.07.3.08.45c.01.15.02.3.02.46h-1.34c0-.1,0-.19-.02-.29-.01-.1-.04-.19-.08-.27s-.1-.15-.19-.21c-.08-.05-.17-.08-.27-.08-.13,0-.25.04-.35.12s-.19.17-.26.28c-.06.11-.11.22-.15.35-.04.12-.06.25-.08.38-.02.13-.03.25-.04.38,0,.12-.01.25-.01.38v3.31h-1.34Z" style="fill: #f07167;"/>
      <path d="m61.33,140.59l3.43-11.59h1.37l-3.43,11.59h-1.37Z" style="fill: #f07167;"/>
      <path d="m68.87,138.88v-4.6h-1.43v-1.15h1.43v-1.21c0-.17.01-.33.04-.5.03-.16.08-.32.15-.47.07-.15.17-.29.29-.41.12-.12.25-.22.4-.29s.31-.12.47-.15c.17-.03.33-.04.49-.04h1.31v1.15h-1.31c-.08,0-.16.02-.23.06-.08.04-.13.1-.17.17-.04.07-.07.15-.08.23-.02.08-.02.16-.02.25v1.21h1.82v1.15h-1.82v4.6h-1.33Z" style="fill: #f07167;"/>
      <path d="m75.36,138.88v-5.09h-1.43v-1.15h2.76v6.24h-1.33Zm.67-7.08c-.13,0-.26-.02-.38-.06-.13-.04-.24-.1-.32-.19-.09-.09-.15-.2-.19-.32-.04-.13-.06-.26-.06-.38s.02-.26.06-.38.1-.24.19-.32c.09-.09.2-.15.32-.19.13-.04.26-.06.38-.06s.26.02.38.06c.13.04.24.1.32.19.09.09.15.2.19.32.04.13.06.26.06.38s-.02.26-.06.38c-.04.13-.1.24-.19.32-.09.09-.2.15-.32.19-.13.04-.26.06-.38.06Z" style="fill: #f07167;"/>
      <path d="m80.96,138.88l-.6-2.08-1.19-4.16h1.39l1.07,4.16c.02.06.03.13.05.19.02.06.03.13.05.19.02-.06.03-.13.05-.19s.03-.13.05-.19l1.07-4.16h1.39l-1.79,6.24h-1.54Z" style="fill: #f07167;"/>
      <path d="m87.75,138.97c-.22,0-.43-.02-.65-.06-.22-.04-.43-.11-.62-.22-.19-.1-.36-.24-.52-.4-.15-.16-.28-.34-.37-.54-.1-.2-.16-.41-.2-.63s-.05-.44-.05-.65v-1.44c0-.22.02-.43.05-.65s.1-.43.19-.62c.09-.2.21-.38.36-.54.15-.16.32-.3.51-.4.19-.1.4-.18.62-.22.22-.04.44-.06.65-.06s.43.02.65.06c.22.04.43.11.62.22.19.1.36.24.51.4.15.16.27.34.36.54.09.2.16.4.19.62s.05.44.05.65v1.3h-3.44v.14c0,.16.02.32.05.49.04.16.1.31.19.44.09.13.21.23.37.31.15.07.31.11.47.11.12,0,.24-.01.35-.04.12-.02.22-.07.32-.13.1-.06.17-.15.23-.25.06-.1.09-.22.1-.34h1.33c0,.19-.04.38-.1.55-.06.18-.14.34-.25.5-.11.16-.24.29-.39.4-.15.11-.32.21-.49.28s-.36.12-.54.14c-.18.02-.37.04-.56.04Zm-1.08-3.79h2.11v-.14c0-.16-.02-.32-.05-.48-.03-.16-.09-.31-.19-.45-.09-.13-.21-.24-.36-.31-.15-.07-.3-.11-.46-.11s-.31.04-.46.11c-.15.07-.27.18-.36.31-.09.14-.15.29-.19.45-.03.16-.05.32-.05.48v.14Z" style="fill: #f07167;"/>
      <path d="m93.73,138.97c-.16,0-.32-.03-.47-.07-.15-.05-.28-.13-.4-.23-.11-.11-.19-.24-.23-.4s-.07-.31-.07-.46c0-.16.02-.32.07-.47s.12-.28.23-.4c.11-.11.24-.19.4-.24.15-.05.31-.07.47-.07s.32.02.47.07c.15.05.28.13.4.24.11.11.19.24.23.4.04.15.07.31.07.47,0,.15-.02.3-.07.46-.04.16-.12.29-.23.4-.11.11-.24.19-.4.23-.15.05-.31.07-.47.07Z" style="fill: #f07167;"/>
      <path d="m97.44,141.46v-8.82h1.33v.98c.06-.16.14-.31.24-.44.1-.14.21-.25.35-.35s.28-.17.44-.22c.16-.04.32-.07.49-.07.19,0,.38.03.57.09s.36.15.5.28c.15.12.27.27.37.44s.18.35.23.53c.06.18.09.37.11.57s.03.39.03.58v1.44c0,.19-.01.38-.03.58-.02.2-.06.38-.11.57-.06.18-.13.36-.23.53s-.22.32-.37.44c-.15.12-.32.22-.5.28s-.38.09-.57.09c-.17,0-.33-.02-.49-.07-.16-.04-.31-.12-.44-.22-.14-.1-.25-.22-.35-.35-.1-.14-.18-.28-.24-.44v3.56h-1.33Zm2.3-3.64c.16,0,.31-.04.46-.11.15-.08.27-.18.35-.31.09-.13.15-.28.18-.44.03-.16.05-.32.05-.48v-1.44c0-.16-.02-.32-.05-.48-.03-.16-.09-.31-.18-.44-.09-.13-.21-.24-.35-.31-.15-.08-.3-.12-.46-.12-.1,0-.21.02-.31.05-.1.03-.19.08-.27.15-.08.07-.15.15-.2.24-.05.09-.09.19-.12.29-.03.1-.05.2-.06.31-.01.1-.02.21-.02.31v1.44c0,.1,0,.21.02.31.01.1.03.21.06.31.03.1.07.2.12.29.05.09.12.17.2.24s.17.12.27.15c.1.03.2.05.31.05Z" style="fill: #f07167;"/>
      <path d="m103.44,138.88v-6.24h1.33v.98c.06-.16.14-.31.24-.44.1-.14.21-.25.34-.35s.28-.17.44-.22c.16-.04.32-.07.49-.07.19,0,.38.03.56.1.18.06.35.16.49.29.14.13.25.28.34.45s.16.35.21.53c.05.18.09.37.11.56.02.19.03.38.03.57v3.84h-1.33v-3.84c0-.1,0-.21-.02-.31-.01-.1-.03-.21-.06-.31-.03-.1-.07-.19-.12-.28-.05-.09-.12-.17-.19-.24-.08-.07-.16-.12-.26-.16-.1-.03-.2-.05-.31-.05s-.21.02-.31.05c-.1.03-.19.08-.26.16-.08.07-.14.15-.19.24-.05.09-.09.18-.12.28-.03.1-.05.2-.06.31-.01.1-.02.21-.02.31v3.84h-1.33Z" style="fill: #f07167;"/>
      <path d="m110.35,141.46v-1.15h1.58c.11,0,.22-.03.33-.07.11-.05.19-.12.26-.21s.11-.2.13-.31c.02-.12.04-.23.04-.34v-1.48c-.06.16-.14.31-.24.44-.1.14-.21.25-.35.35-.14.1-.28.17-.44.22-.16.04-.32.07-.49.07-.19,0-.38-.03-.57-.09-.19-.06-.36-.15-.5-.28-.15-.12-.27-.27-.37-.44-.1-.17-.18-.35-.23-.53s-.09-.37-.11-.57c-.02-.2-.03-.39-.03-.58v-1.44c0-.19.01-.39.03-.58s.06-.39.11-.57c.06-.18.13-.36.23-.53.1-.17.22-.32.37-.44s.32-.22.5-.28c.19-.06.38-.09.57-.09.17,0,.33.02.49.07.16.04.31.12.44.22.14.1.25.22.35.35.1.14.18.28.24.44v-.98h1.33v6.73c0,.18-.02.37-.05.56-.03.19-.09.37-.17.53s-.19.32-.32.45c-.13.13-.28.24-.45.32s-.35.14-.53.17c-.19.03-.37.05-.56.05h-1.58Zm1.37-3.64c.1,0,.21-.02.31-.05.1-.03.19-.08.27-.15s.15-.15.2-.24c.05-.09.09-.19.12-.29.03-.1.05-.2.06-.31.01-.1.02-.21.02-.31v-1.44c0-.1,0-.21-.02-.31-.01-.1-.03-.21-.06-.31-.03-.1-.07-.2-.12-.29-.05-.09-.12-.17-.2-.24-.08-.07-.17-.12-.27-.15-.1-.03-.2-.05-.31-.05-.16,0-.31.04-.46.12s-.27.18-.35.31-.15.28-.18.44c-.03.16-.05.32-.05.48v1.44c0,.16.02.32.05.48.03.16.09.31.18.44.09.13.21.24.35.31s.3.11.46.11Z" style="fill: #f07167;"/>
    </g>
    <g>
      <path d="m7.44,181.7l3.62-11.59h.96l-3.62,11.59h-.96Z" style="fill: #fff;"/>
      <path d="m14.87,179.98v-4.6h-1.43v-1.15h1.43v-1.21c0-.17.01-.33.04-.5.03-.16.08-.32.15-.47.07-.15.17-.29.29-.41.12-.12.25-.22.4-.29s.31-.12.47-.15.33-.04.49-.04h1.31v1.15h-1.31c-.08,0-.16.02-.23.06s-.13.1-.17.17c-.04.07-.07.15-.08.23-.02.08-.02.16-.02.25v1.21h1.82v1.15h-1.82v4.6h-1.33Z" style="fill: #f07167;"/>
      <path d="m21.36,179.98v-5.09h-1.43v-1.15h2.76v6.24h-1.33Zm.67-7.08c-.13,0-.26-.02-.38-.06s-.24-.1-.32-.19c-.09-.09-.15-.2-.19-.32s-.06-.26-.06-.38.02-.26.06-.38c.04-.13.1-.24.19-.32.09-.09.2-.15.32-.19s.26-.06.38-.06.26.02.38.06.24.1.32.19.15.2.19.32c.04.13.06.26.06.38s-.02.26-.06.38c-.04.13-.1.24-.19.32s-.2.15-.32.19-.26.06-.38.06Z" style="fill: #f07167;"/>
      <path d="m26.96,179.98l-.6-2.08-1.19-4.16h1.39l1.07,4.16c.02.06.03.13.05.19.02.06.03.13.05.19.02-.06.03-.13.05-.19.02-.06.03-.13.05-.19l1.07-4.16h1.39l-1.79,6.24h-1.54Z" style="fill: #f07167;"/>
      <path d="m33.75,180.08c-.22,0-.43-.02-.65-.06-.22-.04-.43-.11-.62-.22-.19-.1-.36-.24-.52-.4s-.28-.34-.37-.54c-.1-.2-.16-.41-.2-.63-.04-.22-.05-.44-.05-.65v-1.44c0-.22.02-.43.05-.65.04-.22.1-.43.19-.62.09-.2.21-.38.36-.54s.32-.3.51-.4.4-.18.62-.22c.22-.04.44-.06.65-.06s.43.02.65.06c.22.04.43.11.62.22s.36.24.51.4c.15.16.27.34.36.54.09.2.16.4.19.62.04.22.05.44.05.65v1.29h-3.44v.14c0,.16.02.32.05.49s.1.31.19.44c.09.13.21.23.37.31.15.07.31.11.47.11.12,0,.24-.01.35-.04.12-.03.22-.07.32-.13.1-.06.17-.15.23-.25s.09-.22.1-.34h1.33c0,.19-.04.38-.1.55-.06.18-.14.34-.25.5-.11.16-.24.29-.39.4-.15.11-.32.2-.49.28-.18.07-.36.12-.54.14s-.37.04-.56.04Zm-1.08-3.79h2.11v-.14c0-.16-.02-.32-.05-.48-.03-.16-.09-.31-.19-.44-.09-.14-.21-.24-.36-.31s-.3-.11-.46-.11-.31.04-.46.11c-.15.07-.27.18-.36.31-.09.14-.15.28-.19.44-.03.16-.05.32-.05.48v.14Z" style="fill: #f07167;"/>
      <path d="m39.73,180.08c-.16,0-.32-.02-.47-.07-.15-.05-.28-.13-.4-.23-.11-.11-.19-.24-.23-.4-.04-.16-.07-.31-.07-.46,0-.16.02-.32.07-.47.04-.15.12-.28.23-.4.11-.11.24-.19.4-.24.15-.05.31-.07.47-.07s.32.02.47.07c.15.05.28.13.4.24.11.11.19.24.23.4.04.15.07.31.07.47s-.02.31-.07.46c-.04.16-.12.29-.23.4-.11.11-.24.19-.4.23-.15.05-.31.07-.47.07Z" style="fill: #f07167;"/>
      <path d="m43.44,182.56v-8.82h1.33v.98c.06-.16.14-.31.24-.45.1-.13.21-.25.35-.35s.28-.17.44-.22c.16-.04.32-.07.49-.07.19,0,.38.03.57.09.19.06.36.15.5.28.15.12.27.27.37.44s.18.35.23.53c.06.18.09.37.11.57.02.2.03.39.03.58v1.44c0,.19-.01.39-.03.58-.02.2-.06.39-.11.57-.06.18-.13.36-.23.53s-.22.32-.37.44c-.15.12-.32.22-.5.28-.19.06-.38.09-.57.09-.17,0-.33-.02-.49-.07-.16-.04-.31-.12-.44-.22s-.25-.22-.35-.35c-.1-.13-.18-.28-.24-.44v3.56h-1.33Zm2.3-3.64c.16,0,.31-.04.46-.11.15-.08.27-.18.35-.31.09-.13.15-.28.18-.44.03-.16.05-.32.05-.48v-1.44c0-.16-.02-.32-.05-.48-.03-.16-.09-.31-.18-.44-.09-.13-.21-.24-.35-.31-.15-.08-.3-.11-.46-.11-.1,0-.21.02-.31.05-.1.03-.19.08-.27.15s-.15.15-.2.24c-.05.09-.09.19-.12.29-.03.1-.05.2-.06.31-.01.1-.02.21-.02.31v1.44c0,.1,0,.21.02.31.01.1.03.21.06.3.03.1.07.2.12.29.05.09.12.17.2.24.08.07.17.12.27.15s.2.05.31.05Z" style="fill: #f07167;"/>
      <path d="m49.44,179.98v-6.24h1.33v.98c.06-.16.14-.31.24-.45.1-.13.21-.25.34-.35s.28-.17.44-.22c.16-.04.32-.07.49-.07.19,0,.38.03.56.1.18.06.35.16.49.29.14.13.25.28.34.45s.16.35.21.53c.05.18.09.37.11.56.02.19.03.38.03.57v3.84h-1.33v-3.84c0-.1,0-.21-.02-.31-.01-.1-.03-.21-.06-.31-.03-.1-.07-.19-.12-.28-.05-.09-.12-.17-.19-.24s-.16-.12-.26-.16c-.1-.03-.2-.05-.31-.05s-.21.02-.31.05c-.1.03-.19.08-.26.16-.08.07-.14.15-.19.24-.05.09-.09.18-.12.28-.03.1-.05.2-.06.31-.01.1-.02.21-.02.31v3.84h-1.33Z" style="fill: #f07167;"/>
      <path d="m56.35,182.56v-1.15h1.58c.11,0,.22-.02.33-.07.11-.05.19-.12.26-.21.06-.09.11-.2.13-.31.02-.12.04-.23.04-.34v-1.48c-.06.16-.14.31-.24.44-.1.14-.21.25-.35.35-.14.1-.28.17-.44.22-.16.04-.32.07-.49.07-.19,0-.38-.03-.57-.09-.19-.06-.36-.15-.5-.28s-.27-.27-.37-.44c-.1-.17-.18-.35-.23-.53-.06-.18-.09-.38-.11-.57-.02-.2-.03-.39-.03-.58v-1.44c0-.19.01-.39.03-.58.02-.2.06-.39.11-.57s.13-.36.23-.53c.1-.17.22-.32.37-.44.15-.12.32-.22.5-.28.19-.06.38-.09.57-.09.17,0,.33.02.49.07.16.04.31.12.44.22.14.1.25.22.35.35.1.14.18.29.24.45v-.98h1.33v6.73c0,.18-.02.37-.05.56-.03.19-.09.37-.17.54s-.19.32-.32.45c-.13.13-.28.24-.45.32s-.35.14-.53.17c-.19.03-.37.05-.56.05h-1.58Zm1.37-3.64c.1,0,.21-.02.31-.05s.19-.08.27-.15c.08-.07.15-.15.2-.24.05-.09.09-.19.12-.29.03-.1.05-.2.06-.3.01-.1.02-.21.02-.31v-1.44c0-.1,0-.21-.02-.31-.01-.1-.03-.21-.06-.31-.03-.1-.07-.2-.12-.29-.05-.09-.12-.17-.2-.24s-.17-.12-.27-.15c-.1-.03-.2-.05-.31-.05-.16,0-.31.04-.46.11s-.27.18-.35.31c-.09.13-.15.28-.18.44-.03.16-.05.32-.05.48v1.44c0,.16.02.32.05.48.03.16.09.31.18.44s.21.24.35.31.3.11.46.11Z" style="fill: #f07167;"/>
    </g>
    <path d="m222.46,122.89c-9.23,0-10.53,5.59-10.53,9.62,0,3.51.52,7.02,1.04,10.53.52,3.51,1.04,7.15,1.04,10.66,0,13.13-8.19,17.81-18.85,17.81h-2.73v-7.15h2.21c7.28-.13,10.4-4.03,10.4-11.31,0-3.12-.52-6.11-.91-9.36-.52-3.12-1.04-6.37-1.04-9.88,0-8.32,3.64-12.74,9.36-14.17v-.26c-5.72-1.56-9.36-5.72-9.36-14.04,0-3.51.52-6.63,1.04-9.88.39-3.12.91-6.24.91-9.23,0-7.02-2.73-11.05-10.27-11.18h-2.34v-7.15h2.6c11.05,0,18.98,5.07,18.98,17.03,0,3.64-.52,7.15-1.04,10.79-.52,3.64-1.04,7.28-1.04,10.92,0,4.55,1.3,9.62,10.53,9.62v6.63Z" style="fill: #1982c4;"/>
    <g>
      <path d="m118.77,17.42v-8.82h1.87c.25,0,.49.02.74.06s.48.11.7.22c.22.1.43.24.61.41s.33.37.45.59c.12.22.2.45.24.7s.07.49.07.74v3.4c0,.25-.02.49-.07.74s-.12.48-.24.7c-.12.22-.27.42-.45.59-.18.17-.39.31-.61.41-.22.1-.46.18-.7.22s-.49.06-.74.06h-1.87Zm1.33-1.15h.54c.14,0,.27-.01.41-.04.14-.03.26-.07.38-.14.12-.06.22-.15.31-.25.09-.1.17-.21.22-.34s.1-.25.12-.39.04-.27.04-.41v-3.4c0-.14-.01-.27-.04-.41-.02-.14-.06-.27-.12-.39s-.13-.24-.22-.34c-.09-.1-.2-.18-.31-.25-.12-.06-.24-.11-.38-.14-.14-.03-.27-.04-.41-.04h-.54v6.52Z" style="fill: #f07167;"/>
      <path d="m127.06,17.51c-.22,0-.43-.02-.65-.06-.22-.04-.43-.11-.62-.22-.19-.1-.36-.24-.51-.4s-.27-.34-.36-.54-.16-.4-.19-.62c-.04-.22-.05-.44-.05-.65v-1.44c0-.22.02-.43.05-.65.04-.22.1-.43.19-.62.09-.2.21-.38.36-.54s.32-.3.51-.4c.19-.1.4-.18.62-.22.22-.04.44-.06.65-.06s.43.02.65.06c.22.04.43.11.62.22.19.1.36.24.51.4.15.16.27.34.36.54.09.2.16.4.19.62.04.22.05.44.05.65v1.44c0,.22-.02.43-.05.65-.04.22-.1.43-.19.62-.09.2-.21.38-.36.54-.15.16-.32.3-.51.4-.19.1-.4.18-.62.22-.22.04-.44.06-.65.06Zm0-1.15c.16,0,.31-.04.46-.11s.27-.18.36-.31c.09-.14.15-.28.19-.44.03-.16.05-.32.05-.48v-1.44c0-.16-.02-.32-.05-.48-.03-.16-.09-.31-.19-.44-.09-.14-.21-.24-.36-.31s-.3-.11-.46-.11-.31.04-.46.11c-.15.07-.27.18-.36.31-.09.14-.15.28-.19.44-.03.16-.05.32-.05.48v1.44c0,.16.02.32.05.48.03.16.09.31.19.44.09.14.21.24.36.31.15.07.3.11.46.11Z" style="fill: #f07167;"/>
      <path d="m136.77,17.42v-6.24h1.33v.98c.06-.16.14-.31.24-.44.1-.14.21-.25.34-.35.13-.1.28-.17.44-.22.16-.04.32-.07.49-.07.19,0,.38.03.56.1.18.06.35.16.49.29.14.13.25.28.34.45s.16.35.21.53c.05.18.09.37.11.56.02.19.03.38.03.57v3.84h-1.33v-3.84c0-.1,0-.21-.02-.31-.01-.1-.03-.21-.06-.31-.03-.1-.07-.19-.12-.28-.05-.09-.12-.17-.19-.24-.08-.07-.16-.12-.26-.16-.1-.03-.2-.05-.31-.05s-.21.02-.31.05-.19.08-.26.16c-.08.07-.14.15-.19.24-.05.09-.09.18-.12.28-.03.1-.05.2-.06.31-.01.1-.02.21-.02.31v3.84h-1.33Z" style="fill: #f07167;"/>
      <path d="m145.06,17.51c-.22,0-.43-.02-.65-.06-.22-.04-.43-.11-.62-.22-.19-.1-.36-.24-.51-.4s-.27-.34-.36-.54-.16-.4-.19-.62c-.04-.22-.05-.44-.05-.65v-1.44c0-.22.02-.43.05-.65.04-.22.1-.43.19-.62.09-.2.21-.38.36-.54s.32-.3.51-.4c.19-.1.4-.18.62-.22.22-.04.44-.06.65-.06s.43.02.65.06c.22.04.43.11.62.22.19.1.36.24.51.4.15.16.27.34.36.54.09.2.16.4.19.62.04.22.05.44.05.65v1.44c0,.22-.02.43-.05.65-.04.22-.1.43-.19.62-.09.2-.21.38-.36.54-.15.16-.32.3-.51.4-.19.1-.4.18-.62.22-.22.04-.44.06-.65.06Zm0-1.15c.16,0,.31-.04.46-.11s.27-.18.36-.31c.09-.14.15-.28.19-.44.03-.16.05-.32.05-.48v-1.44c0-.16-.02-.32-.05-.48-.03-.16-.09-.31-.19-.44-.09-.14-.21-.24-.36-.31s-.3-.11-.46-.11-.31.04-.46.11c-.15.07-.27.18-.36.31-.09.14-.15.28-.19.44-.03.16-.05.32-.05.48v1.44c0,.16.02.32.05.48.03.16.09.31.19.44.09.14.21.24.36.31.15.07.3.11.46.11Z" style="fill: #f07167;"/>
      <path d="m152.04,17.42c-.16,0-.32-.01-.49-.04s-.33-.08-.47-.15c-.15-.07-.28-.17-.4-.29-.12-.12-.22-.26-.29-.41-.07-.15-.12-.31-.15-.47-.03-.16-.04-.33-.04-.5v-3.23h-1.43v-1.15h1.43v-2.58h1.33v2.58h1.82v1.15h-1.82v3.23c0,.09,0,.17.02.25.02.08.04.16.08.23.04.07.1.13.17.17s.15.06.23.06h1.31v1.15h-1.31Z" style="fill: #f07167;"/>
      <path d="m162.5,17.51c-.19,0-.38-.03-.57-.09-.19-.06-.36-.15-.5-.28s-.27-.27-.37-.44c-.1-.17-.18-.35-.23-.53-.06-.18-.09-.37-.11-.57-.02-.2-.03-.39-.03-.58v-1.44c0-.19.01-.39.03-.58s.06-.39.11-.57c.06-.18.13-.36.23-.53.1-.17.22-.32.37-.44s.32-.22.5-.28c.19-.06.38-.09.57-.09.17,0,.33.02.49.07.16.04.31.12.44.22.14.1.25.22.35.35.1.14.18.28.24.44v-3.56h1.33v8.82h-1.33v-.98c-.06.16-.14.31-.24.44-.1.14-.21.25-.35.35-.14.1-.28.17-.44.22-.16.04-.32.07-.49.07Zm.55-1.15c.1,0,.21-.02.31-.05.1-.03.19-.08.27-.15s.15-.15.2-.24c.05-.09.09-.19.12-.29.03-.1.05-.2.06-.31.01-.1.02-.21.02-.31v-1.44c0-.1,0-.21-.02-.31-.01-.1-.03-.21-.06-.31-.03-.1-.07-.2-.12-.29-.05-.09-.12-.17-.2-.24-.08-.07-.17-.12-.27-.15s-.2-.05-.31-.05c-.16,0-.31.04-.46.11-.15.08-.27.18-.35.31s-.15.28-.18.44c-.03.16-.05.32-.05.48v1.44c0,.16.02.32.05.48.03.16.09.31.18.44.09.13.21.24.35.31s.3.11.46.11Z" style="fill: #f07167;"/>
      <path d="m169.06,17.51c-.22,0-.43-.02-.65-.06-.22-.04-.43-.11-.62-.22-.19-.1-.36-.24-.51-.4s-.27-.34-.36-.54-.16-.4-.19-.62c-.04-.22-.05-.44-.05-.65v-1.44c0-.22.02-.43.05-.65.04-.22.1-.43.19-.62.09-.2.21-.38.36-.54s.32-.3.51-.4c.19-.1.4-.18.62-.22.22-.04.44-.06.65-.06s.43.02.65.06c.22.04.43.11.62.22.19.1.36.24.51.4.15.16.27.34.36.54.09.2.16.4.19.62.04.22.05.44.05.65v1.44c0,.22-.02.43-.05.65-.04.22-.1.43-.19.62-.09.2-.21.38-.36.54-.15.16-.32.3-.51.4-.19.1-.4.18-.62.22-.22.04-.44.06-.65.06Zm0-1.15c.16,0,.31-.04.46-.11s.27-.18.36-.31c.09-.14.15-.28.19-.44.03-.16.05-.32.05-.48v-1.44c0-.16-.02-.32-.05-.48-.03-.16-.09-.31-.19-.44-.09-.14-.21-.24-.36-.31s-.3-.11-.46-.11-.31.04-.46.11c-.15.07-.27.18-.36.31-.09.14-.15.28-.19.44-.03.16-.05.32-.05.48v1.44c0,.16.02.32.05.48.03.16.09.31.19.44.09.14.21.24.36.31.15.07.3.11.46.11Z" style="fill: #f07167;"/>
      <path d="m182.04,17.42c-.16,0-.32-.01-.49-.04s-.33-.08-.47-.15c-.15-.07-.28-.17-.4-.29-.12-.12-.22-.26-.29-.41-.07-.15-.12-.31-.15-.47-.03-.16-.04-.33-.04-.5v-3.23h-1.43v-1.15h1.43v-2.58h1.33v2.58h1.82v1.15h-1.82v3.23c0,.09,0,.17.02.25.02.08.04.16.08.23.04.07.1.13.17.17s.15.06.23.06h1.31v1.15h-1.31Z" style="fill: #f07167;"/>
      <path d="m184.77,17.42v-8.82h1.33v3.56c.06-.16.14-.31.24-.44.1-.14.21-.25.34-.35.13-.1.28-.17.44-.22.16-.04.32-.07.49-.07.19,0,.38.03.56.1.18.06.35.16.49.29.14.13.25.28.34.45s.16.35.21.53c.05.18.09.37.11.56.02.19.03.38.03.57v3.84h-1.33v-3.84c0-.1,0-.21-.02-.31-.01-.1-.03-.21-.06-.31-.03-.1-.07-.19-.12-.28-.05-.09-.12-.17-.19-.24-.08-.07-.16-.12-.26-.16-.1-.03-.2-.05-.31-.05s-.21.02-.31.05-.19.08-.26.16c-.08.07-.14.15-.19.24-.05.09-.09.18-.12.28-.03.1-.05.2-.06.31-.01.1-.02.21-.02.31v3.84h-1.33Z" style="fill: #f07167;"/>
      <path d="m192.69,17.42v-5.09h-1.43v-1.15h2.76v6.24h-1.33Zm.67-7.08c-.13,0-.26-.02-.38-.06s-.24-.1-.32-.19c-.09-.09-.15-.2-.19-.32s-.06-.26-.06-.38.02-.26.06-.38.1-.24.19-.32c.09-.09.2-.15.32-.19.13-.04.26-.06.38-.06s.26.02.38.06c.13.04.24.1.32.19s.15.2.19.32c.04.13.06.26.06.38s-.02.26-.06.38c-.04.13-.1.24-.19.32s-.2.15-.32.19-.26.06-.38.06Z" style="fill: #f07167;"/>
      <path d="m199.05,17.51c-.18,0-.37-.01-.55-.04-.18-.02-.36-.07-.53-.13-.17-.06-.34-.14-.49-.25-.16-.11-.29-.24-.4-.38-.11-.15-.19-.31-.25-.49-.06-.18-.08-.36-.08-.54v-.04h1.33c0,.12.03.23.09.32.06.1.14.17.23.23.1.06.2.1.31.12.11.02.22.03.34.03.1,0,.21,0,.31-.02.1-.01.2-.04.3-.08.1-.04.18-.1.25-.19.07-.08.11-.18.11-.28,0-.13-.04-.25-.13-.35-.09-.11-.19-.2-.29-.26-.11-.07-.22-.12-.35-.17s-.25-.09-.37-.13-.25-.08-.37-.13c-.12-.05-.24-.1-.35-.16-.12-.06-.23-.13-.34-.2-.11-.07-.21-.15-.31-.24-.09-.09-.18-.18-.26-.29-.08-.1-.15-.21-.21-.33s-.1-.24-.13-.37c-.03-.13-.04-.26-.04-.38,0-.18.03-.35.08-.52.06-.17.14-.32.25-.46.11-.14.24-.26.38-.35s.3-.17.47-.23c.16-.06.33-.09.5-.11.17-.02.35-.03.52-.03s.35.01.53.04c.18.02.35.07.52.13.17.06.32.14.47.25.14.11.27.23.37.38.1.14.18.3.23.48.05.18.08.35.08.53v.04h-1.33c0-.12-.03-.22-.08-.31-.05-.1-.12-.17-.2-.23s-.18-.09-.28-.11c-.1-.02-.21-.03-.31-.03-.1,0-.19,0-.29.02-.1.02-.19.04-.28.08-.09.04-.16.1-.22.18-.06.08-.09.17-.09.28,0,.13.04.25.13.35.08.11.18.2.29.26.11.07.23.12.35.16.12.04.25.08.37.13.12.04.25.09.37.14s.24.1.35.16c.12.06.23.12.34.2s.21.16.31.25.18.18.26.29c.08.1.15.21.2.33.06.12.1.24.13.37.03.13.05.26.05.38,0,.18-.03.35-.09.52s-.15.33-.26.47c-.12.14-.25.26-.4.35-.15.09-.31.17-.49.22-.17.06-.35.09-.53.11-.18.02-.36.03-.53.03Z" style="fill: #f07167;"/>
      <path d="m205.06,17.51c-.14,0-.28-.02-.42-.07-.14-.04-.25-.12-.35-.22-.1-.1-.17-.22-.22-.35s-.07-.28-.07-.42.02-.29.07-.43.12-.26.22-.36c.1-.1.22-.17.35-.21.14-.04.28-.06.42-.06s.28.02.42.06.25.11.35.21c.1.1.17.22.22.36.04.14.07.28.07.43s-.02.28-.07.42c-.04.14-.12.25-.22.35-.1.1-.22.17-.35.22s-.28.07-.42.07Zm-.67-3.5v-5.41h1.34v5.41h-1.34Z" style="fill: #f07167;"/>
    </g>
  </g>
</svg>