<?xml version="1.0" encoding="UTF-8"?>
<svg id="Layer_1" data-name="Layer 1" xmlns="http://www.w3.org/2000/svg" width="940.1" height="940.1" xmlns:xlink="http://www.w3.org/1999/xlink" viewBox="0 0 940.1 940.1">
  <defs>
    <linearGradient id="linear-gradient" x1="235.2" y1="661.15" x2="653.8" y2="661.15" gradientTransform="translate(0 -140)" gradientUnits="userSpaceOnUse">
      <stop offset="0" stop-color="#8a5bff"/>
      <stop offset="1" stop-color="#e68dff"/>
    </linearGradient>
    <linearGradient id="linear-gradient-2" x1="422.7" y1="432.85" x2="803.3" y2="432.85" gradientTransform="translate(0 -140)" gradientUnits="userSpaceOnUse">
      <stop offset="0" stop-color="#8a5bff"/>
      <stop offset="1" stop-color="#e68dff"/>
    </linearGradient>
    <linearGradient id="linear-gradient-3" x1="3.5" y1="610.1" x2="936.7" y2="610.1" gradientTransform="translate(0 -140)" gradientUnits="userSpaceOnUse">
      <stop offset="0" stop-color="#8a5bff"/>
      <stop offset="1" stop-color="#e68dff"/>
    </linearGradient>
  </defs>
  <g id="Layer_3" data-name="Layer 3">
    <g id="Layer_2" data-name="Layer 2">
      <g>
        <path d="m653.8,760.4v-342.2l-166.1-166.2h-252.5v508.4c0,16.4,13.5,29.9,29.9,29.9h358.8c16.5,0,29.9-13.4,29.9-29.9Z" style="fill: url(#linear-gradient);"/>
        <polygon points="718.8 314 591.9 187.1 570.8 208.3 465 102.5 422.7 144.8 761.1 483.2 803.3 440.9 697.6 335.1 718.8 314" style="fill: url(#linear-gradient-2);"/>
      </g>
    </g>
    <g id="Layer_3-2" data-name="Layer 3">
      <path d="m359.7,524.1c5.5,0,10.9.8,16.1,2.4h0c23.2,7.1,38.8,28.2,38.8,52.5,0,2.8,2.2,5,5,5s5-2.2,5-5c0-27.2-16.6-51-41.7-60.6,5.9-33.1,34.8-57.7,69-57.7,38.6,0,70.1,31.4,70.1,70.1,0,4.4-.4,8.9-1.3,13.4-.3,1.8.3,3.6,1.6,4.7,1.3,1.2,3.2,1.5,4.9,1,4.5-1.5,9.2-2.3,13.9-2.3,23.8,0,43.2,19.4,43.2,43.2s-19.4,43.2-43.2,43.2h-181.4c-30.3,0-54.9-24.6-54.9-54.9,0-30.4,24.6-55,54.9-55Z" style="fill: #e5e5e5;"/>
    </g>
  </g>
  <g id="Layer_1-2" data-name="Layer 1">
    <g id="Layer_2-2" data-name="Layer 2">
      <g id="Layer_2-2" data-name="Layer 2-2">
        <circle cx="470.1" cy="470.1" r="466.6" style="fill: url(#linear-gradient-3); isolation: isolate; opacity: .06; stroke: #231f20; stroke-miterlimit: 10; stroke-width: 7px;"/>
      </g>
    </g>
  </g>
  <g id="Layer_5" data-name="Layer 5">
    <g id="Layer_4" data-name="Layer 4">
      <path d="m917.9,936.2H22.2c-11,0-20-9-20-20v-168.2c0-11,9-20,20-20h895.7c11,0,20,9,20,20v168.2c0,11-8.9,20-20,20Z" style="fill: #1854bb; stroke: #1854bb; stroke-miterlimit: 10; stroke-width: .25px;"/>
      <g style="isolation: isolate;">
        <path d="m220.98,873.08c-1.84,0-3.63-.29-5.36-.88-1.73-.59-3.28-1.49-4.64-2.71-1.36-1.22-2.49-2.61-3.37-4.2-.88-1.58-1.59-3.24-2.1-4.97-.52-1.73-.87-3.5-1.05-5.3-.18-1.8-.28-3.63-.28-5.47v-35.92c0-1.99.15-4,.44-6.02.29-2.03.85-3.96,1.66-5.8.81-1.84,1.9-3.55,3.26-5.14,1.36-1.58,2.93-2.87,4.7-3.87,1.77-.99,3.65-1.69,5.64-2.1,1.99-.4,3.98-.61,5.97-.61s3.81.17,5.69.5c1.88.33,3.66.92,5.36,1.77,1.69.85,3.24,1.95,4.64,3.32,1.4,1.36,2.52,2.89,3.37,4.59.85,1.7,1.49,3.48,1.93,5.36s.66,3.78.66,5.69v.11h-12.27v-.11c0-1.33-.18-2.63-.55-3.92-.37-1.29-.96-2.47-1.77-3.54-.81-1.07-1.86-1.86-3.15-2.38-1.29-.51-2.6-.77-3.92-.77-.96,0-1.93.15-2.93.44-.99.3-1.86.77-2.6,1.44-.74.66-1.36,1.44-1.88,2.32-.52.88-.92,1.81-1.22,2.76-.3.96-.5,1.93-.61,2.93-.11,1-.17,2.01-.17,3.04v35.92c0,1.47.15,2.97.44,4.48.29,1.51.83,2.93,1.6,4.26.77,1.33,1.86,2.36,3.26,3.09,1.4.74,2.84,1.11,4.31,1.11.96,0,1.92-.17,2.87-.5.96-.33,1.8-.83,2.54-1.49.74-.66,1.33-1.44,1.77-2.32.44-.88.79-1.8,1.05-2.76.26-.96.44-1.93.55-2.93.11-.99.17-1.97.17-2.93v-11.6h-8.84v-10.61h21.11v44.87h-11.27v-12.6c-.44,1.77-1.07,3.5-1.88,5.19-.81,1.7-1.86,3.19-3.15,4.48s-2.82,2.25-4.59,2.87c-1.77.63-3.57.94-5.42.94Z" style="fill: #fff;"/>
        <path d="m278.01,872.2v-46.86h-13.15v-10.61h25.42v57.47h-12.27Zm6.19-65.21c-1.18,0-2.36-.18-3.54-.55-1.18-.37-2.17-.96-2.98-1.77-.81-.81-1.4-1.8-1.77-2.98-.37-1.18-.55-2.36-.55-3.54s.18-2.36.55-3.54c.37-1.18.96-2.17,1.77-2.98.81-.81,1.8-1.4,2.98-1.77,1.18-.37,2.36-.55,3.54-.55s2.36.18,3.54.55c1.18.37,2.17.96,2.98,1.77.81.81,1.4,1.81,1.77,2.98.37,1.18.55,2.36.55,3.54s-.18,2.36-.55,3.54c-.37,1.18-.96,2.17-1.77,2.98s-1.81,1.4-2.98,1.77c-1.18.37-2.36.55-3.54.55Z" style="fill: #fff;"/>
        <path d="m345.75,872.2c-1.47,0-2.98-.13-4.53-.39-1.55-.26-3-.72-4.37-1.38-1.36-.66-2.6-1.55-3.7-2.65-1.1-1.11-1.99-2.36-2.65-3.76-.66-1.4-1.12-2.85-1.38-4.37-.26-1.51-.39-3.04-.39-4.59v-29.73h-13.15v-10.61h13.15v-23.76h12.27v23.76h16.8v10.61h-16.8v29.73c0,.81.07,1.58.22,2.32.15.74.4,1.44.77,2.1.37.66.9,1.18,1.6,1.55.7.37,1.42.55,2.15.55h12.05v10.61h-12.05Z" style="fill: #fff;"/>
        <path d="m370.84,872.2v-81.23h12.27v34.26h17.68v-34.26h12.27v81.23h-12.27v-36.36h-17.68v36.36h-12.27Z" style="fill: #fff;"/>
        <path d="m442.13,873.08c-1.77,0-3.5-.29-5.19-.88-1.7-.59-3.19-1.47-4.48-2.65-1.29-1.18-2.34-2.56-3.15-4.14-.81-1.58-1.46-3.22-1.93-4.92-.48-1.69-.81-3.41-.99-5.14-.18-1.73-.28-3.48-.28-5.25v-35.37h12.27v35.37c0,.96.06,1.92.17,2.87.11.96.29,1.9.55,2.82.26.92.62,1.79,1.11,2.6.48.81,1.07,1.55,1.77,2.21.7.66,1.51,1.14,2.43,1.44.92.3,1.86.44,2.82.44s1.9-.15,2.82-.44c.92-.29,1.73-.77,2.43-1.44.7-.66,1.29-1.4,1.77-2.21.48-.81.85-1.68,1.1-2.6.26-.92.44-1.86.55-2.82.11-.96.17-1.92.17-2.87v-35.37h12.27v57.47h-12.27v-9.06c-.59,1.47-1.33,2.84-2.21,4.09-.88,1.25-1.93,2.34-3.15,3.26-1.22.92-2.56,1.58-4.03,1.99-1.48.4-2.98.61-4.53.61Z" style="fill: #fff;"/>
        <path d="m507.66,873.08c-1.55,0-3.06-.2-4.53-.61-1.47-.4-2.84-1.07-4.09-1.99-1.25-.92-2.32-2.01-3.21-3.26-.88-1.25-1.62-2.61-2.21-4.09v9.06h-12.27v-81.23h12.27v32.82c.59-1.47,1.33-2.83,2.21-4.09.88-1.25,1.95-2.34,3.21-3.26,1.25-.92,2.61-1.58,4.09-1.99,1.47-.4,2.98-.61,4.53-.61,1.77,0,3.52.28,5.25.83,1.73.55,3.28,1.4,4.64,2.54,1.36,1.14,2.5,2.5,3.43,4.09.92,1.58,1.64,3.22,2.16,4.92.51,1.7.87,3.45,1.05,5.25.18,1.81.28,3.59.28,5.36v13.26c0,1.77-.09,3.56-.28,5.36-.18,1.81-.54,3.56-1.05,5.25-.52,1.7-1.23,3.33-2.16,4.92-.92,1.59-2.06,2.95-3.43,4.09-1.36,1.14-2.91,1.99-4.64,2.54-1.73.55-3.48.83-5.25.83Zm-5.08-10.61c1.47,0,2.89-.35,4.25-1.05,1.36-.7,2.45-1.66,3.26-2.87.81-1.21,1.36-2.56,1.66-4.03.29-1.47.44-2.95.44-4.42v-13.26c0-1.47-.15-2.95-.44-4.42-.3-1.47-.85-2.82-1.66-4.03-.81-1.22-1.9-2.17-3.26-2.87-1.36-.7-2.78-1.05-4.25-1.05-.96,0-1.9.15-2.82.44-.92.29-1.75.76-2.49,1.38-.74.63-1.34,1.36-1.82,2.21-.48.85-.85,1.73-1.11,2.65-.26.92-.44,1.86-.55,2.82-.11.96-.17,1.92-.17,2.87v13.26c0,.96.05,1.92.17,2.87.11.96.29,1.9.55,2.82.26.92.62,1.81,1.11,2.65.48.85,1.09,1.59,1.82,2.21.74.63,1.56,1.09,2.49,1.38.92.3,1.86.44,2.82.44Z" style="fill: #fff;"/>
        <path d="m589.45,872.2l16.47-81.23h14.15l16.47,81.23h-12.6l-3.32-18.12h-15.25l-3.32,18.12h-12.6Zm17.79-28.73h11.49l-4.64-25.42c-.15-1.03-.31-2.08-.5-3.15-.18-1.07-.39-2.12-.61-3.15-.22,1.03-.42,2.08-.61,3.15-.18,1.07-.35,2.12-.5,3.15l-4.64,25.42Z" style="fill: #fff;"/>
        <path d="m667.91,873.08c-1.99,0-3.98-.18-5.97-.55-1.99-.37-3.85-1.05-5.58-2.04-1.73-1-3.28-2.25-4.64-3.76-1.36-1.51-2.47-3.17-3.32-4.97-.85-1.8-1.42-3.7-1.71-5.69-.29-1.99-.44-3.98-.44-5.97v-13.26c0-1.99.15-3.98.44-5.97.29-1.99.87-3.88,1.71-5.69.85-1.8,1.95-3.46,3.32-4.97,1.36-1.51,2.91-2.76,4.64-3.76,1.73-1,3.59-1.68,5.58-2.04,1.99-.37,3.98-.55,5.97-.55s3.81.17,5.69.5c1.88.33,3.66.9,5.36,1.71,1.69.81,3.22,1.88,4.59,3.21s2.49,2.82,3.37,4.48c.88,1.66,1.55,3.43,1.99,5.3.44,1.88.66,3.74.66,5.58v.22h-12.27v-.11c0-1.33-.2-2.61-.61-3.87-.41-1.25-1.01-2.39-1.82-3.43-.81-1.03-1.84-1.79-3.09-2.27-1.25-.48-2.54-.72-3.87-.72-1.47,0-2.87.35-4.2,1.05-1.33.7-2.38,1.66-3.15,2.87s-1.31,2.56-1.6,4.03c-.29,1.47-.44,2.95-.44,4.42v13.26c0,1.47.15,2.95.44,4.42.29,1.47.83,2.82,1.6,4.03.77,1.22,1.82,2.17,3.15,2.87,1.33.7,2.73,1.05,4.2,1.05,1.33,0,2.61-.24,3.87-.72,1.25-.48,2.28-1.23,3.09-2.27.81-1.03,1.42-2.17,1.82-3.43.4-1.25.61-2.54.61-3.87v-.11h12.27v.22c0,1.84-.22,3.7-.66,5.58-.44,1.88-1.1,3.65-1.99,5.31-.88,1.66-2.01,3.15-3.37,4.48s-2.89,2.4-4.59,3.21c-1.7.81-3.48,1.38-5.36,1.71-1.88.33-3.78.5-5.69.5Z" style="fill: #fff;"/>
        <path d="m732.57,872.2c-1.47,0-2.98-.13-4.53-.39-1.55-.26-3-.72-4.37-1.38-1.36-.66-2.6-1.55-3.7-2.65s-1.99-2.36-2.65-3.76c-.66-1.4-1.12-2.85-1.38-4.37-.26-1.51-.39-3.04-.39-4.59v-29.73h-13.15v-10.61h13.15v-23.76h12.27v23.76h16.8v10.61h-16.8v29.73c0,.81.07,1.58.22,2.32.15.74.4,1.44.77,2.1.37.66.9,1.18,1.6,1.55.7.37,1.42.55,2.15.55h12.05v10.61h-12.05Z" style="fill: #fff;"/>
        <path d="m775.34,872.2v-46.86h-13.15v-10.61h25.42v57.47h-12.27Zm6.19-65.21c-1.18,0-2.36-.18-3.54-.55-1.18-.37-2.17-.96-2.98-1.77-.81-.81-1.4-1.8-1.77-2.98-.37-1.18-.55-2.36-.55-3.54s.18-2.36.55-3.54c.37-1.18.96-2.17,1.77-2.98.81-.81,1.8-1.4,2.98-1.77,1.18-.37,2.36-.55,3.54-.55s2.36.18,3.54.55c1.18.37,2.17.96,2.98,1.77.81.81,1.4,1.81,1.77,2.98.37,1.18.55,2.36.55,3.54s-.18,2.36-.55,3.54c-.37,1.18-.96,2.17-1.77,2.98s-1.81,1.4-2.98,1.77c-1.18.37-2.36.55-3.54.55Z" style="fill: #fff;"/>
        <path d="m834.02,873.08c-1.99,0-4-.18-6.02-.55-2.03-.37-3.92-1.03-5.69-1.99-1.77-.96-3.33-2.19-4.7-3.7-1.36-1.51-2.47-3.17-3.32-4.97-.85-1.8-1.44-3.72-1.77-5.75-.33-2.03-.5-4.03-.5-6.02v-13.26c0-1.99.17-4,.5-6.02.33-2.03.92-3.94,1.77-5.75.85-1.8,1.95-3.46,3.32-4.97,1.36-1.51,2.93-2.74,4.7-3.7,1.77-.96,3.66-1.62,5.69-1.99,2.03-.37,4.03-.55,6.02-.55s4,.18,6.02.55c2.03.37,3.92,1.03,5.69,1.99,1.77.96,3.33,2.19,4.7,3.7,1.36,1.51,2.47,3.17,3.32,4.97.85,1.81,1.44,3.72,1.77,5.75.33,2.03.5,4.03.5,6.02v13.26c0,1.99-.17,4-.5,6.02-.33,2.03-.92,3.94-1.77,5.75-.85,1.81-1.95,3.46-3.32,4.97-1.36,1.51-2.93,2.75-4.7,3.7-1.77.96-3.67,1.62-5.69,1.99-2.03.37-4.03.55-6.02.55Zm0-10.61c1.47,0,2.89-.33,4.25-1,1.36-.66,2.47-1.62,3.32-2.87.85-1.25,1.42-2.61,1.71-4.09.29-1.47.44-2.95.44-4.42v-13.26c0-1.47-.15-2.95-.44-4.42-.29-1.47-.87-2.84-1.71-4.09-.85-1.25-1.95-2.21-3.32-2.87-1.36-.66-2.78-1-4.25-1s-2.89.33-4.25,1c-1.36.66-2.47,1.62-3.32,2.87-.85,1.25-1.42,2.62-1.71,4.09-.3,1.47-.44,2.95-.44,4.42v13.26c0,1.47.15,2.95.44,4.42.29,1.47.86,2.84,1.71,4.09.85,1.25,1.95,2.21,3.32,2.87,1.36.66,2.78,1,4.25,1Z" style="fill: #fff;"/>
        <path d="m868.17,872.2v-57.47h12.27v9.06c.59-1.47,1.33-2.83,2.21-4.09.88-1.25,1.93-2.34,3.15-3.26,1.22-.92,2.56-1.58,4.03-1.99,1.47-.4,2.98-.61,4.53-.61,1.77,0,3.5.29,5.19.88,1.69.59,3.19,1.47,4.48,2.65,1.29,1.18,2.34,2.56,3.15,4.14.81,1.59,1.45,3.22,1.93,4.92.48,1.7.81,3.41.99,5.14.18,1.73.28,3.48.28,5.25v35.37h-12.27v-35.37c0-.96-.05-1.92-.17-2.87-.11-.96-.3-1.9-.55-2.82-.26-.92-.63-1.79-1.11-2.6-.48-.81-1.07-1.55-1.77-2.21s-1.51-1.14-2.43-1.44c-.92-.29-1.86-.44-2.82-.44s-1.9.15-2.82.44c-.92.29-1.73.77-2.43,1.44-.7.66-1.29,1.4-1.77,2.21-.48.81-.85,1.68-1.11,2.6-.26.92-.44,1.86-.55,2.82-.11.96-.17,1.92-.17,2.87v35.37h-12.27Z" style="fill: #fff;"/>
      </g>
      <path d="m122.7,824c-11.4-7.5-22.9-14.7-34.6-21.8-10.3-6.2-21.4.1-21.7,12.1-.2,7.1,0,14.2,0,21.3s-.1,14.6,0,21.9c.3,11.3,11.1,17.8,20.8,12.2,11.9-6.9,23.7-14.2,35.2-21.8,9.8-6.3,9.8-17.7.3-23.9Zm-9.5,13.5c-9.9,6.1-19.8,12.3-29.7,18.4-1.7,1.1-3,1.2-3.1-1.4v-40.7c11.6,7.3,22.2,14,32.9,20.7,1.6.9,1.6,2-.1,3Z" style="fill: #fff;"/>
      <path d="m93.9,765.6c-38.6,0-69.8,31.2-69.8,69.8,0,33.9,24.2,62.1,56.2,68.5,2.5.3,5.1.6,7.6.9,4.2.3,33.6,2.2,56-20.7,2.7-2.8,19.8-21.5,19.8-48.7,0-38.6-31.2-69.8-69.8-69.8Zm0,125.2c-30.6,0-55.5-24.8-55.5-55.5s24.8-55.5,55.5-55.5,55.5,24.8,55.5,55.5-24.9,55.5-55.5,55.5Z" style="fill: #fff;"/>
    </g>
  </g>
</svg>