<?xml version="1.0" encoding="utf-8"?>
<!-- Generator: Adobe Illustrator 26.0.2, SVG Export Plug-In . SVG Version: 6.00 Build 0)  -->
<svg version="1.1" xmlns="http://www.w3.org/2000/svg" xmlns:xlink="http://www.w3.org/1999/xlink" x="0px" y="0px"
	 viewBox="0 0 940.1 940.1" style="enable-background:new 0 0 940.1 940.1;" xml:space="preserve">
<style type="text/css">
	.st0{fill:url(#SVGID_1_);}
	.st1{fill:url(#SVGID_00000122689689800962791000000004294389681617242010_);}
	.st2{fill:#E5E5E5;}
	
		.st3{opacity:6.000000e-02;fill:url(#SVGID_00000000187184881638584290000017553353005017747871_);stroke:#231F20;stroke-width:7;stroke-miterlimit:10;enable-background:new    ;}
	.st4{fill:#1854BB;stroke:#1854BB;stroke-width:0.25;stroke-miterlimit:10;}
	.st5{fill:#FFFFFF;}
	.st6{font-family:'Iosevka-Fixed-SS10-Bold';}
	.st7{font-size:110.518px;}
</style>
<g id="Layer_3_00000011734903520311100260000011197407811152992955_">
	<g id="Layer_2_00000029043356612199110790000008713426669560049843_">
		<g>
			
				<linearGradient id="SVGID_1_" gradientUnits="userSpaceOnUse" x1="235.2" y1="418.85" x2="653.8" y2="418.85" gradientTransform="matrix(1 0 0 -1 0 940)">
				<stop  offset="0" style="stop-color:#8A5BFF"/>
				<stop  offset="1" style="stop-color:#E68DFF"/>
			</linearGradient>
			<path class="st0" d="M653.8,760.4V418.2L487.7,252H235.2v508.4c0,16.4,13.5,29.9,29.9,29.9h358.8
				C640.4,790.3,653.8,776.9,653.8,760.4z"/>
			
				<linearGradient id="SVGID_00000129187663201212641220000009869694330663305879_" gradientUnits="userSpaceOnUse" x1="422.7" y1="647.15" x2="803.3" y2="647.15" gradientTransform="matrix(1 0 0 -1 0 940)">
				<stop  offset="0" style="stop-color:#8A5BFF"/>
				<stop  offset="1" style="stop-color:#E68DFF"/>
			</linearGradient>
			<polygon style="fill:url(#SVGID_00000129187663201212641220000009869694330663305879_);" points="718.8,314 591.9,187.1 
				570.8,208.3 465,102.5 422.7,144.8 761.1,483.2 803.3,440.9 697.6,335.1 			"/>
		</g>
	</g>
	<g id="Layer_3">
		<path class="st2" d="M359.7,524.1c5.5,0,10.9,0.8,16.1,2.4l0,0l0,0c23.2,7.1,38.8,28.2,38.8,52.5c0,2.8,2.2,5,5,5s5-2.2,5-5
			c0-27.2-16.6-51-41.7-60.6c5.9-33.1,34.8-57.7,69-57.7c38.6,0,70.1,31.4,70.1,70.1c0,4.4-0.4,8.9-1.3,13.4
			c-0.3,1.8,0.3,3.6,1.6,4.7c1.3,1.2,3.2,1.5,4.9,1c4.5-1.5,9.2-2.3,13.9-2.3c23.8,0,43.2,19.4,43.2,43.2S564.9,634,541.1,634H359.7
			c-30.3,0-54.9-24.6-54.9-54.9C304.8,548.7,329.4,524.1,359.7,524.1z"/>
	</g>
</g>
<g id="Layer_1">
	<g id="Layer_2_00000050628014440800621950000002062737281023438980_">
		<g id="Layer_2-2">
			
				<linearGradient id="SVGID_00000164514411267408438550000005464647738861180313_" gradientUnits="userSpaceOnUse" x1="3.5" y1="469.9" x2="936.7" y2="469.9" gradientTransform="matrix(1 0 0 -1 0 940)">
				<stop  offset="0" style="stop-color:#8A5BFF"/>
				<stop  offset="1" style="stop-color:#E68DFF"/>
			</linearGradient>
			
				<circle style="opacity:6.000000e-02;fill:url(#SVGID_00000164514411267408438550000005464647738861180313_);stroke:#231F20;stroke-width:7;stroke-miterlimit:10;enable-background:new    ;" cx="470.1" cy="470.1" r="466.6"/>
		</g>
	</g>
</g>
<g id="Layer_5">
	<g id="Layer_4">
		<path class="st4" d="M917.9,936.2H22.2c-11,0-20-9-20-20V748c0-11,9-20,20-20h895.7c11,0,20,9,20,20v168.2
			C937.9,927.2,929,936.2,917.9,936.2z"/>
		<text transform="matrix(1 0 0 1 198.5435 872.1953)" class="st5 st6 st7">GitHub Action</text>
		<path class="st5" d="M122.7,824c-11.4-7.5-22.9-14.7-34.6-21.8c-10.3-6.2-21.4,0.1-21.7,12.1c-0.2,7.1,0,14.2,0,21.3
			c0,7.3-0.1,14.6,0,21.9c0.3,11.3,11.1,17.8,20.8,12.2c11.9-6.9,23.7-14.2,35.2-21.8C132.2,841.6,132.2,830.2,122.7,824z
			 M113.2,837.5c-9.9,6.1-19.8,12.3-29.7,18.4c-1.7,1.1-3,1.2-3.1-1.4c0-5.4,0-10.8,0-16.4V831l0-4.8c0-2.4,0-4.9,0-7.4v-5
			c11.6,7.3,22.2,14,32.9,20.7C114.9,835.4,114.9,836.5,113.2,837.5z"/>
		<path class="st5" d="M93.9,765.6c-38.6,0-69.8,31.2-69.8,69.8c0,33.9,24.2,62.1,56.2,68.5c2.5,0.3,5.1,0.6,7.6,0.9
			c4.2,0.3,33.6,2.2,56-20.7c2.7-2.8,19.8-21.5,19.8-48.7C163.7,796.8,132.5,765.6,93.9,765.6z M93.9,890.8
			c-30.6,0-55.5-24.8-55.5-55.5c0-30.6,24.8-55.5,55.5-55.5c30.6,0,55.5,24.8,55.5,55.5C149.4,866,124.5,890.8,93.9,890.8z"/>
	</g>
</g>
</svg>
